%TF.GenerationSoftware,KiCad,Pcbnew,9.0.6*%
%TF.CreationDate,2025-12-06T00:52:23+00:00*%
%TF.ProjectId,DT,44542e6b-6963-4616-945f-706362585858,rev?*%
%TF.SameCoordinates,Original*%
%TF.FileFunction,Soldermask,Top*%
%TF.FilePolarity,Negative*%
%FSLAX46Y46*%
G04 Gerber Fmt 4.6, Leading zero omitted, Abs format (unit mm)*
G04 Created by KiCad (PCBNEW 9.0.6) date 2025-12-06 00:52:23*
%MOMM*%
%LPD*%
G01*
G04 APERTURE LIST*
%ADD10C,1.400000*%
%ADD11R,1.800000X1.800000*%
%ADD12C,1.800000*%
%ADD13C,1.700000*%
%ADD14C,4.000000*%
%ADD15C,2.200000*%
%ADD16C,3.200000*%
%ADD17O,1.727200X1.727200*%
%ADD18R,1.727200X1.727200*%
%ADD19C,3.000000*%
%ADD20R,1.800000X2.600000*%
%ADD21O,1.800000X2.600000*%
G04 APERTURE END LIST*
D10*
%TO.C,R5*%
X-251055000Y-43850000D03*
X-249155000Y-43850000D03*
%TD*%
D11*
%TO.C,D6*%
X-343032000Y-24465000D03*
D12*
X-340492000Y-24465000D03*
%TD*%
D11*
%TO.C,D7*%
X-313262000Y-24465000D03*
D12*
X-310722000Y-24465000D03*
%TD*%
D10*
%TO.C,R8*%
X-246095000Y-31250000D03*
X-244195000Y-31250000D03*
%TD*%
D13*
%TO.C,SW11*%
X-317090000Y-69120000D03*
D14*
X-312010000Y-69120000D03*
D13*
X-306930000Y-69120000D03*
D15*
X-309470000Y-64040000D03*
X-315820000Y-66580000D03*
%TD*%
D10*
%TO.C,R24*%
X-236175000Y-37550000D03*
X-234275000Y-37550000D03*
%TD*%
D11*
%TO.C,D5*%
X-372802000Y-24465000D03*
D12*
X-370262000Y-24465000D03*
%TD*%
D13*
%TO.C,SW9*%
X-376630000Y-69120000D03*
D14*
X-371550000Y-69120000D03*
D13*
X-366470000Y-69120000D03*
D15*
X-369010000Y-64040000D03*
X-375360000Y-66580000D03*
%TD*%
D10*
%TO.C,R4*%
X-251055000Y-40700000D03*
X-249155000Y-40700000D03*
%TD*%
D11*
%TO.C,D9*%
X-372802000Y-54235000D03*
D12*
X-370262000Y-54235000D03*
%TD*%
D10*
%TO.C,R1*%
X-251055000Y-31250000D03*
X-249155000Y-31250000D03*
%TD*%
D11*
%TO.C,D1*%
X-372802000Y5305000D03*
D12*
X-370262000Y5305000D03*
%TD*%
D10*
%TO.C,R11*%
X-246095000Y-40700000D03*
X-244195000Y-40700000D03*
%TD*%
D16*
%TO.C,A1*%
X-361680000Y-132730000D03*
X-360410000Y-84470000D03*
D17*
X-347710000Y-132730000D03*
D16*
X-309610000Y-99710000D03*
X-309610000Y-127650000D03*
X-285480000Y-84470000D03*
X-279130000Y-132730000D03*
D17*
X-340090000Y-132730000D03*
X-337550000Y-132730000D03*
X-309483000Y-104790000D03*
X-281670000Y-84470000D03*
X-279130000Y-84470000D03*
X-324850000Y-132730000D03*
X-322310000Y-132730000D03*
X-319770000Y-132730000D03*
X-317230000Y-132730000D03*
X-314690000Y-132730000D03*
X-312150000Y-132730000D03*
X-309610000Y-132730000D03*
X-307070000Y-132730000D03*
X-301990000Y-132730000D03*
X-299450000Y-132730000D03*
X-296910000Y-132730000D03*
X-294370000Y-132730000D03*
X-291830000Y-132730000D03*
X-289290000Y-132730000D03*
X-286750000Y-132730000D03*
X-284210000Y-132730000D03*
X-351774000Y-84470000D03*
X-312150000Y-84470000D03*
X-314690000Y-84470000D03*
X-317230000Y-84470000D03*
X-319770000Y-84470000D03*
X-322310000Y-84470000D03*
X-324850000Y-84470000D03*
X-327390000Y-84470000D03*
X-329930000Y-84470000D03*
X-333994000Y-84470000D03*
X-336534000Y-84470000D03*
X-339074000Y-84470000D03*
X-341614000Y-84470000D03*
X-344154000Y-84470000D03*
X-346694000Y-84470000D03*
X-307070000Y-84470000D03*
X-304530000Y-84470000D03*
X-301990000Y-84470000D03*
X-299450000Y-84470000D03*
X-296910000Y-84470000D03*
X-294370000Y-84470000D03*
X-291830000Y-84470000D03*
X-289290000Y-84470000D03*
X-281670000Y-87010000D03*
X-279130000Y-87010000D03*
X-281670000Y-89550000D03*
X-279130000Y-89550000D03*
X-281670000Y-92090000D03*
X-279130000Y-92090000D03*
X-281670000Y-94630000D03*
X-279130000Y-94630000D03*
X-281670000Y-97170000D03*
X-279130000Y-97170000D03*
X-281670000Y-99710000D03*
X-279130000Y-99710000D03*
X-281670000Y-102250000D03*
X-279130000Y-102250000D03*
X-281670000Y-104790000D03*
X-279130000Y-104790000D03*
X-281670000Y-107330000D03*
X-279130000Y-107330000D03*
X-281670000Y-109870000D03*
X-279130000Y-109870000D03*
X-281670000Y-112410000D03*
X-279130000Y-112410000D03*
X-281670000Y-114950000D03*
X-279130000Y-114950000D03*
X-281670000Y-117490000D03*
X-279130000Y-117490000D03*
X-281670000Y-120030000D03*
X-279130000Y-120030000D03*
X-281670000Y-122570000D03*
X-279130000Y-122570000D03*
X-281670000Y-125110000D03*
X-279130000Y-125110000D03*
D18*
X-349234000Y-84470000D03*
X-335010000Y-132730000D03*
X-332470000Y-132730000D03*
X-309483000Y-109870000D03*
X-281670000Y-127650000D03*
X-279130000Y-127650000D03*
D17*
X-345170000Y-132730000D03*
X-312023000Y-104790000D03*
X-309483000Y-107330000D03*
X-342630000Y-132730000D03*
X-312023000Y-109870000D03*
X-312023000Y-107330000D03*
X-356854000Y-84470000D03*
X-354314000Y-84470000D03*
X-329930000Y-132730000D03*
%TD*%
D10*
%TO.C,R3*%
X-251055000Y-37550000D03*
X-249155000Y-37550000D03*
%TD*%
%TO.C,R25*%
X-236175000Y-40700000D03*
X-234275000Y-40700000D03*
%TD*%
D13*
%TO.C,SW12*%
X-287320000Y-69120000D03*
D14*
X-282240000Y-69120000D03*
D13*
X-277160000Y-69120000D03*
D15*
X-279700000Y-64040000D03*
X-286050000Y-66580000D03*
%TD*%
D10*
%TO.C,R23*%
X-236175000Y-34400000D03*
X-234275000Y-34400000D03*
%TD*%
%TO.C,R21*%
X-241135000Y-50150000D03*
X-239235000Y-50150000D03*
%TD*%
%TO.C,R12*%
X-246095000Y-43850000D03*
X-244195000Y-43850000D03*
%TD*%
D19*
%TO.C,DS1*%
X-363955000Y42000000D03*
X-363955000Y10999300D03*
X-288956420Y10999300D03*
X-288955900Y42000000D03*
D20*
X-358455900Y42000000D03*
D21*
X-355915900Y42000000D03*
X-353375900Y42000000D03*
X-350835900Y42000000D03*
X-348295900Y42000000D03*
X-345755900Y42000000D03*
X-343215900Y42000000D03*
X-340675900Y42000000D03*
X-338135900Y42000000D03*
X-335595900Y42000000D03*
X-333055900Y42000000D03*
X-330515900Y42000000D03*
X-327975900Y42000000D03*
X-325435900Y42000000D03*
X-322895900Y42000000D03*
X-320355900Y42000000D03*
%TD*%
D13*
%TO.C,SW2*%
X-346860000Y-9580000D03*
D14*
X-341780000Y-9580000D03*
D13*
X-336700000Y-9580000D03*
D15*
X-339240000Y-4500000D03*
X-345590000Y-7040000D03*
%TD*%
D10*
%TO.C,R14*%
X-246095000Y-50150000D03*
X-244195000Y-50150000D03*
%TD*%
%TO.C,R22*%
X-236175000Y-31250000D03*
X-234275000Y-31250000D03*
%TD*%
D13*
%TO.C,SW4*%
X-287320000Y-9580000D03*
D14*
X-282240000Y-9580000D03*
D13*
X-277160000Y-9580000D03*
D15*
X-279700000Y-4500000D03*
X-286050000Y-7040000D03*
%TD*%
D13*
%TO.C,SW6*%
X-346860000Y-39350000D03*
D14*
X-341780000Y-39350000D03*
D13*
X-336700000Y-39350000D03*
D15*
X-339240000Y-34270000D03*
X-345590000Y-36810000D03*
%TD*%
D10*
%TO.C,R15*%
X-241135000Y-31250000D03*
X-239235000Y-31250000D03*
%TD*%
D13*
%TO.C,SW3*%
X-317090000Y-9580000D03*
D14*
X-312010000Y-9580000D03*
D13*
X-306930000Y-9580000D03*
D15*
X-309470000Y-4500000D03*
X-315820000Y-7040000D03*
%TD*%
D11*
%TO.C,D12*%
X-283492000Y-54235000D03*
D12*
X-280952000Y-54235000D03*
%TD*%
D10*
%TO.C,R16*%
X-241135000Y-34400000D03*
X-239235000Y-34400000D03*
%TD*%
D11*
%TO.C,D2*%
X-343032000Y5305000D03*
D12*
X-340492000Y5305000D03*
%TD*%
D13*
%TO.C,SW1*%
X-376630000Y-9580000D03*
D14*
X-371550000Y-9580000D03*
D13*
X-366470000Y-9580000D03*
D15*
X-369010000Y-4500000D03*
X-375360000Y-7040000D03*
%TD*%
D11*
%TO.C,D3*%
X-313262000Y5305000D03*
D12*
X-310722000Y5305000D03*
%TD*%
D10*
%TO.C,R17*%
X-241135000Y-37550000D03*
X-239235000Y-37550000D03*
%TD*%
D13*
%TO.C,SW8*%
X-287320000Y-39350000D03*
D14*
X-282240000Y-39350000D03*
D13*
X-277160000Y-39350000D03*
D15*
X-279700000Y-34270000D03*
X-286050000Y-36810000D03*
%TD*%
D10*
%TO.C,R10*%
X-246095000Y-37550000D03*
X-244195000Y-37550000D03*
%TD*%
%TO.C,R19*%
X-241135000Y-43850000D03*
X-239235000Y-43850000D03*
%TD*%
%TO.C,R20*%
X-241135000Y-47000000D03*
X-239235000Y-47000000D03*
%TD*%
%TO.C,R2*%
X-251055000Y-34400000D03*
X-249155000Y-34400000D03*
%TD*%
D13*
%TO.C,SW5*%
X-376630000Y-39350000D03*
D14*
X-371550000Y-39350000D03*
D13*
X-366470000Y-39350000D03*
D15*
X-369010000Y-34270000D03*
X-375360000Y-36810000D03*
%TD*%
D11*
%TO.C,D4*%
X-283492000Y5305000D03*
D12*
X-280952000Y5305000D03*
%TD*%
D10*
%TO.C,R6*%
X-251055000Y-47000000D03*
X-249155000Y-47000000D03*
%TD*%
D11*
%TO.C,D11*%
X-313262000Y-54235000D03*
D12*
X-310722000Y-54235000D03*
%TD*%
D10*
%TO.C,R18*%
X-241135000Y-40700000D03*
X-239235000Y-40700000D03*
%TD*%
%TO.C,R9*%
X-246095000Y-34400000D03*
X-244195000Y-34400000D03*
%TD*%
D11*
%TO.C,D8*%
X-283492000Y-24465000D03*
D12*
X-280952000Y-24465000D03*
%TD*%
D10*
%TO.C,R13*%
X-246095000Y-47000000D03*
X-244195000Y-47000000D03*
%TD*%
D13*
%TO.C,SW7*%
X-317090000Y-39350000D03*
D14*
X-312010000Y-39350000D03*
D13*
X-306930000Y-39350000D03*
D15*
X-309470000Y-34270000D03*
X-315820000Y-36810000D03*
%TD*%
D13*
%TO.C,SW10*%
X-346860000Y-69120000D03*
D14*
X-341780000Y-69120000D03*
D13*
X-336700000Y-69120000D03*
D15*
X-339240000Y-64040000D03*
X-345590000Y-66580000D03*
%TD*%
D11*
%TO.C,D10*%
X-343032000Y-54235000D03*
D12*
X-340492000Y-54235000D03*
%TD*%
D10*
%TO.C,R7*%
X-251055000Y-50150000D03*
X-249155000Y-50150000D03*
%TD*%
M02*
