%TF.GenerationSoftware,KiCad,Pcbnew,9.0.6*%
%TF.CreationDate,2025-12-06T00:52:23+00:00*%
%TF.ProjectId,DT,44542e6b-6963-4616-945f-706362585858,rev?*%
%TF.SameCoordinates,Original*%
%TF.FileFunction,Copper,L1,Top*%
%TF.FilePolarity,Positive*%
%FSLAX46Y46*%
G04 Gerber Fmt 4.6, Leading zero omitted, Abs format (unit mm)*
G04 Created by KiCad (PCBNEW 9.0.6) date 2025-12-06 00:52:23*
%MOMM*%
%LPD*%
G01*
G04 APERTURE LIST*
%TA.AperFunction,ComponentPad*%
%ADD10C,1.400000*%
%TD*%
%TA.AperFunction,ComponentPad*%
%ADD11R,1.800000X1.800000*%
%TD*%
%TA.AperFunction,ComponentPad*%
%ADD12C,1.800000*%
%TD*%
%TA.AperFunction,ComponentPad*%
%ADD13C,2.200000*%
%TD*%
%TA.AperFunction,ComponentPad*%
%ADD14O,1.727200X1.727200*%
%TD*%
%TA.AperFunction,ComponentPad*%
%ADD15R,1.727200X1.727200*%
%TD*%
%TA.AperFunction,ComponentPad*%
%ADD16C,3.000000*%
%TD*%
%TA.AperFunction,ComponentPad*%
%ADD17R,1.800000X2.600000*%
%TD*%
%TA.AperFunction,ComponentPad*%
%ADD18O,1.800000X2.600000*%
%TD*%
G04 APERTURE END LIST*
D10*
%TO.P,R5,1*%
%TO.N,Net-(D5-A)*%
X-251055000Y-43850000D03*
%TO.P,R5,2*%
%TO.N,GND*%
X-249155000Y-43850000D03*
%TD*%
D11*
%TO.P,D6,1,K*%
%TO.N,Net-(D6-K)*%
X-343032000Y-24465000D03*
D12*
%TO.P,D6,2,A*%
%TO.N,Net-(D6-A)*%
X-340492000Y-24465000D03*
%TD*%
D11*
%TO.P,D7,1,K*%
%TO.N,Net-(D7-K)*%
X-313262000Y-24465000D03*
D12*
%TO.P,D7,2,A*%
%TO.N,Net-(D7-A)*%
X-310722000Y-24465000D03*
%TD*%
D10*
%TO.P,R8,1*%
%TO.N,Net-(D8-A)*%
X-246095000Y-31250000D03*
%TO.P,R8,2*%
%TO.N,GND*%
X-244195000Y-31250000D03*
%TD*%
D13*
%TO.P,SW11,1,1*%
%TO.N,Net-(A1-PadD32)*%
X-309470000Y-64040000D03*
%TO.P,SW11,2,2*%
%TO.N,+5V*%
X-315820000Y-66580000D03*
%TD*%
D10*
%TO.P,R24,1*%
%TO.N,Net-(A1-PadD31)*%
X-236175000Y-37550000D03*
%TO.P,R24,2*%
%TO.N,GND*%
X-234275000Y-37550000D03*
%TD*%
D11*
%TO.P,D5,1,K*%
%TO.N,Net-(D5-K)*%
X-372802000Y-24465000D03*
D12*
%TO.P,D5,2,A*%
%TO.N,Net-(D5-A)*%
X-370262000Y-24465000D03*
%TD*%
D13*
%TO.P,SW9,1,1*%
%TO.N,Net-(A1-PadD30)*%
X-369010000Y-64040000D03*
%TO.P,SW9,2,2*%
%TO.N,+5V*%
X-375360000Y-66580000D03*
%TD*%
D10*
%TO.P,R4,1*%
%TO.N,Net-(D4-A)*%
X-251055000Y-40700000D03*
%TO.P,R4,2*%
%TO.N,GND*%
X-249155000Y-40700000D03*
%TD*%
D11*
%TO.P,D9,1,K*%
%TO.N,Net-(A1-D50_MISO)*%
X-372802000Y-54235000D03*
D12*
%TO.P,D9,2,A*%
%TO.N,Net-(D9-A)*%
X-370262000Y-54235000D03*
%TD*%
D10*
%TO.P,R1,1*%
%TO.N,Net-(D1-A)*%
X-251055000Y-31250000D03*
%TO.P,R1,2*%
%TO.N,GND*%
X-249155000Y-31250000D03*
%TD*%
D11*
%TO.P,D1,1,K*%
%TO.N,Net-(D1-K)*%
X-372802000Y5305000D03*
D12*
%TO.P,D1,2,A*%
%TO.N,Net-(D1-A)*%
X-370262000Y5305000D03*
%TD*%
D10*
%TO.P,R11,1*%
%TO.N,Net-(D11-A)*%
X-246095000Y-40700000D03*
%TO.P,R11,2*%
%TO.N,GND*%
X-244195000Y-40700000D03*
%TD*%
D14*
%TO.P,A1,*%
%TO.N,*%
X-347710000Y-132730000D03*
%TO.P,A1,3V3,3.3V*%
%TO.N,unconnected-(A1-3.3V-Pad3V3)*%
X-340090000Y-132730000D03*
%TO.P,A1,5V1,5V*%
%TO.N,unconnected-(A1-5V-Pad5V1)*%
X-337550000Y-132730000D03*
%TO.P,A1,5V2,SPI_5V*%
%TO.N,unconnected-(A1-SPI_5V-Pad5V2)*%
X-309483000Y-104790000D03*
%TO.P,A1,5V3,5V*%
%TO.N,unconnected-(A1-5V-Pad5V3)*%
X-281670000Y-84470000D03*
%TO.P,A1,5V4,5V*%
%TO.N,unconnected-(A1-5V-Pad5V4)*%
X-279130000Y-84470000D03*
%TO.P,A1,A0,A0*%
%TO.N,unconnected-(A1-PadA0)*%
X-324850000Y-132730000D03*
%TO.P,A1,A1,A1*%
%TO.N,unconnected-(A1-PadA1)*%
X-322310000Y-132730000D03*
%TO.P,A1,A2,A2*%
%TO.N,unconnected-(A1-PadA2)*%
X-319770000Y-132730000D03*
%TO.P,A1,A3,A3*%
%TO.N,unconnected-(A1-PadA3)*%
X-317230000Y-132730000D03*
%TO.P,A1,A4,A4*%
%TO.N,unconnected-(A1-PadA4)*%
X-314690000Y-132730000D03*
%TO.P,A1,A5,A5*%
%TO.N,unconnected-(A1-PadA5)*%
X-312150000Y-132730000D03*
%TO.P,A1,A6,A6*%
%TO.N,unconnected-(A1-PadA6)*%
X-309610000Y-132730000D03*
%TO.P,A1,A7,A7*%
%TO.N,unconnected-(A1-PadA7)*%
X-307070000Y-132730000D03*
%TO.P,A1,A8,A8*%
%TO.N,unconnected-(A1-PadA8)*%
X-301990000Y-132730000D03*
%TO.P,A1,A9,A9*%
%TO.N,unconnected-(A1-PadA9)*%
X-299450000Y-132730000D03*
%TO.P,A1,A10,A10*%
%TO.N,unconnected-(A1-PadA10)*%
X-296910000Y-132730000D03*
%TO.P,A1,A11,A11*%
%TO.N,unconnected-(A1-PadA11)*%
X-294370000Y-132730000D03*
%TO.P,A1,A12,A12*%
%TO.N,unconnected-(A1-PadA12)*%
X-291830000Y-132730000D03*
%TO.P,A1,A13,A13*%
%TO.N,unconnected-(A1-PadA13)*%
X-289290000Y-132730000D03*
%TO.P,A1,A14,A14*%
%TO.N,unconnected-(A1-PadA14)*%
X-286750000Y-132730000D03*
%TO.P,A1,A15,A15*%
%TO.N,unconnected-(A1-PadA15)*%
X-284210000Y-132730000D03*
%TO.P,A1,AREF,AREF*%
%TO.N,unconnected-(A1-PadAREF)*%
X-351774000Y-84470000D03*
%TO.P,A1,D0,D0/RX0*%
%TO.N,unconnected-(A1-D0{slash}RX0-PadD0)*%
X-312150000Y-84470000D03*
%TO.P,A1,D1,D1/TX0*%
%TO.N,unconnected-(A1-D1{slash}TX0-PadD1)*%
X-314690000Y-84470000D03*
%TO.P,A1,D2,D2_INT0*%
%TO.N,Net-(A1-D2_INT0)*%
X-317230000Y-84470000D03*
%TO.P,A1,D3,D3_INT1*%
%TO.N,Net-(A1-D3_INT1)*%
X-319770000Y-84470000D03*
%TO.P,A1,D4,D4*%
%TO.N,Net-(DS1-D5)*%
X-322310000Y-84470000D03*
%TO.P,A1,D5,D5*%
%TO.N,Net-(DS1-D4)*%
X-324850000Y-84470000D03*
%TO.P,A1,D6,D6*%
%TO.N,unconnected-(A1-PadD6)*%
X-327390000Y-84470000D03*
%TO.P,A1,D7,D7*%
%TO.N,unconnected-(A1-PadD7)*%
X-329930000Y-84470000D03*
%TO.P,A1,D8,D8*%
%TO.N,unconnected-(A1-PadD8)*%
X-333994000Y-84470000D03*
%TO.P,A1,D9,D9*%
%TO.N,unconnected-(A1-PadD9)*%
X-336534000Y-84470000D03*
%TO.P,A1,D10,D10*%
%TO.N,unconnected-(A1-PadD10)*%
X-339074000Y-84470000D03*
%TO.P,A1,D11,D11*%
%TO.N,Net-(DS1-E)*%
X-341614000Y-84470000D03*
%TO.P,A1,D12,D12*%
%TO.N,Net-(DS1-RS)*%
X-344154000Y-84470000D03*
%TO.P,A1,D13,D13*%
%TO.N,unconnected-(A1-PadD13)*%
X-346694000Y-84470000D03*
%TO.P,A1,D14,D14/TX3*%
%TO.N,unconnected-(A1-D14{slash}TX3-PadD14)*%
X-307070000Y-84470000D03*
%TO.P,A1,D15,D15/RX3*%
%TO.N,unconnected-(A1-D15{slash}RX3-PadD15)*%
X-304530000Y-84470000D03*
%TO.P,A1,D16,D16/TX2*%
%TO.N,unconnected-(A1-D16{slash}TX2-PadD16)*%
X-301990000Y-84470000D03*
%TO.P,A1,D17,D17/RX2*%
%TO.N,unconnected-(A1-D17{slash}RX2-PadD17)*%
X-299450000Y-84470000D03*
%TO.P,A1,D18,D18/TX1*%
%TO.N,unconnected-(A1-D18{slash}TX1-PadD18)*%
X-296910000Y-84470000D03*
%TO.P,A1,D19,D19/RX1*%
%TO.N,unconnected-(A1-D19{slash}RX1-PadD19)*%
X-294370000Y-84470000D03*
%TO.P,A1,D20,D20/SDA*%
%TO.N,unconnected-(A1-D20{slash}SDA-PadD20)*%
X-291830000Y-84470000D03*
%TO.P,A1,D21,D21/SCL*%
%TO.N,unconnected-(A1-D21{slash}SCL-PadD21)*%
X-289290000Y-84470000D03*
%TO.P,A1,D22,D22*%
%TO.N,Net-(A1-PadD22)*%
X-281670000Y-87010000D03*
%TO.P,A1,D23,D23*%
%TO.N,Net-(A1-PadD23)*%
X-279130000Y-87010000D03*
%TO.P,A1,D24,D24*%
%TO.N,Net-(A1-PadD24)*%
X-281670000Y-89550000D03*
%TO.P,A1,D25,D25*%
%TO.N,Net-(A1-PadD25)*%
X-279130000Y-89550000D03*
%TO.P,A1,D26,D26*%
%TO.N,Net-(A1-PadD26)*%
X-281670000Y-92090000D03*
%TO.P,A1,D27,D27*%
%TO.N,Net-(A1-PadD27)*%
X-279130000Y-92090000D03*
%TO.P,A1,D28,D28*%
%TO.N,Net-(A1-PadD28)*%
X-281670000Y-94630000D03*
%TO.P,A1,D29,D29*%
%TO.N,Net-(A1-PadD29)*%
X-279130000Y-94630000D03*
%TO.P,A1,D30,D30*%
%TO.N,Net-(A1-PadD30)*%
X-281670000Y-97170000D03*
%TO.P,A1,D31,D31*%
%TO.N,Net-(A1-PadD31)*%
X-279130000Y-97170000D03*
%TO.P,A1,D32,D32*%
%TO.N,Net-(A1-PadD32)*%
X-281670000Y-99710000D03*
%TO.P,A1,D33,D33*%
%TO.N,Net-(A1-PadD33)*%
X-279130000Y-99710000D03*
%TO.P,A1,D34,D34*%
%TO.N,unconnected-(A1-PadD34)*%
X-281670000Y-102250000D03*
%TO.P,A1,D35,D35*%
%TO.N,unconnected-(A1-PadD35)*%
X-279130000Y-102250000D03*
%TO.P,A1,D36,D36*%
%TO.N,unconnected-(A1-PadD36)*%
X-281670000Y-104790000D03*
%TO.P,A1,D37,D37*%
%TO.N,unconnected-(A1-PadD37)*%
X-279130000Y-104790000D03*
%TO.P,A1,D38,D38*%
%TO.N,unconnected-(A1-PadD38)*%
X-281670000Y-107330000D03*
%TO.P,A1,D39,D39*%
%TO.N,unconnected-(A1-PadD39)*%
X-279130000Y-107330000D03*
%TO.P,A1,D40,D40*%
%TO.N,unconnected-(A1-PadD40)*%
X-281670000Y-109870000D03*
%TO.P,A1,D41,D41*%
%TO.N,unconnected-(A1-PadD41)*%
X-279130000Y-109870000D03*
%TO.P,A1,D42,D42*%
%TO.N,Net-(D1-K)*%
X-281670000Y-112410000D03*
%TO.P,A1,D43,D43*%
%TO.N,Net-(D2-K)*%
X-279130000Y-112410000D03*
%TO.P,A1,D44,D44*%
%TO.N,Net-(D3-K)*%
X-281670000Y-114950000D03*
%TO.P,A1,D45,D45*%
%TO.N,Net-(D4-K)*%
X-279130000Y-114950000D03*
%TO.P,A1,D46,D46*%
%TO.N,Net-(D5-K)*%
X-281670000Y-117490000D03*
%TO.P,A1,D47,D47*%
%TO.N,Net-(D6-K)*%
X-279130000Y-117490000D03*
%TO.P,A1,D48,D48*%
%TO.N,Net-(D7-K)*%
X-281670000Y-120030000D03*
%TO.P,A1,D49,D49*%
%TO.N,Net-(D8-K)*%
X-279130000Y-120030000D03*
%TO.P,A1,D50,D50_MISO*%
%TO.N,Net-(A1-D50_MISO)*%
X-281670000Y-122570000D03*
%TO.P,A1,D51,D51_MOSI*%
%TO.N,Net-(A1-D51_MOSI)*%
X-279130000Y-122570000D03*
%TO.P,A1,D52,D52_SCK*%
%TO.N,Net-(A1-D52_SCK)*%
X-281670000Y-125110000D03*
%TO.P,A1,D53,D53_CS*%
%TO.N,Net-(A1-D53_CS)*%
X-279130000Y-125110000D03*
D15*
%TO.P,A1,GND1,GND*%
%TO.N,unconnected-(A1-GND-PadGND1)*%
X-349234000Y-84470000D03*
%TO.P,A1,GND2,GND*%
%TO.N,unconnected-(A1-GND-PadGND2)*%
X-335010000Y-132730000D03*
%TO.P,A1,GND3,GND*%
%TO.N,unconnected-(A1-GND-PadGND3)*%
X-332470000Y-132730000D03*
%TO.P,A1,GND4,SPI_GND*%
%TO.N,unconnected-(A1-SPI_GND-PadGND4)*%
X-309483000Y-109870000D03*
%TO.P,A1,GND5,GND*%
%TO.N,unconnected-(A1-GND-PadGND5)*%
X-281670000Y-127650000D03*
%TO.P,A1,GND6,GND*%
%TO.N,unconnected-(A1-GND-PadGND6)*%
X-279130000Y-127650000D03*
D14*
%TO.P,A1,IORF,IOREF*%
%TO.N,unconnected-(A1-IOREF-PadIORF)*%
X-345170000Y-132730000D03*
%TO.P,A1,MISO,SPI_MISO*%
%TO.N,unconnected-(A1-SPI_MISO-PadMISO)*%
X-312023000Y-104790000D03*
%TO.P,A1,MOSI,SPI_MOSI*%
%TO.N,unconnected-(A1-SPI_MOSI-PadMOSI)*%
X-309483000Y-107330000D03*
%TO.P,A1,RST1,RESET*%
%TO.N,unconnected-(A1-RESET-PadRST1)*%
X-342630000Y-132730000D03*
%TO.P,A1,RST2,SPI_RESET*%
%TO.N,unconnected-(A1-SPI_RESET-PadRST2)*%
X-312023000Y-109870000D03*
%TO.P,A1,SCK,SPI_SCK*%
%TO.N,unconnected-(A1-SPI_SCK-PadSCK)*%
X-312023000Y-107330000D03*
%TO.P,A1,SCL,SCL*%
%TO.N,unconnected-(A1-PadSCL)*%
X-356854000Y-84470000D03*
%TO.P,A1,SDA,SDA*%
%TO.N,unconnected-(A1-PadSDA)*%
X-354314000Y-84470000D03*
%TO.P,A1,VIN,VIN*%
%TO.N,unconnected-(A1-PadVIN)*%
X-329930000Y-132730000D03*
%TD*%
D10*
%TO.P,R3,1*%
%TO.N,Net-(D3-A)*%
X-251055000Y-37550000D03*
%TO.P,R3,2*%
%TO.N,GND*%
X-249155000Y-37550000D03*
%TD*%
%TO.P,R25,1*%
%TO.N,Net-(DS1-LED(+))*%
X-236175000Y-40700000D03*
%TO.P,R25,2*%
%TO.N,+5V*%
X-234275000Y-40700000D03*
%TD*%
D13*
%TO.P,SW12,1,1*%
%TO.N,Net-(A1-PadD33)*%
X-279700000Y-64040000D03*
%TO.P,SW12,2,2*%
%TO.N,+5V*%
X-286050000Y-66580000D03*
%TD*%
D10*
%TO.P,R23,1*%
%TO.N,Net-(A1-PadD33)*%
X-236175000Y-34400000D03*
%TO.P,R23,2*%
%TO.N,GND*%
X-234275000Y-34400000D03*
%TD*%
%TO.P,R21,1*%
%TO.N,Net-(A1-PadD28)*%
X-241135000Y-50150000D03*
%TO.P,R21,2*%
%TO.N,GND*%
X-239235000Y-50150000D03*
%TD*%
%TO.P,R12,1*%
%TO.N,Net-(D12-A)*%
X-246095000Y-43850000D03*
%TO.P,R12,2*%
%TO.N,GND*%
X-244195000Y-43850000D03*
%TD*%
D16*
%TO.P,DS1,*%
%TO.N,*%
X-363955000Y42000000D03*
X-363955000Y10999300D03*
X-288956420Y10999300D03*
X-288955900Y42000000D03*
D17*
%TO.P,DS1,1,VSS*%
%TO.N,GND*%
X-358455900Y42000000D03*
D18*
%TO.P,DS1,2,VDD*%
%TO.N,+5V*%
X-355915900Y42000000D03*
%TO.P,DS1,3,VO*%
%TO.N,unconnected-(DS1-VO-Pad3)*%
X-353375900Y42000000D03*
%TO.P,DS1,4,RS*%
%TO.N,Net-(DS1-RS)*%
X-350835900Y42000000D03*
%TO.P,DS1,5,R/W*%
%TO.N,GND*%
X-348295900Y42000000D03*
%TO.P,DS1,6,E*%
%TO.N,Net-(DS1-E)*%
X-345755900Y42000000D03*
%TO.P,DS1,7,D0*%
%TO.N,unconnected-(DS1-D0-Pad7)*%
X-343215900Y42000000D03*
%TO.P,DS1,8,D1*%
%TO.N,unconnected-(DS1-D1-Pad8)*%
X-340675900Y42000000D03*
%TO.P,DS1,9,D2*%
%TO.N,unconnected-(DS1-D2-Pad9)*%
X-338135900Y42000000D03*
%TO.P,DS1,10,D3*%
%TO.N,unconnected-(DS1-D3-Pad10)*%
X-335595900Y42000000D03*
%TO.P,DS1,11,D4*%
%TO.N,Net-(DS1-D4)*%
X-333055900Y42000000D03*
%TO.P,DS1,12,D5*%
%TO.N,Net-(DS1-D5)*%
X-330515900Y42000000D03*
%TO.P,DS1,13,D6*%
%TO.N,Net-(A1-D3_INT1)*%
X-327975900Y42000000D03*
%TO.P,DS1,14,D7*%
%TO.N,Net-(A1-D2_INT0)*%
X-325435900Y42000000D03*
%TO.P,DS1,15,LED(+)*%
%TO.N,Net-(DS1-LED(+))*%
X-322895900Y42000000D03*
%TO.P,DS1,16,LED(-)*%
%TO.N,GND*%
X-320355900Y42000000D03*
%TD*%
D13*
%TO.P,SW2,1,1*%
%TO.N,Net-(A1-PadD23)*%
X-339240000Y-4500000D03*
%TO.P,SW2,2,2*%
%TO.N,+5V*%
X-345590000Y-7040000D03*
%TD*%
D10*
%TO.P,R14,1*%
%TO.N,Net-(A1-PadD23)*%
X-246095000Y-50150000D03*
%TO.P,R14,2*%
%TO.N,GND*%
X-244195000Y-50150000D03*
%TD*%
%TO.P,R22,1*%
%TO.N,Net-(A1-PadD27)*%
X-236175000Y-31250000D03*
%TO.P,R22,2*%
%TO.N,GND*%
X-234275000Y-31250000D03*
%TD*%
D13*
%TO.P,SW4,1,1*%
%TO.N,Net-(A1-PadD25)*%
X-279700000Y-4500000D03*
%TO.P,SW4,2,2*%
%TO.N,+5V*%
X-286050000Y-7040000D03*
%TD*%
%TO.P,SW6,1,1*%
%TO.N,Net-(A1-PadD27)*%
X-339240000Y-34270000D03*
%TO.P,SW6,2,2*%
%TO.N,+5V*%
X-345590000Y-36810000D03*
%TD*%
D10*
%TO.P,R15,1*%
%TO.N,Net-(A1-PadD24)*%
X-241135000Y-31250000D03*
%TO.P,R15,2*%
%TO.N,GND*%
X-239235000Y-31250000D03*
%TD*%
D13*
%TO.P,SW3,1,1*%
%TO.N,Net-(A1-PadD24)*%
X-309470000Y-4500000D03*
%TO.P,SW3,2,2*%
%TO.N,+5V*%
X-315820000Y-7040000D03*
%TD*%
D11*
%TO.P,D12,1,K*%
%TO.N,Net-(A1-D53_CS)*%
X-283492000Y-54235000D03*
D12*
%TO.P,D12,2,A*%
%TO.N,Net-(D12-A)*%
X-280952000Y-54235000D03*
%TD*%
D10*
%TO.P,R16,1*%
%TO.N,Net-(A1-PadD25)*%
X-241135000Y-34400000D03*
%TO.P,R16,2*%
%TO.N,GND*%
X-239235000Y-34400000D03*
%TD*%
D11*
%TO.P,D2,1,K*%
%TO.N,Net-(D2-K)*%
X-343032000Y5305000D03*
D12*
%TO.P,D2,2,A*%
%TO.N,Net-(D2-A)*%
X-340492000Y5305000D03*
%TD*%
D13*
%TO.P,SW1,1,1*%
%TO.N,Net-(A1-PadD22)*%
X-369010000Y-4500000D03*
%TO.P,SW1,2,2*%
%TO.N,+5V*%
X-375360000Y-7040000D03*
%TD*%
D11*
%TO.P,D3,1,K*%
%TO.N,Net-(D3-K)*%
X-313262000Y5305000D03*
D12*
%TO.P,D3,2,A*%
%TO.N,Net-(D3-A)*%
X-310722000Y5305000D03*
%TD*%
D10*
%TO.P,R17,1*%
%TO.N,Net-(A1-PadD26)*%
X-241135000Y-37550000D03*
%TO.P,R17,2*%
%TO.N,GND*%
X-239235000Y-37550000D03*
%TD*%
D13*
%TO.P,SW8,1,1*%
%TO.N,Net-(A1-PadD29)*%
X-279700000Y-34270000D03*
%TO.P,SW8,2,2*%
%TO.N,+5V*%
X-286050000Y-36810000D03*
%TD*%
D10*
%TO.P,R10,1*%
%TO.N,Net-(D10-A)*%
X-246095000Y-37550000D03*
%TO.P,R10,2*%
%TO.N,GND*%
X-244195000Y-37550000D03*
%TD*%
%TO.P,R19,1*%
%TO.N,Net-(A1-PadD30)*%
X-241135000Y-43850000D03*
%TO.P,R19,2*%
%TO.N,GND*%
X-239235000Y-43850000D03*
%TD*%
%TO.P,R20,1*%
%TO.N,Net-(A1-PadD29)*%
X-241135000Y-47000000D03*
%TO.P,R20,2*%
%TO.N,GND*%
X-239235000Y-47000000D03*
%TD*%
%TO.P,R2,1*%
%TO.N,Net-(D2-A)*%
X-251055000Y-34400000D03*
%TO.P,R2,2*%
%TO.N,GND*%
X-249155000Y-34400000D03*
%TD*%
D13*
%TO.P,SW5,1,1*%
%TO.N,Net-(A1-PadD26)*%
X-369010000Y-34270000D03*
%TO.P,SW5,2,2*%
%TO.N,+5V*%
X-375360000Y-36810000D03*
%TD*%
D11*
%TO.P,D4,1,K*%
%TO.N,Net-(D4-K)*%
X-283492000Y5305000D03*
D12*
%TO.P,D4,2,A*%
%TO.N,Net-(D4-A)*%
X-280952000Y5305000D03*
%TD*%
D10*
%TO.P,R6,1*%
%TO.N,Net-(D6-A)*%
X-251055000Y-47000000D03*
%TO.P,R6,2*%
%TO.N,GND*%
X-249155000Y-47000000D03*
%TD*%
D11*
%TO.P,D11,1,K*%
%TO.N,Net-(A1-D52_SCK)*%
X-313262000Y-54235000D03*
D12*
%TO.P,D11,2,A*%
%TO.N,Net-(D11-A)*%
X-310722000Y-54235000D03*
%TD*%
D10*
%TO.P,R18,1*%
%TO.N,Net-(A1-PadD32)*%
X-241135000Y-40700000D03*
%TO.P,R18,2*%
%TO.N,GND*%
X-239235000Y-40700000D03*
%TD*%
%TO.P,R9,1*%
%TO.N,Net-(D9-A)*%
X-246095000Y-34400000D03*
%TO.P,R9,2*%
%TO.N,GND*%
X-244195000Y-34400000D03*
%TD*%
D11*
%TO.P,D8,1,K*%
%TO.N,Net-(D8-K)*%
X-283492000Y-24465000D03*
D12*
%TO.P,D8,2,A*%
%TO.N,Net-(D8-A)*%
X-280952000Y-24465000D03*
%TD*%
D10*
%TO.P,R13,1*%
%TO.N,Net-(A1-PadD22)*%
X-246095000Y-47000000D03*
%TO.P,R13,2*%
%TO.N,GND*%
X-244195000Y-47000000D03*
%TD*%
D13*
%TO.P,SW7,1,1*%
%TO.N,Net-(A1-PadD28)*%
X-309470000Y-34270000D03*
%TO.P,SW7,2,2*%
%TO.N,+5V*%
X-315820000Y-36810000D03*
%TD*%
%TO.P,SW10,1,1*%
%TO.N,Net-(A1-PadD31)*%
X-339240000Y-64040000D03*
%TO.P,SW10,2,2*%
%TO.N,+5V*%
X-345590000Y-66580000D03*
%TD*%
D11*
%TO.P,D10,1,K*%
%TO.N,Net-(A1-D51_MOSI)*%
X-343032000Y-54235000D03*
D12*
%TO.P,D10,2,A*%
%TO.N,Net-(D10-A)*%
X-340492000Y-54235000D03*
%TD*%
D10*
%TO.P,R7,1*%
%TO.N,Net-(D7-A)*%
X-251055000Y-50150000D03*
%TO.P,R7,2*%
%TO.N,GND*%
X-249155000Y-50150000D03*
%TD*%
M02*
