M48
; DRILL file {KiCad 9.0.6} date 2025-12-06T00:52:33+0000
; FORMAT={-:-/ absolute / metric / decimal}
; #@! TF.CreationDate,2025-12-06T00:52:33+00:00
; #@! TF.GenerationSoftware,Kicad,Pcbnew,9.0.6
; #@! TF.FileFunction,NonPlated,1,2,NPTH
FMAT,2
METRIC
; #@! TA.AperFunction,NonPlated,NPTH,ComponentDrill
T1C1.700
; #@! TA.AperFunction,NonPlated,NPTH,ComponentDrill
T2C3.200
; #@! TA.AperFunction,NonPlated,NPTH,ComponentDrill
T3C4.000
%
G90
G05
T1
X-376.63Y-9.58
X-376.63Y-39.35
X-376.63Y-69.12
X-366.47Y-9.58
X-366.47Y-39.35
X-366.47Y-69.12
X-346.86Y-9.58
X-346.86Y-39.35
X-346.86Y-69.12
X-336.7Y-9.58
X-336.7Y-39.35
X-336.7Y-69.12
X-317.09Y-9.58
X-317.09Y-39.35
X-317.09Y-69.12
X-306.93Y-9.58
X-306.93Y-39.35
X-306.93Y-69.12
X-287.32Y-9.58
X-287.32Y-39.35
X-287.32Y-69.12
X-277.16Y-9.58
X-277.16Y-39.35
X-277.16Y-69.12
T2
X-361.68Y-132.73
X-360.41Y-84.47
X-309.61Y-99.71
X-309.61Y-127.65
X-285.48Y-84.47
X-279.13Y-132.73
T3
X-371.55Y-9.58
X-371.55Y-39.35
X-371.55Y-69.12
X-341.78Y-9.58
X-341.78Y-39.35
X-341.78Y-69.12
X-312.01Y-9.58
X-312.01Y-39.35
X-312.01Y-69.12
X-282.24Y-9.58
X-282.24Y-39.35
X-282.24Y-69.12
M30
