M48
; DRILL file {KiCad 9.0.6} date 2025-12-06T00:52:33+0000
; FORMAT={-:-/ absolute / metric / decimal}
; #@! TF.CreationDate,2025-12-06T00:52:33+00:00
; #@! TF.GenerationSoftware,Kicad,Pcbnew,9.0.6
; #@! TF.FileFunction,Plated,1,2,PTH
FMAT,2
METRIC
; #@! TA.AperFunction,Plated,PTH,ComponentDrill
T1C0.700
; #@! TA.AperFunction,Plated,PTH,ComponentDrill
T2C0.900
; #@! TA.AperFunction,Plated,PTH,ComponentDrill
T3C1.016
; #@! TA.AperFunction,Plated,PTH,ComponentDrill
T4C1.200
; #@! TA.AperFunction,Plated,PTH,ComponentDrill
T5C1.500
; #@! TA.AperFunction,Plated,PTH,ComponentDrill
T6C2.500
%
G90
G05
T1
X-251.055Y-31.25
X-251.055Y-34.4
X-251.055Y-37.55
X-251.055Y-40.7
X-251.055Y-43.85
X-251.055Y-47.0
X-251.055Y-50.15
X-249.155Y-31.25
X-249.155Y-34.4
X-249.155Y-37.55
X-249.155Y-40.7
X-249.155Y-43.85
X-249.155Y-47.0
X-249.155Y-50.15
X-246.095Y-31.25
X-246.095Y-34.4
X-246.095Y-37.55
X-246.095Y-40.7
X-246.095Y-43.85
X-246.095Y-47.0
X-246.095Y-50.15
X-244.195Y-31.25
X-244.195Y-34.4
X-244.195Y-37.55
X-244.195Y-40.7
X-244.195Y-43.85
X-244.195Y-47.0
X-244.195Y-50.15
X-241.135Y-31.25
X-241.135Y-34.4
X-241.135Y-37.55
X-241.135Y-40.7
X-241.135Y-43.85
X-241.135Y-47.0
X-241.135Y-50.15
X-239.235Y-31.25
X-239.235Y-34.4
X-239.235Y-37.55
X-239.235Y-40.7
X-239.235Y-43.85
X-239.235Y-47.0
X-239.235Y-50.15
X-236.175Y-31.25
X-236.175Y-34.4
X-236.175Y-37.55
X-236.175Y-40.7
X-234.275Y-31.25
X-234.275Y-34.4
X-234.275Y-37.55
X-234.275Y-40.7
T2
X-372.802Y5.305
X-372.802Y-24.465
X-372.802Y-54.235
X-370.262Y5.305
X-370.262Y-24.465
X-370.262Y-54.235
X-343.032Y5.305
X-343.032Y-24.465
X-343.032Y-54.235
X-340.492Y5.305
X-340.492Y-24.465
X-340.492Y-54.235
X-313.262Y5.305
X-313.262Y-24.465
X-313.262Y-54.235
X-310.722Y5.305
X-310.722Y-24.465
X-310.722Y-54.235
X-283.492Y5.305
X-283.492Y-24.465
X-283.492Y-54.235
X-280.952Y5.305
X-280.952Y-24.465
X-280.952Y-54.235
T3
X-356.854Y-84.47
X-354.314Y-84.47
X-351.774Y-84.47
X-349.234Y-84.47
X-347.71Y-132.73
X-346.694Y-84.47
X-345.17Y-132.73
X-344.154Y-84.47
X-342.63Y-132.73
X-341.614Y-84.47
X-340.09Y-132.73
X-339.074Y-84.47
X-337.55Y-132.73
X-336.534Y-84.47
X-335.01Y-132.73
X-333.994Y-84.47
X-332.47Y-132.73
X-329.93Y-84.47
X-329.93Y-132.73
X-327.39Y-84.47
X-324.85Y-84.47
X-324.85Y-132.73
X-322.31Y-84.47
X-322.31Y-132.73
X-319.77Y-84.47
X-319.77Y-132.73
X-317.23Y-84.47
X-317.23Y-132.73
X-314.69Y-84.47
X-314.69Y-132.73
X-312.15Y-84.47
X-312.15Y-132.73
X-312.023Y-104.79
X-312.023Y-107.33
X-312.023Y-109.87
X-309.61Y-132.73
X-309.483Y-104.79
X-309.483Y-107.33
X-309.483Y-109.87
X-307.07Y-84.47
X-307.07Y-132.73
X-304.53Y-84.47
X-301.99Y-84.47
X-301.99Y-132.73
X-299.45Y-84.47
X-299.45Y-132.73
X-296.91Y-84.47
X-296.91Y-132.73
X-294.37Y-84.47
X-294.37Y-132.73
X-291.83Y-84.47
X-291.83Y-132.73
X-289.29Y-84.47
X-289.29Y-132.73
X-286.75Y-132.73
X-284.21Y-132.73
X-281.67Y-84.47
X-281.67Y-87.01
X-281.67Y-89.55
X-281.67Y-92.09
X-281.67Y-94.63
X-281.67Y-97.17
X-281.67Y-99.71
X-281.67Y-102.25
X-281.67Y-104.79
X-281.67Y-107.33
X-281.67Y-109.87
X-281.67Y-112.41
X-281.67Y-114.95
X-281.67Y-117.49
X-281.67Y-120.03
X-281.67Y-122.57
X-281.67Y-125.11
X-281.67Y-127.65
X-279.13Y-84.47
X-279.13Y-87.01
X-279.13Y-89.55
X-279.13Y-92.09
X-279.13Y-94.63
X-279.13Y-97.17
X-279.13Y-99.71
X-279.13Y-102.25
X-279.13Y-104.79
X-279.13Y-107.33
X-279.13Y-109.87
X-279.13Y-112.41
X-279.13Y-114.95
X-279.13Y-117.49
X-279.13Y-120.03
X-279.13Y-122.57
X-279.13Y-125.11
X-279.13Y-127.65
T4
X-358.456Y42.0
X-355.916Y42.0
X-353.376Y42.0
X-350.836Y42.0
X-348.296Y42.0
X-345.756Y42.0
X-343.216Y42.0
X-340.676Y42.0
X-338.136Y42.0
X-335.596Y42.0
X-333.056Y42.0
X-330.516Y42.0
X-327.976Y42.0
X-325.436Y42.0
X-322.896Y42.0
X-320.356Y42.0
T5
X-375.36Y-7.04
X-375.36Y-36.81
X-375.36Y-66.58
X-369.01Y-4.5
X-369.01Y-34.27
X-369.01Y-64.04
X-345.59Y-7.04
X-345.59Y-36.81
X-345.59Y-66.58
X-339.24Y-4.5
X-339.24Y-34.27
X-339.24Y-64.04
X-315.82Y-7.04
X-315.82Y-36.81
X-315.82Y-66.58
X-309.47Y-4.5
X-309.47Y-34.27
X-309.47Y-64.04
X-286.05Y-7.04
X-286.05Y-36.81
X-286.05Y-66.58
X-279.7Y-4.5
X-279.7Y-34.27
X-279.7Y-64.04
T6
X-363.955Y42.0
X-363.955Y10.999
X-288.956Y10.999
X-288.956Y42.0
M30
