%TF.GenerationSoftware,KiCad,Pcbnew,9.0.6*%
%TF.CreationDate,2025-12-26T23:22:09+00:00*%
%TF.ProjectId,DT,44542e6b-6963-4616-945f-706362585858,rev?*%
%TF.SameCoordinates,Original*%
%TF.FileFunction,Soldermask,Bot*%
%TF.FilePolarity,Negative*%
%FSLAX46Y46*%
G04 Gerber Fmt 4.6, Leading zero omitted, Abs format (unit mm)*
G04 Created by KiCad (PCBNEW 9.0.6) date 2025-12-26 23:22:09*
%MOMM*%
%LPD*%
G01*
G04 APERTURE LIST*
G04 Aperture macros list*
%AMRoundRect*
0 Rectangle with rounded corners*
0 $1 Rounding radius*
0 $2 $3 $4 $5 $6 $7 $8 $9 X,Y pos of 4 corners*
0 Add a 4 corners polygon primitive as box body*
4,1,4,$2,$3,$4,$5,$6,$7,$8,$9,$2,$3,0*
0 Add four circle primitives for the rounded corners*
1,1,$1+$1,$2,$3*
1,1,$1+$1,$4,$5*
1,1,$1+$1,$6,$7*
1,1,$1+$1,$8,$9*
0 Add four rect primitives between the rounded corners*
20,1,$1+$1,$2,$3,$4,$5,0*
20,1,$1+$1,$4,$5,$6,$7,0*
20,1,$1+$1,$6,$7,$8,$9,0*
20,1,$1+$1,$8,$9,$2,$3,0*%
G04 Aperture macros list end*
%ADD10C,1.400000*%
%ADD11R,1.800000X1.800000*%
%ADD12C,1.800000*%
%ADD13C,1.700000*%
%ADD14C,4.000000*%
%ADD15C,2.200000*%
%ADD16C,3.000000*%
%ADD17R,1.800000X2.600000*%
%ADD18O,1.800000X2.600000*%
%ADD19RoundRect,0.250000X-0.550000X-0.550000X0.550000X-0.550000X0.550000X0.550000X-0.550000X0.550000X0*%
%ADD20C,1.600000*%
%ADD21R,1.600000X1.600000*%
%ADD22O,1.600000X1.600000*%
G04 APERTURE END LIST*
D10*
%TO.C,R5*%
X-365040000Y-24470000D03*
X-359960000Y-24470000D03*
%TD*%
D11*
%TO.C,D6*%
X-343032000Y-24465000D03*
D12*
X-340492000Y-24465000D03*
%TD*%
D11*
%TO.C,D7*%
X-313262000Y-24465000D03*
D12*
X-310722000Y-24465000D03*
%TD*%
D10*
%TO.C,R8*%
X-275690000Y-24530000D03*
X-270610000Y-24530000D03*
%TD*%
D13*
%TO.C,SW11*%
X-317090000Y-69120000D03*
D14*
X-312010000Y-69120000D03*
D13*
X-306930000Y-69120000D03*
D15*
X-309470000Y-64040000D03*
X-315820000Y-66580000D03*
%TD*%
D10*
%TO.C,R24*%
X-252290000Y34750000D03*
X-247210000Y34750000D03*
%TD*%
D11*
%TO.C,D5*%
X-372802000Y-24465000D03*
D12*
X-370262000Y-24465000D03*
%TD*%
D13*
%TO.C,SW9*%
X-376630000Y-69120000D03*
D14*
X-371550000Y-69120000D03*
D13*
X-366470000Y-69120000D03*
D15*
X-369010000Y-64040000D03*
X-375360000Y-66580000D03*
%TD*%
D10*
%TO.C,R4*%
X-276080000Y5300000D03*
X-271000000Y5300000D03*
%TD*%
D11*
%TO.C,D9*%
X-372802000Y-54235000D03*
D12*
X-370262000Y-54235000D03*
%TD*%
D10*
%TO.C,R1*%
X-365270000Y5250000D03*
X-360190000Y5250000D03*
%TD*%
D11*
%TO.C,D1*%
X-372802000Y5305000D03*
D12*
X-370262000Y5305000D03*
%TD*%
D10*
%TO.C,R11*%
X-305570000Y-54280000D03*
X-300490000Y-54280000D03*
%TD*%
%TO.C,R3*%
X-305790000Y5140000D03*
X-300710000Y5140000D03*
%TD*%
%TO.C,R25*%
X-283440000Y43700000D03*
X-278360000Y43700000D03*
%TD*%
D13*
%TO.C,SW12*%
X-287320000Y-69120000D03*
D14*
X-282240000Y-69120000D03*
D13*
X-277160000Y-69120000D03*
D15*
X-279700000Y-64040000D03*
X-286050000Y-66580000D03*
%TD*%
D10*
%TO.C,R23*%
X-252290000Y39600000D03*
X-247210000Y39600000D03*
%TD*%
%TO.C,R21*%
X-252290000Y27250000D03*
X-247210000Y27250000D03*
%TD*%
%TO.C,R12*%
X-277200000Y-53000000D03*
X-272120000Y-53000000D03*
%TD*%
D16*
%TO.C,DS1*%
X-363955000Y42000000D03*
X-363955000Y10999300D03*
X-288956420Y10999300D03*
X-288955900Y42000000D03*
D17*
X-358455900Y42000000D03*
D18*
X-355915900Y42000000D03*
X-353375900Y42000000D03*
X-350835900Y42000000D03*
X-348295900Y42000000D03*
X-345755900Y42000000D03*
X-343215900Y42000000D03*
X-340675900Y42000000D03*
X-338135900Y42000000D03*
X-335595900Y42000000D03*
X-333055900Y42000000D03*
X-330515900Y42000000D03*
X-327975900Y42000000D03*
X-325435900Y42000000D03*
X-322895900Y42000000D03*
X-320355900Y42000000D03*
%TD*%
D13*
%TO.C,SW2*%
X-346860000Y-9580000D03*
D14*
X-341780000Y-9580000D03*
D13*
X-336700000Y-9580000D03*
D15*
X-339240000Y-4500000D03*
X-345590000Y-7040000D03*
%TD*%
D10*
%TO.C,R14*%
X-252290000Y11950000D03*
X-247210000Y11950000D03*
%TD*%
%TO.C,R22*%
X-252290000Y24750000D03*
X-247210000Y24750000D03*
%TD*%
D13*
%TO.C,SW4*%
X-287320000Y-9580000D03*
D14*
X-282240000Y-9580000D03*
D13*
X-277160000Y-9580000D03*
D15*
X-279700000Y-4500000D03*
X-286050000Y-7040000D03*
%TD*%
D13*
%TO.C,SW6*%
X-346860000Y-39350000D03*
D14*
X-341780000Y-39350000D03*
D13*
X-336700000Y-39350000D03*
D15*
X-339240000Y-34270000D03*
X-345590000Y-36810000D03*
%TD*%
D10*
%TO.C,R15*%
X-252290000Y37250000D03*
X-247210000Y37250000D03*
%TD*%
D13*
%TO.C,SW3*%
X-317090000Y-9580000D03*
D14*
X-312010000Y-9580000D03*
D13*
X-306930000Y-9580000D03*
D15*
X-309470000Y-4500000D03*
X-315820000Y-7040000D03*
%TD*%
D11*
%TO.C,D12*%
X-283492000Y-54235000D03*
D12*
X-280952000Y-54235000D03*
%TD*%
D10*
%TO.C,R16*%
X-252290000Y22250000D03*
X-247210000Y22250000D03*
%TD*%
D19*
%TO.C,U1*%
X-253790000Y7270000D03*
D20*
X-253790000Y4730000D03*
X-253790000Y2190000D03*
X-253790000Y-350000D03*
X-253790000Y-2890000D03*
X-253790000Y-5430000D03*
X-253790000Y-7970000D03*
X-253790000Y-10510000D03*
X-253790000Y-13050000D03*
X-253790000Y-15590000D03*
X-253790000Y-18130000D03*
X-253790000Y-20670000D03*
X-253790000Y-23210000D03*
X-253790000Y-25750000D03*
X-246170000Y-25750000D03*
X-246170000Y-23210000D03*
X-246170000Y-20670000D03*
X-246170000Y-18130000D03*
X-246170000Y-15590000D03*
X-246170000Y-13050000D03*
X-246170000Y-10510000D03*
X-246170000Y-7970000D03*
X-246170000Y-5430000D03*
X-246170000Y-2890000D03*
X-246170000Y-350000D03*
X-246170000Y2190000D03*
X-246170000Y4730000D03*
X-246170000Y7270000D03*
%TD*%
D11*
%TO.C,D2*%
X-343032000Y5305000D03*
D12*
X-340492000Y5305000D03*
%TD*%
D13*
%TO.C,SW1*%
X-376630000Y-9580000D03*
D14*
X-371550000Y-9580000D03*
D13*
X-366470000Y-9580000D03*
D15*
X-369010000Y-4500000D03*
X-375360000Y-7040000D03*
%TD*%
D11*
%TO.C,D3*%
X-313262000Y5305000D03*
D12*
X-310722000Y5305000D03*
%TD*%
D10*
%TO.C,R17*%
X-252290000Y32250000D03*
X-247210000Y32250000D03*
%TD*%
D13*
%TO.C,SW8*%
X-287320000Y-39350000D03*
D14*
X-282240000Y-39350000D03*
D13*
X-277160000Y-39350000D03*
D15*
X-279700000Y-34270000D03*
X-286050000Y-36810000D03*
%TD*%
D10*
%TO.C,R10*%
X-334940000Y-54250000D03*
X-329860000Y-54250000D03*
%TD*%
%TO.C,R19*%
X-252290000Y29750000D03*
X-247210000Y29750000D03*
%TD*%
%TO.C,R20*%
X-252290000Y17250000D03*
X-247210000Y17250000D03*
%TD*%
%TO.C,R2*%
X-335610000Y5350000D03*
X-330530000Y5350000D03*
%TD*%
D13*
%TO.C,SW5*%
X-376630000Y-39350000D03*
D14*
X-371550000Y-39350000D03*
D13*
X-366470000Y-39350000D03*
D15*
X-369010000Y-34270000D03*
X-375360000Y-36810000D03*
%TD*%
D11*
%TO.C,D4*%
X-283492000Y5305000D03*
D12*
X-280952000Y5305000D03*
%TD*%
D10*
%TO.C,R26*%
X-240000000Y-32540000D03*
X-240000000Y-27460000D03*
%TD*%
%TO.C,R6*%
X-335530000Y-24440000D03*
X-330450000Y-24440000D03*
%TD*%
D11*
%TO.C,D11*%
X-313262000Y-54235000D03*
D12*
X-310722000Y-54235000D03*
%TD*%
D10*
%TO.C,R18*%
X-252290000Y19750000D03*
X-247210000Y19750000D03*
%TD*%
%TO.C,R9*%
X-365230000Y-54260000D03*
X-360150000Y-54260000D03*
%TD*%
D11*
%TO.C,D8*%
X-283492000Y-24465000D03*
D12*
X-280952000Y-24465000D03*
%TD*%
D10*
%TO.C,R13*%
X-252290000Y14650000D03*
X-247210000Y14650000D03*
%TD*%
D21*
%TO.C,A1*%
X-260840000Y-40610000D03*
D22*
X-260840000Y-43150000D03*
X-260840000Y-45690000D03*
X-260840000Y-48230000D03*
X-260840000Y-50770000D03*
X-260840000Y-53310000D03*
X-260840000Y-55850000D03*
X-260840000Y-58390000D03*
X-260840000Y-60930000D03*
X-260840000Y-63470000D03*
X-260840000Y-66010000D03*
X-260840000Y-68550000D03*
X-260840000Y-71090000D03*
X-260840000Y-73630000D03*
X-260840000Y-76170000D03*
X-245600000Y-76170000D03*
X-245600000Y-73630000D03*
X-245600000Y-71090000D03*
X-245600000Y-68550000D03*
X-245600000Y-66010000D03*
X-245600000Y-63470000D03*
X-245600000Y-60930000D03*
X-245600000Y-58390000D03*
X-245600000Y-55850000D03*
X-245600000Y-53310000D03*
X-245600000Y-50770000D03*
X-245600000Y-48230000D03*
X-245600000Y-45690000D03*
X-245600000Y-43150000D03*
X-245600000Y-40610000D03*
%TD*%
D13*
%TO.C,SW7*%
X-317090000Y-39350000D03*
D14*
X-312010000Y-39350000D03*
D13*
X-306930000Y-39350000D03*
D15*
X-309470000Y-34270000D03*
X-315820000Y-36810000D03*
%TD*%
D13*
%TO.C,SW10*%
X-346860000Y-69120000D03*
D14*
X-341780000Y-69120000D03*
D13*
X-336700000Y-69120000D03*
D15*
X-339240000Y-64040000D03*
X-345590000Y-66580000D03*
%TD*%
D11*
%TO.C,D10*%
X-343032000Y-54235000D03*
D12*
X-340492000Y-54235000D03*
%TD*%
D10*
%TO.C,R7*%
X-305600000Y-24400000D03*
X-300520000Y-24400000D03*
%TD*%
M02*
