%TF.GenerationSoftware,KiCad,Pcbnew,9.0.6*%
%TF.CreationDate,2025-12-26T23:22:09+00:00*%
%TF.ProjectId,DT,44542e6b-6963-4616-945f-706362585858,rev?*%
%TF.SameCoordinates,Original*%
%TF.FileFunction,Copper,L2,Bot*%
%TF.FilePolarity,Positive*%
%FSLAX46Y46*%
G04 Gerber Fmt 4.6, Leading zero omitted, Abs format (unit mm)*
G04 Created by KiCad (PCBNEW 9.0.6) date 2025-12-26 23:22:09*
%MOMM*%
%LPD*%
G01*
G04 APERTURE LIST*
G04 Aperture macros list*
%AMRoundRect*
0 Rectangle with rounded corners*
0 $1 Rounding radius*
0 $2 $3 $4 $5 $6 $7 $8 $9 X,Y pos of 4 corners*
0 Add a 4 corners polygon primitive as box body*
4,1,4,$2,$3,$4,$5,$6,$7,$8,$9,$2,$3,0*
0 Add four circle primitives for the rounded corners*
1,1,$1+$1,$2,$3*
1,1,$1+$1,$4,$5*
1,1,$1+$1,$6,$7*
1,1,$1+$1,$8,$9*
0 Add four rect primitives between the rounded corners*
20,1,$1+$1,$2,$3,$4,$5,0*
20,1,$1+$1,$4,$5,$6,$7,0*
20,1,$1+$1,$6,$7,$8,$9,0*
20,1,$1+$1,$8,$9,$2,$3,0*%
G04 Aperture macros list end*
%TA.AperFunction,ComponentPad*%
%ADD10C,1.400000*%
%TD*%
%TA.AperFunction,ComponentPad*%
%ADD11R,1.800000X1.800000*%
%TD*%
%TA.AperFunction,ComponentPad*%
%ADD12C,1.800000*%
%TD*%
%TA.AperFunction,ComponentPad*%
%ADD13C,2.200000*%
%TD*%
%TA.AperFunction,ComponentPad*%
%ADD14C,3.000000*%
%TD*%
%TA.AperFunction,ComponentPad*%
%ADD15R,1.800000X2.600000*%
%TD*%
%TA.AperFunction,ComponentPad*%
%ADD16O,1.800000X2.600000*%
%TD*%
%TA.AperFunction,ComponentPad*%
%ADD17RoundRect,0.250000X-0.550000X-0.550000X0.550000X-0.550000X0.550000X0.550000X-0.550000X0.550000X0*%
%TD*%
%TA.AperFunction,ComponentPad*%
%ADD18C,1.600000*%
%TD*%
%TA.AperFunction,ComponentPad*%
%ADD19R,1.600000X1.600000*%
%TD*%
%TA.AperFunction,ComponentPad*%
%ADD20O,1.600000X1.600000*%
%TD*%
%TA.AperFunction,ViaPad*%
%ADD21C,0.600000*%
%TD*%
%TA.AperFunction,Conductor*%
%ADD22C,0.200000*%
%TD*%
G04 APERTURE END LIST*
D10*
%TO.P,R5,1*%
%TO.N,Net-(D5-A)*%
X-365040000Y-24470000D03*
%TO.P,R5,2*%
%TO.N,Net-(DS1-LED(-))*%
X-359960000Y-24470000D03*
%TD*%
D11*
%TO.P,D6,1,K*%
%TO.N,Net-(A1-D8)*%
X-343032000Y-24465000D03*
D12*
%TO.P,D6,2,A*%
%TO.N,Net-(D6-A)*%
X-340492000Y-24465000D03*
%TD*%
D11*
%TO.P,D7,1,K*%
%TO.N,Net-(A1-D7)*%
X-313262000Y-24465000D03*
D12*
%TO.P,D7,2,A*%
%TO.N,Net-(D7-A)*%
X-310722000Y-24465000D03*
%TD*%
D10*
%TO.P,R8,1*%
%TO.N,Net-(D8-A)*%
X-275690000Y-24530000D03*
%TO.P,R8,2*%
%TO.N,Net-(DS1-LED(-))*%
X-270610000Y-24530000D03*
%TD*%
D13*
%TO.P,SW11,1,1*%
%TO.N,Net-(U1-GPA2)*%
X-309470000Y-64040000D03*
%TO.P,SW11,2,2*%
%TO.N,Net-(A1-+5V)*%
X-315820000Y-66580000D03*
%TD*%
D10*
%TO.P,R24,1*%
%TO.N,Net-(U1-GPB2)*%
X-252290000Y34750000D03*
%TO.P,R24,2*%
%TO.N,Net-(DS1-LED(-))*%
X-247210000Y34750000D03*
%TD*%
D11*
%TO.P,D5,1,K*%
%TO.N,Net-(A1-D9)*%
X-372802000Y-24465000D03*
D12*
%TO.P,D5,2,A*%
%TO.N,Net-(D5-A)*%
X-370262000Y-24465000D03*
%TD*%
D13*
%TO.P,SW9,1,1*%
%TO.N,Net-(U1-GPA0)*%
X-369010000Y-64040000D03*
%TO.P,SW9,2,2*%
%TO.N,Net-(A1-+5V)*%
X-375360000Y-66580000D03*
%TD*%
D10*
%TO.P,R4,1*%
%TO.N,Net-(D4-A)*%
X-276080000Y5300000D03*
%TO.P,R4,2*%
%TO.N,Net-(DS1-LED(-))*%
X-271000000Y5300000D03*
%TD*%
D11*
%TO.P,D9,1,K*%
%TO.N,Net-(A1-D5)*%
X-372802000Y-54235000D03*
D12*
%TO.P,D9,2,A*%
%TO.N,Net-(D9-A)*%
X-370262000Y-54235000D03*
%TD*%
D10*
%TO.P,R1,1*%
%TO.N,Net-(D1-A)*%
X-365270000Y5250000D03*
%TO.P,R1,2*%
%TO.N,Net-(DS1-LED(-))*%
X-360190000Y5250000D03*
%TD*%
D11*
%TO.P,D1,1,K*%
%TO.N,Net-(A1-A2)*%
X-372802000Y5305000D03*
D12*
%TO.P,D1,2,A*%
%TO.N,Net-(D1-A)*%
X-370262000Y5305000D03*
%TD*%
D10*
%TO.P,R11,1*%
%TO.N,Net-(D11-A)*%
X-305570000Y-54280000D03*
%TO.P,R11,2*%
%TO.N,Net-(DS1-LED(-))*%
X-300490000Y-54280000D03*
%TD*%
%TO.P,R3,1*%
%TO.N,Net-(D3-A)*%
X-305790000Y5140000D03*
%TO.P,R3,2*%
%TO.N,Net-(DS1-LED(-))*%
X-300710000Y5140000D03*
%TD*%
%TO.P,R25,1*%
%TO.N,Net-(DS1-LED(+))*%
X-283440000Y43700000D03*
%TO.P,R25,2*%
%TO.N,Net-(A1-+5V)*%
X-278360000Y43700000D03*
%TD*%
D13*
%TO.P,SW12,1,1*%
%TO.N,Net-(U1-GPA3)*%
X-279700000Y-64040000D03*
%TO.P,SW12,2,2*%
%TO.N,Net-(A1-+5V)*%
X-286050000Y-66580000D03*
%TD*%
D10*
%TO.P,R23,1*%
%TO.N,Net-(U1-GPB0)*%
X-252290000Y39600000D03*
%TO.P,R23,2*%
%TO.N,Net-(DS1-LED(-))*%
X-247210000Y39600000D03*
%TD*%
%TO.P,R21,1*%
%TO.N,Net-(U1-GPB5)*%
X-252290000Y27250000D03*
%TO.P,R21,2*%
%TO.N,Net-(DS1-LED(-))*%
X-247210000Y27250000D03*
%TD*%
%TO.P,R12,1*%
%TO.N,Net-(D12-A)*%
X-277200000Y-53000000D03*
%TO.P,R12,2*%
%TO.N,Net-(DS1-LED(-))*%
X-272120000Y-53000000D03*
%TD*%
D14*
%TO.P,DS1,*%
%TO.N,*%
X-363955000Y42000000D03*
X-363955000Y10999300D03*
X-288956420Y10999300D03*
X-288955900Y42000000D03*
D15*
%TO.P,DS1,1,VSS*%
%TO.N,Net-(DS1-LED(-))*%
X-358455900Y42000000D03*
D16*
%TO.P,DS1,2,VDD*%
%TO.N,Net-(A1-+5V)*%
X-355915900Y42000000D03*
%TO.P,DS1,3,VO*%
%TO.N,unconnected-(DS1-VO-Pad3)*%
X-353375900Y42000000D03*
%TO.P,DS1,4,RS*%
%TO.N,Net-(DS1-RS)*%
X-350835900Y42000000D03*
%TO.P,DS1,5,R/W*%
%TO.N,Net-(DS1-LED(-))*%
X-348295900Y42000000D03*
%TO.P,DS1,6,E*%
%TO.N,Net-(DS1-E)*%
X-345755900Y42000000D03*
%TO.P,DS1,7,D0*%
%TO.N,unconnected-(DS1-D0-Pad7)*%
X-343215900Y42000000D03*
%TO.P,DS1,8,D1*%
%TO.N,unconnected-(DS1-D1-Pad8)*%
X-340675900Y42000000D03*
%TO.P,DS1,9,D2*%
%TO.N,unconnected-(DS1-D2-Pad9)*%
X-338135900Y42000000D03*
%TO.P,DS1,10,D3*%
%TO.N,unconnected-(DS1-D3-Pad10)*%
X-335595900Y42000000D03*
%TO.P,DS1,11,D4*%
%TO.N,Net-(DS1-D4)*%
X-333055900Y42000000D03*
%TO.P,DS1,12,D5*%
%TO.N,Net-(DS1-D5)*%
X-330515900Y42000000D03*
%TO.P,DS1,13,D6*%
%TO.N,Net-(A1-A6)*%
X-327975900Y42000000D03*
%TO.P,DS1,14,D7*%
%TO.N,Net-(A1-A7)*%
X-325435900Y42000000D03*
%TO.P,DS1,15,LED(+)*%
%TO.N,Net-(DS1-LED(+))*%
X-322895900Y42000000D03*
%TO.P,DS1,16,LED(-)*%
%TO.N,Net-(DS1-LED(-))*%
X-320355900Y42000000D03*
%TD*%
D13*
%TO.P,SW2,1,1*%
%TO.N,Net-(U1-GPB1)*%
X-339240000Y-4500000D03*
%TO.P,SW2,2,2*%
%TO.N,Net-(A1-+5V)*%
X-345590000Y-7040000D03*
%TD*%
D10*
%TO.P,R14,1*%
%TO.N,Net-(U1-GPA2)*%
X-252290000Y11950000D03*
%TO.P,R14,2*%
%TO.N,Net-(DS1-LED(-))*%
X-247210000Y11950000D03*
%TD*%
%TO.P,R22,1*%
%TO.N,Net-(U1-GPB6)*%
X-252290000Y24750000D03*
%TO.P,R22,2*%
%TO.N,Net-(DS1-LED(-))*%
X-247210000Y24750000D03*
%TD*%
D13*
%TO.P,SW4,1,1*%
%TO.N,Net-(U1-GPB3)*%
X-279700000Y-4500000D03*
%TO.P,SW4,2,2*%
%TO.N,Net-(A1-+5V)*%
X-286050000Y-7040000D03*
%TD*%
%TO.P,SW6,1,1*%
%TO.N,Net-(U1-GPB5)*%
X-339240000Y-34270000D03*
%TO.P,SW6,2,2*%
%TO.N,Net-(A1-+5V)*%
X-345590000Y-36810000D03*
%TD*%
D10*
%TO.P,R15,1*%
%TO.N,Net-(U1-GPA1)*%
X-252290000Y37250000D03*
%TO.P,R15,2*%
%TO.N,Net-(DS1-LED(-))*%
X-247210000Y37250000D03*
%TD*%
D13*
%TO.P,SW3,1,1*%
%TO.N,Net-(U1-GPB2)*%
X-309470000Y-4500000D03*
%TO.P,SW3,2,2*%
%TO.N,Net-(A1-+5V)*%
X-315820000Y-7040000D03*
%TD*%
D11*
%TO.P,D12,1,K*%
%TO.N,Net-(A1-D2)*%
X-283492000Y-54235000D03*
D12*
%TO.P,D12,2,A*%
%TO.N,Net-(D12-A)*%
X-280952000Y-54235000D03*
%TD*%
D10*
%TO.P,R16,1*%
%TO.N,Net-(U1-GPA0)*%
X-252290000Y22250000D03*
%TO.P,R16,2*%
%TO.N,Net-(DS1-LED(-))*%
X-247210000Y22250000D03*
%TD*%
D17*
%TO.P,U1,1,GPB0*%
%TO.N,Net-(U1-GPB0)*%
X-253790000Y7270000D03*
D18*
%TO.P,U1,2,GPB1*%
%TO.N,Net-(U1-GPB1)*%
X-253790000Y4730000D03*
%TO.P,U1,3,GPB2*%
%TO.N,Net-(U1-GPB2)*%
X-253790000Y2190000D03*
%TO.P,U1,4,GPB3*%
%TO.N,Net-(U1-GPB3)*%
X-253790000Y-350000D03*
%TO.P,U1,5,GPB4*%
%TO.N,Net-(U1-GPB4)*%
X-253790000Y-2890000D03*
%TO.P,U1,6,GPB5*%
%TO.N,Net-(U1-GPB5)*%
X-253790000Y-5430000D03*
%TO.P,U1,7,GPB6*%
%TO.N,Net-(U1-GPB6)*%
X-253790000Y-7970000D03*
%TO.P,U1,8,GPB7*%
%TO.N,Net-(U1-GPB7)*%
X-253790000Y-10510000D03*
%TO.P,U1,9,VDD*%
%TO.N,Net-(A1-+5V)*%
X-253790000Y-13050000D03*
%TO.P,U1,10,VSS*%
%TO.N,Net-(DS1-LED(-))*%
X-253790000Y-15590000D03*
%TO.P,U1,11,NC*%
%TO.N,unconnected-(U1-NC-Pad11)*%
X-253790000Y-18130000D03*
%TO.P,U1,12,SCK*%
%TO.N,Net-(A1-SCL{slash}A5)*%
X-253790000Y-20670000D03*
%TO.P,U1,13,SDA*%
%TO.N,Net-(A1-SDA{slash}A4)*%
X-253790000Y-23210000D03*
%TO.P,U1,14,NC*%
%TO.N,unconnected-(U1-NC-Pad14)*%
X-253790000Y-25750000D03*
%TO.P,U1,15,A0*%
%TO.N,Net-(DS1-LED(-))*%
X-246170000Y-25750000D03*
%TO.P,U1,16,A1*%
X-246170000Y-23210000D03*
%TO.P,U1,17,A2*%
X-246170000Y-20670000D03*
%TO.P,U1,18,~{RESET}*%
%TO.N,Net-(U1-~{RESET})*%
X-246170000Y-18130000D03*
%TO.P,U1,19,INTB*%
%TO.N,unconnected-(U1-INTB-Pad19)*%
X-246170000Y-15590000D03*
%TO.P,U1,20,INTA*%
%TO.N,unconnected-(U1-INTA-Pad20)*%
X-246170000Y-13050000D03*
%TO.P,U1,21,GPA0*%
%TO.N,Net-(U1-GPA0)*%
X-246170000Y-10510000D03*
%TO.P,U1,22,GPA1*%
%TO.N,Net-(U1-GPA1)*%
X-246170000Y-7970000D03*
%TO.P,U1,23,GPA2*%
%TO.N,Net-(U1-GPA2)*%
X-246170000Y-5430000D03*
%TO.P,U1,24,GPA3*%
%TO.N,Net-(U1-GPA3)*%
X-246170000Y-2890000D03*
%TO.P,U1,25,GPA4*%
%TO.N,Net-(DS1-RS)*%
X-246170000Y-350000D03*
%TO.P,U1,26,GPA5*%
%TO.N,Net-(DS1-E)*%
X-246170000Y2190000D03*
%TO.P,U1,27,GPA6*%
%TO.N,Net-(DS1-D4)*%
X-246170000Y4730000D03*
%TO.P,U1,28,GPA7*%
%TO.N,Net-(DS1-D5)*%
X-246170000Y7270000D03*
%TD*%
D11*
%TO.P,D2,1,K*%
%TO.N,Net-(A1-A1)*%
X-343032000Y5305000D03*
D12*
%TO.P,D2,2,A*%
%TO.N,Net-(D2-A)*%
X-340492000Y5305000D03*
%TD*%
D13*
%TO.P,SW1,1,1*%
%TO.N,Net-(U1-GPB0)*%
X-369010000Y-4500000D03*
%TO.P,SW1,2,2*%
%TO.N,Net-(A1-+5V)*%
X-375360000Y-7040000D03*
%TD*%
D11*
%TO.P,D3,1,K*%
%TO.N,Net-(A1-A0)*%
X-313262000Y5305000D03*
D12*
%TO.P,D3,2,A*%
%TO.N,Net-(D3-A)*%
X-310722000Y5305000D03*
%TD*%
D10*
%TO.P,R17,1*%
%TO.N,Net-(U1-GPB7)*%
X-252290000Y32250000D03*
%TO.P,R17,2*%
%TO.N,Net-(DS1-LED(-))*%
X-247210000Y32250000D03*
%TD*%
D13*
%TO.P,SW8,1,1*%
%TO.N,Net-(U1-GPB7)*%
X-279700000Y-34270000D03*
%TO.P,SW8,2,2*%
%TO.N,Net-(A1-+5V)*%
X-286050000Y-36810000D03*
%TD*%
D10*
%TO.P,R10,1*%
%TO.N,Net-(D10-A)*%
X-334940000Y-54250000D03*
%TO.P,R10,2*%
%TO.N,Net-(DS1-LED(-))*%
X-329860000Y-54250000D03*
%TD*%
%TO.P,R19,1*%
%TO.N,Net-(U1-GPB3)*%
X-252290000Y29750000D03*
%TO.P,R19,2*%
%TO.N,Net-(DS1-LED(-))*%
X-247210000Y29750000D03*
%TD*%
%TO.P,R20,1*%
%TO.N,Net-(U1-GPB4)*%
X-252290000Y17250000D03*
%TO.P,R20,2*%
%TO.N,Net-(DS1-LED(-))*%
X-247210000Y17250000D03*
%TD*%
%TO.P,R2,1*%
%TO.N,Net-(D2-A)*%
X-335610000Y5350000D03*
%TO.P,R2,2*%
%TO.N,Net-(DS1-LED(-))*%
X-330530000Y5350000D03*
%TD*%
D13*
%TO.P,SW5,1,1*%
%TO.N,Net-(U1-GPB4)*%
X-369010000Y-34270000D03*
%TO.P,SW5,2,2*%
%TO.N,Net-(A1-+5V)*%
X-375360000Y-36810000D03*
%TD*%
D11*
%TO.P,D4,1,K*%
%TO.N,Net-(A1-D10)*%
X-283492000Y5305000D03*
D12*
%TO.P,D4,2,A*%
%TO.N,Net-(D4-A)*%
X-280952000Y5305000D03*
%TD*%
D10*
%TO.P,R26,1*%
%TO.N,Net-(A1-+5V)*%
X-240000000Y-32540000D03*
%TO.P,R26,2*%
%TO.N,Net-(U1-~{RESET})*%
X-240000000Y-27460000D03*
%TD*%
%TO.P,R6,1*%
%TO.N,Net-(D6-A)*%
X-335530000Y-24440000D03*
%TO.P,R6,2*%
%TO.N,Net-(DS1-LED(-))*%
X-330450000Y-24440000D03*
%TD*%
D11*
%TO.P,D11,1,K*%
%TO.N,Net-(A1-D3)*%
X-313262000Y-54235000D03*
D12*
%TO.P,D11,2,A*%
%TO.N,Net-(D11-A)*%
X-310722000Y-54235000D03*
%TD*%
D10*
%TO.P,R18,1*%
%TO.N,Net-(U1-GPB1)*%
X-252290000Y19750000D03*
%TO.P,R18,2*%
%TO.N,Net-(DS1-LED(-))*%
X-247210000Y19750000D03*
%TD*%
%TO.P,R9,1*%
%TO.N,Net-(D9-A)*%
X-365230000Y-54260000D03*
%TO.P,R9,2*%
%TO.N,Net-(DS1-LED(-))*%
X-360150000Y-54260000D03*
%TD*%
D11*
%TO.P,D8,1,K*%
%TO.N,Net-(A1-D6)*%
X-283492000Y-24465000D03*
D12*
%TO.P,D8,2,A*%
%TO.N,Net-(D8-A)*%
X-280952000Y-24465000D03*
%TD*%
D10*
%TO.P,R13,1*%
%TO.N,Net-(U1-GPA3)*%
X-252290000Y14650000D03*
%TO.P,R13,2*%
%TO.N,Net-(DS1-LED(-))*%
X-247210000Y14650000D03*
%TD*%
D19*
%TO.P,A1,1,TX1*%
%TO.N,unconnected-(A1-TX1-Pad1)*%
X-260840000Y-40610000D03*
D20*
%TO.P,A1,2,RX1*%
%TO.N,unconnected-(A1-RX1-Pad2)*%
X-260840000Y-43150000D03*
%TO.P,A1,3,~{RESET}*%
%TO.N,unconnected-(A1-~{RESET}-Pad3)*%
X-260840000Y-45690000D03*
%TO.P,A1,4,GND*%
%TO.N,Net-(DS1-LED(-))*%
X-260840000Y-48230000D03*
%TO.P,A1,5,D2*%
%TO.N,Net-(A1-D2)*%
X-260840000Y-50770000D03*
%TO.P,A1,6,D3*%
%TO.N,Net-(A1-D3)*%
X-260840000Y-53310000D03*
%TO.P,A1,7,D4*%
%TO.N,Net-(A1-D4)*%
X-260840000Y-55850000D03*
%TO.P,A1,8,D5*%
%TO.N,Net-(A1-D5)*%
X-260840000Y-58390000D03*
%TO.P,A1,9,D6*%
%TO.N,Net-(A1-D6)*%
X-260840000Y-60930000D03*
%TO.P,A1,10,D7*%
%TO.N,Net-(A1-D7)*%
X-260840000Y-63470000D03*
%TO.P,A1,11,D8*%
%TO.N,Net-(A1-D8)*%
X-260840000Y-66010000D03*
%TO.P,A1,12,D9*%
%TO.N,Net-(A1-D9)*%
X-260840000Y-68550000D03*
%TO.P,A1,13,D10*%
%TO.N,Net-(A1-D10)*%
X-260840000Y-71090000D03*
%TO.P,A1,14,MOSI*%
%TO.N,unconnected-(A1-MOSI-Pad14)*%
X-260840000Y-73630000D03*
%TO.P,A1,15,MISO*%
%TO.N,unconnected-(A1-MISO-Pad15)*%
X-260840000Y-76170000D03*
%TO.P,A1,16,SCK*%
%TO.N,unconnected-(A1-SCK-Pad16)*%
X-245600000Y-76170000D03*
%TO.P,A1,17,3V3*%
%TO.N,unconnected-(A1-3V3-Pad17)*%
X-245600000Y-73630000D03*
%TO.P,A1,18,AREF*%
%TO.N,unconnected-(A1-AREF-Pad18)*%
X-245600000Y-71090000D03*
%TO.P,A1,19,A0*%
%TO.N,Net-(A1-A0)*%
X-245600000Y-68550000D03*
%TO.P,A1,20,A1*%
%TO.N,Net-(A1-A1)*%
X-245600000Y-66010000D03*
%TO.P,A1,21,A2*%
%TO.N,Net-(A1-A2)*%
X-245600000Y-63470000D03*
%TO.P,A1,22,A3*%
%TO.N,unconnected-(A1-A3-Pad22)*%
X-245600000Y-60930000D03*
%TO.P,A1,23,SDA/A4*%
%TO.N,Net-(A1-SDA{slash}A4)*%
X-245600000Y-58390000D03*
%TO.P,A1,24,SCL/A5*%
%TO.N,Net-(A1-SCL{slash}A5)*%
X-245600000Y-55850000D03*
%TO.P,A1,25,A6*%
%TO.N,Net-(A1-A6)*%
X-245600000Y-53310000D03*
%TO.P,A1,26,A7*%
%TO.N,Net-(A1-A7)*%
X-245600000Y-50770000D03*
%TO.P,A1,27,+5V*%
%TO.N,Net-(A1-+5V)*%
X-245600000Y-48230000D03*
%TO.P,A1,28,~{RESET}*%
%TO.N,unconnected-(A1-~{RESET}-Pad28)*%
X-245600000Y-45690000D03*
%TO.P,A1,29,GND*%
%TO.N,Net-(DS1-LED(-))*%
X-245600000Y-43150000D03*
%TO.P,A1,30,VIN*%
%TO.N,unconnected-(A1-VIN-Pad30)*%
X-245600000Y-40610000D03*
%TD*%
D13*
%TO.P,SW7,1,1*%
%TO.N,Net-(U1-GPB6)*%
X-309470000Y-34270000D03*
%TO.P,SW7,2,2*%
%TO.N,Net-(A1-+5V)*%
X-315820000Y-36810000D03*
%TD*%
%TO.P,SW10,1,1*%
%TO.N,Net-(U1-GPA1)*%
X-339240000Y-64040000D03*
%TO.P,SW10,2,2*%
%TO.N,Net-(A1-+5V)*%
X-345590000Y-66580000D03*
%TD*%
D11*
%TO.P,D10,1,K*%
%TO.N,Net-(A1-D4)*%
X-343032000Y-54235000D03*
D12*
%TO.P,D10,2,A*%
%TO.N,Net-(D10-A)*%
X-340492000Y-54235000D03*
%TD*%
D10*
%TO.P,R7,1*%
%TO.N,Net-(D7-A)*%
X-305600000Y-24400000D03*
%TO.P,R7,2*%
%TO.N,Net-(DS1-LED(-))*%
X-300520000Y-24400000D03*
%TD*%
D21*
%TO.N,Net-(A1-D8)*%
X-267000000Y-68000000D03*
X-328500000Y-50500000D03*
X-293500000Y-57500000D03*
X-267000000Y-57500000D03*
%TO.N,Net-(A1-A1)*%
X-264000000Y-30500000D03*
X-271000000Y-30500000D03*
X-329500000Y-18000000D03*
%TO.N,Net-(A1-A6)*%
X-242100000Y-51700000D03*
X-240000000Y-49600000D03*
X-235800000Y-37100000D03*
X-236400000Y-46400000D03*
%TO.N,Net-(A1-D9)*%
X-359500000Y-44000000D03*
%TO.N,Net-(A1-+5V)*%
X-298000000Y-19000000D03*
X-286050000Y-27050000D03*
X-269500000Y-500000D03*
X-237400000Y-35600000D03*
X-244500000Y-8000000D03*
X-240000000Y-42000000D03*
X-315820000Y-58180000D03*
X-240000000Y-43800000D03*
X-246000000Y-32500000D03*
X-237800000Y-37300000D03*
X-242100000Y-45900000D03*
X-315820000Y-54820000D03*
X-242000000Y-44500000D03*
X-345500000Y-28000000D03*
X-315820000Y-25320000D03*
X-367400000Y6800000D03*
X-244500000Y-6000000D03*
%TO.N,Net-(A1-A2)*%
X-267700000Y-31500000D03*
X-357500000Y-18500000D03*
X-271000000Y-31500000D03*
%TO.N,Net-(DS1-RS)*%
X-241400000Y-300000D03*
%TO.N,Net-(DS1-D4)*%
X-241400000Y2100000D03*
%TO.N,Net-(DS1-D5)*%
X-241400000Y3200000D03*
%TO.N,Net-(DS1-E)*%
X-241400000Y800000D03*
%TO.N,Net-(A1-A7)*%
X-242300000Y-50500000D03*
X-236800000Y-36400000D03*
X-237200000Y-37900000D03*
X-240000000Y-48200000D03*
%TO.N,Net-(DS1-LED(-))*%
X-261420000Y580000D03*
X-271000000Y-5000000D03*
X-269600000Y-27800000D03*
X-340400000Y1100000D03*
X-261420000Y-1100000D03*
X-244000000Y-27920000D03*
X-311500000Y1500000D03*
X-265500000Y-32500000D03*
X-261420000Y-9670000D03*
%TO.N,Net-(A1-D10)*%
X-268500000Y-26500000D03*
X-268500000Y-68500000D03*
%TO.N,Net-(A1-D6)*%
X-263000000Y-47500000D03*
%TO.N,Net-(A1-SDA{slash}A4)*%
X-242000000Y-55000000D03*
X-237000000Y-50000000D03*
X-241500000Y-34500000D03*
X-240000000Y-53000000D03*
%TO.N,Net-(A1-A0)*%
X-271500000Y-28500000D03*
X-300500000Y-18500000D03*
%TO.N,Net-(A1-D7)*%
X-298000000Y-50700000D03*
%TO.N,Net-(A1-SCL{slash}A5)*%
X-242000000Y-53000000D03*
X-242000000Y-35500000D03*
X-240000000Y-51000000D03*
X-238000000Y-49000000D03*
%TO.N,Net-(U1-GPA3)*%
X-266500000Y-78500000D03*
%TO.N,Net-(U1-GPA2)*%
X-301000000Y-78000000D03*
X-247000000Y9800000D03*
X-243700000Y-6700000D03*
%TO.N,Net-(U1-GPA1)*%
X-243100000Y-7500000D03*
X-272800000Y34000000D03*
X-256700000Y15900000D03*
X-254200000Y10900000D03*
X-243400000Y7900000D03*
X-264000000Y-34000000D03*
X-264000000Y-36500000D03*
X-277300000Y31400000D03*
X-264500000Y-61000000D03*
%TO.N,Net-(U1-GPA0)*%
X-266000000Y-60500000D03*
X-241600000Y-21000000D03*
X-245900000Y-28100000D03*
X-267500000Y-36000000D03*
X-253600000Y11500000D03*
X-244100000Y10700000D03*
X-243300000Y-23400000D03*
X-266000000Y-31500000D03*
X-255600000Y17000000D03*
%TO.N,Net-(U1-GPB7)*%
X-260600000Y-1300000D03*
X-255600000Y3800000D03*
X-267500000Y-25500000D03*
X-267200000Y3800000D03*
X-283800000Y24100000D03*
X-255600000Y-2000000D03*
%TO.N,Net-(U1-GPB1)*%
X-257750000Y4750000D03*
%TO.N,Net-(U1-GPB3)*%
X-263000000Y750000D03*
%TO.N,Net-(U1-GPB4)*%
X-328500000Y-20000000D03*
X-272000000Y-7500000D03*
X-268750000Y-1250000D03*
X-258750000Y13000000D03*
X-269500000Y750000D03*
X-258500000Y6500000D03*
X-355500000Y-22500000D03*
X-269750000Y6500000D03*
X-335500000Y-21500000D03*
X-269000000Y-3500000D03*
%TO.N,Net-(U1-GPB5)*%
X-258500000Y-2000000D03*
X-267750000Y-4250000D03*
X-267750000Y5750000D03*
X-270500000Y3250000D03*
X-306000000Y-21500000D03*
X-331000000Y-33000000D03*
%TO.N,Net-(U1-GPB6)*%
X-303000000Y-35500000D03*
X-269500000Y-11500000D03*
X-257500000Y-1250000D03*
X-300000000Y-32500000D03*
X-276000000Y-21500000D03*
X-271511000Y-20489000D03*
X-258000000Y250000D03*
%TO.N,Net-(U1-GPB2)*%
X-269000000Y3000000D03*
%TD*%
D22*
%TO.N,Net-(A1-D8)*%
X-321500000Y-57500000D02*
X-293500000Y-57500000D01*
X-267000000Y-57500000D02*
X-267000000Y-68000000D01*
X-328500000Y-50500000D02*
X-321500000Y-57500000D01*
%TO.N,Net-(A1-A1)*%
X-239000000Y-59410000D02*
X-245600000Y-66010000D01*
X-239000000Y-39500000D02*
X-239000000Y-59410000D01*
X-244000000Y-34500000D02*
X-239000000Y-39500000D01*
X-258500000Y-34500000D02*
X-244000000Y-34500000D01*
X-317000000Y-30500000D02*
X-271000000Y-30500000D01*
X-329500000Y-18000000D02*
X-317000000Y-30500000D01*
X-264000000Y-30500000D02*
X-262500000Y-30500000D01*
X-262500000Y-30500000D02*
X-258500000Y-34500000D01*
%TO.N,Net-(A1-A6)*%
X-236400000Y-46400000D02*
X-235300000Y-45300000D01*
X-235300000Y-45300000D02*
X-235300000Y-37600000D01*
X-242100000Y-51700000D02*
X-240000000Y-49600000D01*
X-235300000Y-37600000D02*
X-235800000Y-37100000D01*
%TO.N,Net-(A1-D9)*%
X-268033900Y-79601000D02*
X-267500000Y-79067100D01*
X-267500000Y-79067100D02*
X-267500000Y-75210000D01*
X-352000000Y-51500000D02*
X-352000000Y-79000000D01*
X-267500000Y-75210000D02*
X-260840000Y-68550000D01*
X-351399000Y-79601000D02*
X-268033900Y-79601000D01*
X-359500000Y-44000000D02*
X-352000000Y-51500000D01*
X-352000000Y-79000000D02*
X-351399000Y-79601000D01*
%TO.N,Net-(A1-+5V)*%
X-289950000Y-27050000D02*
X-298000000Y-19000000D01*
X-315820000Y-58180000D02*
X-315820000Y-66580000D01*
X-244500000Y-6000000D02*
X-244500000Y-8000000D01*
X-345500000Y-28000000D02*
X-345590000Y-27910000D01*
X-286050000Y-27050000D02*
X-289950000Y-27050000D01*
X-375360000Y-2060000D02*
X-375360000Y-7040000D01*
X-246000000Y-32500000D02*
X-245960000Y-32540000D01*
X-242000000Y-44000000D02*
X-242000000Y-44500000D01*
X-286050000Y-7040000D02*
X-276040000Y-7040000D01*
X-345590000Y-27910000D02*
X-345590000Y-7040000D01*
X-276040000Y-7040000D02*
X-269500000Y-500000D01*
X-245960000Y-32540000D02*
X-240000000Y-32540000D01*
X-240000000Y-43800000D02*
X-242100000Y-45900000D01*
X-369900000Y700000D02*
X-372600000Y700000D01*
X-240000000Y-42000000D02*
X-242000000Y-44000000D01*
X-367400000Y6800000D02*
X-367400000Y3200000D01*
X-345590000Y-7040000D02*
X-315820000Y-7040000D01*
X-286050000Y-66580000D02*
X-286050000Y-36810000D01*
X-345590000Y-66580000D02*
X-345590000Y-36810000D01*
X-237800000Y-36000000D02*
X-237800000Y-37300000D01*
X-237400000Y-35600000D02*
X-237800000Y-36000000D01*
X-367400000Y3200000D02*
X-369900000Y700000D01*
X-315820000Y-36810000D02*
X-315820000Y-54820000D01*
X-315820000Y-7040000D02*
X-315820000Y-25320000D01*
X-372600000Y700000D02*
X-375360000Y-2060000D01*
%TO.N,Net-(A1-A2)*%
X-267700000Y-31500000D02*
X-263100000Y-36100000D01*
X-357500000Y-18500000D02*
X-344500000Y-31500000D01*
X-243200000Y-61070000D02*
X-245600000Y-63470000D01*
X-243200000Y-37800000D02*
X-243200000Y-61070000D01*
X-244900000Y-36100000D02*
X-243200000Y-37800000D01*
X-263100000Y-36100000D02*
X-244900000Y-36100000D01*
X-344500000Y-31500000D02*
X-271000000Y-31500000D01*
%TO.N,Net-(DS1-RS)*%
X-241800000Y-700000D02*
X-245820000Y-700000D01*
X-241400000Y-300000D02*
X-241800000Y-700000D01*
X-245820000Y-700000D02*
X-246170000Y-350000D01*
%TO.N,Net-(DS1-D4)*%
X-243540000Y2100000D02*
X-246170000Y4730000D01*
X-241400000Y2100000D02*
X-243540000Y2100000D01*
%TO.N,Net-(DS1-D5)*%
X-241400000Y3200000D02*
X-242100000Y3200000D01*
X-242100000Y3200000D02*
X-246170000Y7270000D01*
%TO.N,Net-(DS1-E)*%
X-244780000Y800000D02*
X-246170000Y2190000D01*
X-241400000Y800000D02*
X-244780000Y800000D01*
%TO.N,Net-(A1-A7)*%
X-236800000Y-36400000D02*
X-236800000Y-37500000D01*
X-240000000Y-48200000D02*
X-242300000Y-50500000D01*
X-236800000Y-37500000D02*
X-237200000Y-37900000D01*
%TO.N,Net-(DS1-LED(-))*%
X-264250000Y-11000000D02*
X-266000000Y-12750000D01*
X-266601000Y-24601000D02*
X-266601000Y-31748943D01*
X-252310000Y44700000D02*
X-247210000Y39600000D01*
X-261670000Y-15590000D02*
X-270610000Y-24530000D01*
X-259470000Y-24530000D02*
X-270610000Y-24530000D01*
X-269600000Y-50480000D02*
X-272120000Y-53000000D01*
X-367100000Y8200000D02*
X-366700000Y7800000D01*
X-317655900Y44700000D02*
X-252310000Y44700000D01*
X-340400000Y1100000D02*
X-334780000Y1100000D01*
X-358455900Y42000000D02*
X-356253850Y44202050D01*
X-360190000Y7290000D02*
X-360190000Y5250000D01*
X-271000000Y-5000000D02*
X-270610000Y-5390000D01*
X-253790000Y-15590000D02*
X-261670000Y-15590000D01*
X-244000000Y-27920000D02*
X-245580000Y-29500000D01*
X-350497950Y44202050D02*
X-351495900Y45200000D01*
X-304350000Y1500000D02*
X-300710000Y5140000D01*
X-311500000Y1500000D02*
X-304350000Y1500000D01*
X-269600000Y-27800000D02*
X-269600000Y-50480000D01*
X-351495900Y45200000D02*
X-366500000Y45200000D01*
X-266601000Y-31748943D02*
X-265849943Y-32500000D01*
X-265849943Y-32500000D02*
X-265500000Y-32500000D01*
X-261420000Y580000D02*
X-261420000Y-1100000D01*
X-261420000Y-9670000D02*
X-262750000Y-11000000D01*
X-245580000Y-29500000D02*
X-254500000Y-29500000D01*
X-262750000Y-11000000D02*
X-264250000Y-11000000D01*
X-360700000Y7800000D02*
X-360190000Y7290000D01*
X-270610000Y-5390000D02*
X-270610000Y-24530000D01*
X-367100000Y44600000D02*
X-367100000Y8200000D01*
X-366500000Y45200000D02*
X-367100000Y44600000D01*
X-356253850Y44202050D02*
X-350497950Y44202050D01*
X-334780000Y1100000D02*
X-330530000Y5350000D01*
X-266000000Y-24000000D02*
X-266601000Y-24601000D01*
X-366700000Y7800000D02*
X-360700000Y7800000D01*
X-254500000Y-29500000D02*
X-259470000Y-24530000D01*
X-320355900Y42000000D02*
X-317655900Y44700000D01*
X-266000000Y-12750000D02*
X-266000000Y-24000000D01*
X-348295900Y42000000D02*
X-350497950Y44202050D01*
%TO.N,Net-(A1-D10)*%
X-268500000Y-26500000D02*
X-268500000Y-68500000D01*
%TO.N,Net-(A1-D6)*%
X-263000000Y-47500000D02*
X-263000000Y-58770000D01*
X-263000000Y-58770000D02*
X-260840000Y-60930000D01*
%TO.N,Net-(A1-SDA{slash}A4)*%
X-240000000Y-53000000D02*
X-242000000Y-55000000D01*
X-241500000Y-34500000D02*
X-237000000Y-39000000D01*
X-237000000Y-39000000D02*
X-237000000Y-50000000D01*
%TO.N,Net-(A1-A0)*%
X-297500000Y-27000000D02*
X-296000000Y-28500000D01*
X-296000000Y-28500000D02*
X-271500000Y-28500000D01*
X-297500000Y-21500000D02*
X-297500000Y-27000000D01*
X-300500000Y-18500000D02*
X-297500000Y-21500000D01*
%TO.N,Net-(A1-D7)*%
X-268200000Y-70830000D02*
X-260840000Y-63470000D01*
X-268200000Y-79200000D02*
X-268200000Y-70830000D01*
X-298000000Y-50700000D02*
X-291900000Y-56800000D01*
X-291100000Y-79200000D02*
X-268200000Y-79200000D01*
X-291900000Y-78400000D02*
X-291100000Y-79200000D01*
X-291900000Y-56800000D02*
X-291900000Y-78400000D01*
%TO.N,Net-(A1-SCL{slash}A5)*%
X-238000000Y-39500000D02*
X-238000000Y-49000000D01*
X-242000000Y-35500000D02*
X-238000000Y-39500000D01*
X-240000000Y-51000000D02*
X-242000000Y-53000000D01*
%TO.N,Net-(U1-GPA3)*%
X-257100000Y9200000D02*
X-257500000Y9600000D01*
X-257500000Y9600000D02*
X-257500000Y12800000D01*
X-238000000Y-33700000D02*
X-238000000Y-23700000D01*
X-234800000Y-36900000D02*
X-238000000Y-33700000D01*
X-242500000Y-9100000D02*
X-242500000Y-6560000D01*
X-243000000Y-18700000D02*
X-243000000Y-9600000D01*
X-257500000Y12800000D02*
X-255650000Y14650000D01*
X-244300000Y8600000D02*
X-244900000Y9200000D01*
X-238000000Y-23700000D02*
X-243000000Y-18700000D01*
X-240800000Y3800000D02*
X-244300000Y7300000D01*
X-262500000Y-83500000D02*
X-244000000Y-83500000D01*
X-240800000Y-2000000D02*
X-240800000Y3800000D01*
X-266500000Y-78500000D02*
X-266500000Y-79500000D01*
X-242500000Y-6560000D02*
X-246170000Y-2890000D01*
X-266500000Y-79500000D02*
X-262500000Y-83500000D01*
X-234800000Y-74300000D02*
X-234800000Y-36900000D01*
X-255650000Y14650000D02*
X-252290000Y14650000D01*
X-243000000Y-9600000D02*
X-242500000Y-9100000D01*
X-246170000Y-2890000D02*
X-241690000Y-2890000D01*
X-244900000Y9200000D02*
X-257100000Y9200000D01*
X-241690000Y-2890000D02*
X-240800000Y-2000000D01*
X-244300000Y7300000D02*
X-244300000Y8600000D01*
X-244000000Y-83500000D02*
X-234800000Y-74300000D01*
%TO.N,Net-(U1-GPA2)*%
X-244251057Y-5399000D02*
X-243700000Y-5950057D01*
X-246139000Y-5399000D02*
X-244251057Y-5399000D01*
X-254100000Y12400000D02*
X-252740000Y12400000D01*
X-247000000Y9800000D02*
X-254200000Y9800000D01*
X-309470000Y-64040000D02*
X-302460000Y-64040000D01*
X-302460000Y-64040000D02*
X-301000000Y-65500000D01*
X-243700000Y-5950057D02*
X-243700000Y-6700000D01*
X-255000000Y10600000D02*
X-255000000Y11500000D01*
X-252740000Y12400000D02*
X-252290000Y11950000D01*
X-246170000Y-5430000D02*
X-246139000Y-5399000D01*
X-301000000Y-65500000D02*
X-301000000Y-78000000D01*
X-254200000Y9800000D02*
X-255000000Y10600000D01*
X-255000000Y11500000D02*
X-254100000Y12400000D01*
%TO.N,Net-(U1-GPA1)*%
X-243400000Y7900000D02*
X-243400000Y8267100D01*
X-244802000Y-30302000D02*
X-242998000Y-28498000D01*
X-278800000Y31400000D02*
X-277300000Y31400000D01*
X-246399000Y9600000D02*
X-246399000Y10048943D01*
X-245000000Y-9140000D02*
X-246170000Y-7970000D01*
X-245370001Y-8769999D02*
X-244369999Y-8769999D01*
X-253800000Y10201000D02*
X-253801000Y10201000D01*
X-243400000Y8267100D02*
X-244733900Y9601000D01*
X-283200000Y24700000D02*
X-284100000Y25600000D01*
X-244733900Y9601000D02*
X-244734900Y9600000D01*
X-283200000Y23400000D02*
X-283200000Y24700000D01*
X-284100000Y25600000D02*
X-284100000Y26100000D01*
X-255265100Y-30302000D02*
X-244802000Y-30302000D01*
X-246751057Y10401000D02*
X-247800000Y10401000D01*
X-283900000Y11200000D02*
X-283900000Y22700000D01*
X-242998000Y-26934900D02*
X-243966450Y-25966450D01*
X-246725029Y10374972D02*
X-246751057Y10401000D01*
X-264500000Y-61000000D02*
X-264000000Y-60500000D01*
X-264248943Y-29899000D02*
X-255668100Y-29899000D01*
X-264000000Y-34000000D02*
X-264601000Y-33399000D01*
X-259749000Y8651000D02*
X-266900000Y8651000D01*
X-284100000Y26100000D02*
X-278800000Y31400000D01*
X-248000000Y10201000D02*
X-253800000Y10201000D01*
X-264000000Y-60500000D02*
X-264000000Y-36500000D01*
X-283200000Y10500000D02*
X-283900000Y11200000D01*
X-246170000Y-7970000D02*
X-245370001Y-8769999D01*
X-259600000Y13900000D02*
X-259600000Y8800000D01*
X-255668100Y-29899000D02*
X-255265100Y-30302000D01*
X-256700000Y15900000D02*
X-257600000Y15900000D01*
X-246399000Y10048943D02*
X-246725029Y10374972D01*
X-243966450Y-25966450D02*
X-243966450Y-11033550D01*
X-268749000Y10500000D02*
X-283200000Y10500000D01*
X-283900000Y22700000D02*
X-283200000Y23400000D01*
X-254200000Y10600000D02*
X-254200000Y10900000D01*
X-253801000Y10201000D02*
X-254200000Y10600000D01*
X-264601000Y-33399000D02*
X-264601000Y-30251057D01*
X-245000000Y-10000000D02*
X-245000000Y-9140000D01*
X-272800000Y34000000D02*
X-269550000Y37250000D01*
X-257600000Y15900000D02*
X-259600000Y13900000D01*
X-269550000Y37250000D02*
X-252290000Y37250000D01*
X-264601000Y-30251057D02*
X-264248943Y-29899000D01*
X-266900000Y8651000D02*
X-268749000Y10500000D01*
X-242998000Y-28498000D02*
X-242998000Y-26934900D01*
X-244369999Y-8769999D02*
X-243100000Y-7500000D01*
X-259600000Y8800000D02*
X-259749000Y8651000D01*
X-244734900Y9600000D02*
X-246399000Y9600000D01*
X-243966450Y-11033550D02*
X-245000000Y-10000000D01*
X-247800000Y10401000D02*
X-248000000Y10201000D01*
%TO.N,Net-(U1-GPA0)*%
X-253300000Y10800000D02*
X-253600000Y11100000D01*
X-268000000Y-36500000D02*
X-267500000Y-36000000D01*
X-264500000Y-60000000D02*
X-264500000Y-57000000D01*
X-267500000Y-56500000D02*
X-268099000Y-55901000D01*
X-244202000Y10802000D02*
X-253298000Y10802000D01*
X-244900000Y-27100000D02*
X-245900000Y-28100000D01*
X-265500000Y-27500000D02*
X-257500000Y-27500000D01*
X-245131057Y-29901000D02*
X-243399000Y-28168943D01*
X-266000000Y-28000000D02*
X-265500000Y-27500000D01*
X-244100000Y10700000D02*
X-244202000Y10802000D01*
X-265000000Y-60500000D02*
X-264500000Y-60000000D01*
X-255099000Y-29901000D02*
X-245131057Y-29901000D01*
X-266000000Y-31500000D02*
X-266000000Y-28000000D01*
X-244900000Y-11780000D02*
X-244900000Y-27100000D01*
X-243300000Y-23400000D02*
X-243300000Y-22700000D01*
X-266000000Y-60500000D02*
X-265000000Y-60500000D01*
X-265000000Y-56500000D02*
X-267500000Y-56500000D01*
X-255600000Y17000000D02*
X-255600000Y18940000D01*
X-243399000Y-27101000D02*
X-244500000Y-26000000D01*
X-245490000Y-10510000D02*
X-246170000Y-10510000D01*
X-246170000Y-10510000D02*
X-244900000Y-11780000D01*
X-264500000Y-57000000D02*
X-265000000Y-56500000D01*
X-253600000Y11100000D02*
X-253600000Y11500000D01*
X-244500000Y-26000000D02*
X-244500000Y-11500000D01*
X-244500000Y-11500000D02*
X-245490000Y-10510000D01*
X-243300000Y-22700000D02*
X-241700000Y-21100000D01*
X-268000000Y-55802000D02*
X-268000000Y-36500000D01*
X-243399000Y-28168943D02*
X-243399000Y-27101000D01*
X-241700000Y-21100000D02*
X-241600000Y-21000000D01*
X-257500000Y-27500000D02*
X-255099000Y-29901000D01*
X-268099000Y-55901000D02*
X-268000000Y-55802000D01*
X-253298000Y10802000D02*
X-253300000Y10800000D01*
X-255600000Y18940000D02*
X-252290000Y22250000D01*
%TO.N,Net-(U1-GPB7)*%
X-272920057Y-34270000D02*
X-270201000Y-31550943D01*
X-255600000Y3800000D02*
X-267200000Y3800000D01*
X-270201000Y-27351057D02*
X-268349943Y-25500000D01*
X-283800000Y24100000D02*
X-284700000Y25000000D01*
X-284700000Y26100000D02*
X-278550000Y32250000D01*
X-279700000Y-34270000D02*
X-272920057Y-34270000D01*
X-257599943Y-2000000D02*
X-255600000Y-2000000D01*
X-268349943Y-25500000D02*
X-267500000Y-25500000D01*
X-270201000Y-31550943D02*
X-270201000Y-27351057D01*
X-278550000Y32250000D02*
X-252290000Y32250000D01*
X-258299943Y-1300000D02*
X-257599943Y-2000000D01*
X-284700000Y25000000D02*
X-284700000Y26100000D01*
X-260600000Y-1300000D02*
X-258299943Y-1300000D01*
%TO.N,Net-(U1-GPB1)*%
X-257730000Y4730000D02*
X-257750000Y4750000D01*
X-338000000Y-4500000D02*
X-326000000Y7500000D01*
X-257500000Y7500000D02*
X-254730000Y4730000D01*
X-326000000Y7500000D02*
X-257500000Y7500000D01*
X-254730000Y4730000D02*
X-253790000Y4730000D01*
X-253790000Y4730000D02*
X-257730000Y4730000D01*
X-339240000Y-4500000D02*
X-338000000Y-4500000D01*
%TO.N,Net-(U1-GPB3)*%
X-253790000Y-350000D02*
X-254440000Y-1000000D01*
X-262569000Y1181000D02*
X-263000000Y750000D01*
X-273700000Y1500000D02*
X-257500000Y1500000D01*
X-254440000Y-1000000D02*
X-255750000Y-1000000D01*
X-279700000Y-4500000D02*
X-273700000Y1500000D01*
X-255750000Y-1000000D02*
X-257931000Y1181000D01*
X-257931000Y1181000D02*
X-262569000Y1181000D01*
X-257500000Y1500000D02*
X-255650000Y-350000D01*
X-255650000Y-350000D02*
X-253790000Y-350000D01*
%TO.N,Net-(U1-GPB4)*%
X-253890000Y-2890000D02*
X-254500000Y-3500000D01*
X-254500000Y17250000D02*
X-252290000Y17250000D01*
X-335500000Y-21500000D02*
X-334000000Y-20000000D01*
X-258750000Y13000000D02*
X-254500000Y17250000D01*
X-334000000Y-20000000D02*
X-328500000Y-20000000D01*
X-367270000Y-34270000D02*
X-355500000Y-22500000D01*
X-253790000Y-2890000D02*
X-253890000Y-2890000D01*
X-269739943Y-2890000D02*
X-253790000Y-2890000D01*
X-272000000Y-7500000D02*
X-272000000Y-5150057D01*
X-272000000Y-5150057D02*
X-269739943Y-2890000D01*
X-268750000Y-1250000D02*
X-268750000Y0D01*
X-369010000Y-34270000D02*
X-367270000Y-34270000D01*
X-254500000Y-3500000D02*
X-269000000Y-3500000D01*
X-268750000Y0D02*
X-269500000Y750000D01*
X-269750000Y6500000D02*
X-258500000Y6500000D01*
%TO.N,Net-(U1-GPB5)*%
X-270500000Y3250000D02*
X-268000000Y5750000D01*
X-271500000Y-19500000D02*
X-271399000Y-19399000D01*
X-337970000Y-33000000D02*
X-331000000Y-33000000D01*
X-255250000Y-6250000D02*
X-257500000Y-4000000D01*
X-339240000Y-34270000D02*
X-337970000Y-33000000D01*
X-306000000Y-21500000D02*
X-303000000Y-21500000D01*
X-272601000Y-5101000D02*
X-269500000Y-2000000D01*
X-302000000Y-17000000D02*
X-301000000Y-16000000D01*
X-253790000Y-5430000D02*
X-254610000Y-6250000D01*
X-257500000Y-4000000D02*
X-267500000Y-4000000D01*
X-301000000Y-16000000D02*
X-299500000Y-16000000D01*
X-302000000Y-20500000D02*
X-302000000Y-17000000D01*
X-299500000Y-16000000D02*
X-296000000Y-19500000D01*
X-267500000Y-4000000D02*
X-267750000Y-4250000D01*
X-254610000Y-6250000D02*
X-255250000Y-6250000D01*
X-271399000Y-19399000D02*
X-271399000Y-10601000D01*
X-271399000Y-10601000D02*
X-272601000Y-9399000D01*
X-269500000Y-2000000D02*
X-258500000Y-2000000D01*
X-303000000Y-21500000D02*
X-302000000Y-20500000D01*
X-272601000Y-9399000D02*
X-272601000Y-5101000D01*
X-296000000Y-19500000D02*
X-271500000Y-19500000D01*
X-268000000Y5750000D02*
X-267750000Y5750000D01*
%TO.N,Net-(U1-GPB6)*%
X-269500000Y-11500000D02*
X-265970000Y-7970000D01*
X-265970000Y-7970000D02*
X-253790000Y-7970000D01*
X-276000000Y-21500000D02*
X-274989000Y-20489000D01*
X-271511000Y-20489000D02*
X-271500000Y-20500000D01*
X-274989000Y-20489000D02*
X-271511000Y-20489000D01*
X-303000000Y-35500000D02*
X-300000000Y-32500000D01*
X-257500000Y-250000D02*
X-258000000Y250000D01*
X-257500000Y-1250000D02*
X-257500000Y-250000D01*
%TO.N,Net-(U1-GPB0)*%
X-286000000Y38750000D02*
X-285150000Y39600000D01*
X-254770000Y8250000D02*
X-285000000Y8250000D01*
X-253790000Y7270000D02*
X-254770000Y8250000D01*
X-362500000Y-4500000D02*
X-350000000Y8000000D01*
X-285150000Y39600000D02*
X-252290000Y39600000D01*
X-285000000Y8250000D02*
X-286000000Y9250000D01*
X-286000000Y9250000D02*
X-286000000Y38750000D01*
X-257000000Y8000000D02*
X-256270000Y7270000D01*
X-256270000Y7270000D02*
X-253790000Y7270000D01*
X-369010000Y-4500000D02*
X-362500000Y-4500000D01*
X-350000000Y8000000D02*
X-257000000Y8000000D01*
%TO.N,Net-(U1-GPB2)*%
X-301810000Y2190000D02*
X-253790000Y2190000D01*
X-309470000Y-1970000D02*
X-307000000Y500000D01*
X-307000000Y500000D02*
X-303500000Y500000D01*
X-254600000Y3000000D02*
X-269000000Y3000000D01*
X-303500000Y500000D02*
X-301810000Y2190000D01*
X-309470000Y-4500000D02*
X-309470000Y-1970000D01*
X-253790000Y2190000D02*
X-254600000Y3000000D01*
%TD*%
M02*
