%TF.GenerationSoftware,KiCad,Pcbnew,9.0.6*%
%TF.CreationDate,2025-12-26T23:22:09+00:00*%
%TF.ProjectId,DT,44542e6b-6963-4616-945f-706362585858,rev?*%
%TF.SameCoordinates,Original*%
%TF.FileFunction,Copper,L1,Top*%
%TF.FilePolarity,Positive*%
%FSLAX46Y46*%
G04 Gerber Fmt 4.6, Leading zero omitted, Abs format (unit mm)*
G04 Created by KiCad (PCBNEW 9.0.6) date 2025-12-26 23:22:09*
%MOMM*%
%LPD*%
G01*
G04 APERTURE LIST*
G04 Aperture macros list*
%AMRoundRect*
0 Rectangle with rounded corners*
0 $1 Rounding radius*
0 $2 $3 $4 $5 $6 $7 $8 $9 X,Y pos of 4 corners*
0 Add a 4 corners polygon primitive as box body*
4,1,4,$2,$3,$4,$5,$6,$7,$8,$9,$2,$3,0*
0 Add four circle primitives for the rounded corners*
1,1,$1+$1,$2,$3*
1,1,$1+$1,$4,$5*
1,1,$1+$1,$6,$7*
1,1,$1+$1,$8,$9*
0 Add four rect primitives between the rounded corners*
20,1,$1+$1,$2,$3,$4,$5,0*
20,1,$1+$1,$4,$5,$6,$7,0*
20,1,$1+$1,$6,$7,$8,$9,0*
20,1,$1+$1,$8,$9,$2,$3,0*%
G04 Aperture macros list end*
%TA.AperFunction,ComponentPad*%
%ADD10C,1.400000*%
%TD*%
%TA.AperFunction,ComponentPad*%
%ADD11R,1.800000X1.800000*%
%TD*%
%TA.AperFunction,ComponentPad*%
%ADD12C,1.800000*%
%TD*%
%TA.AperFunction,ComponentPad*%
%ADD13C,2.200000*%
%TD*%
%TA.AperFunction,ComponentPad*%
%ADD14C,3.000000*%
%TD*%
%TA.AperFunction,ComponentPad*%
%ADD15R,1.800000X2.600000*%
%TD*%
%TA.AperFunction,ComponentPad*%
%ADD16O,1.800000X2.600000*%
%TD*%
%TA.AperFunction,ComponentPad*%
%ADD17RoundRect,0.250000X-0.550000X-0.550000X0.550000X-0.550000X0.550000X0.550000X-0.550000X0.550000X0*%
%TD*%
%TA.AperFunction,ComponentPad*%
%ADD18C,1.600000*%
%TD*%
%TA.AperFunction,ComponentPad*%
%ADD19R,1.600000X1.600000*%
%TD*%
%TA.AperFunction,ComponentPad*%
%ADD20O,1.600000X1.600000*%
%TD*%
%TA.AperFunction,ViaPad*%
%ADD21C,0.600000*%
%TD*%
%TA.AperFunction,Conductor*%
%ADD22C,0.200000*%
%TD*%
G04 APERTURE END LIST*
D10*
%TO.P,R5,1*%
%TO.N,Net-(D5-A)*%
X-365040000Y-24470000D03*
%TO.P,R5,2*%
%TO.N,Net-(DS1-LED(-))*%
X-359960000Y-24470000D03*
%TD*%
D11*
%TO.P,D6,1,K*%
%TO.N,Net-(A1-D8)*%
X-343032000Y-24465000D03*
D12*
%TO.P,D6,2,A*%
%TO.N,Net-(D6-A)*%
X-340492000Y-24465000D03*
%TD*%
D11*
%TO.P,D7,1,K*%
%TO.N,Net-(A1-D7)*%
X-313262000Y-24465000D03*
D12*
%TO.P,D7,2,A*%
%TO.N,Net-(D7-A)*%
X-310722000Y-24465000D03*
%TD*%
D10*
%TO.P,R8,1*%
%TO.N,Net-(D8-A)*%
X-275690000Y-24530000D03*
%TO.P,R8,2*%
%TO.N,Net-(DS1-LED(-))*%
X-270610000Y-24530000D03*
%TD*%
D13*
%TO.P,SW11,1,1*%
%TO.N,Net-(U1-GPA2)*%
X-309470000Y-64040000D03*
%TO.P,SW11,2,2*%
%TO.N,Net-(A1-+5V)*%
X-315820000Y-66580000D03*
%TD*%
D10*
%TO.P,R24,1*%
%TO.N,Net-(U1-GPB2)*%
X-252290000Y34750000D03*
%TO.P,R24,2*%
%TO.N,Net-(DS1-LED(-))*%
X-247210000Y34750000D03*
%TD*%
D11*
%TO.P,D5,1,K*%
%TO.N,Net-(A1-D9)*%
X-372802000Y-24465000D03*
D12*
%TO.P,D5,2,A*%
%TO.N,Net-(D5-A)*%
X-370262000Y-24465000D03*
%TD*%
D13*
%TO.P,SW9,1,1*%
%TO.N,Net-(U1-GPA0)*%
X-369010000Y-64040000D03*
%TO.P,SW9,2,2*%
%TO.N,Net-(A1-+5V)*%
X-375360000Y-66580000D03*
%TD*%
D10*
%TO.P,R4,1*%
%TO.N,Net-(D4-A)*%
X-276080000Y5300000D03*
%TO.P,R4,2*%
%TO.N,Net-(DS1-LED(-))*%
X-271000000Y5300000D03*
%TD*%
D11*
%TO.P,D9,1,K*%
%TO.N,Net-(A1-D5)*%
X-372802000Y-54235000D03*
D12*
%TO.P,D9,2,A*%
%TO.N,Net-(D9-A)*%
X-370262000Y-54235000D03*
%TD*%
D10*
%TO.P,R1,1*%
%TO.N,Net-(D1-A)*%
X-365270000Y5250000D03*
%TO.P,R1,2*%
%TO.N,Net-(DS1-LED(-))*%
X-360190000Y5250000D03*
%TD*%
D11*
%TO.P,D1,1,K*%
%TO.N,Net-(A1-A2)*%
X-372802000Y5305000D03*
D12*
%TO.P,D1,2,A*%
%TO.N,Net-(D1-A)*%
X-370262000Y5305000D03*
%TD*%
D10*
%TO.P,R11,1*%
%TO.N,Net-(D11-A)*%
X-305570000Y-54280000D03*
%TO.P,R11,2*%
%TO.N,Net-(DS1-LED(-))*%
X-300490000Y-54280000D03*
%TD*%
%TO.P,R3,1*%
%TO.N,Net-(D3-A)*%
X-305790000Y5140000D03*
%TO.P,R3,2*%
%TO.N,Net-(DS1-LED(-))*%
X-300710000Y5140000D03*
%TD*%
%TO.P,R25,1*%
%TO.N,Net-(DS1-LED(+))*%
X-283440000Y43700000D03*
%TO.P,R25,2*%
%TO.N,Net-(A1-+5V)*%
X-278360000Y43700000D03*
%TD*%
D13*
%TO.P,SW12,1,1*%
%TO.N,Net-(U1-GPA3)*%
X-279700000Y-64040000D03*
%TO.P,SW12,2,2*%
%TO.N,Net-(A1-+5V)*%
X-286050000Y-66580000D03*
%TD*%
D10*
%TO.P,R23,1*%
%TO.N,Net-(U1-GPB0)*%
X-252290000Y39600000D03*
%TO.P,R23,2*%
%TO.N,Net-(DS1-LED(-))*%
X-247210000Y39600000D03*
%TD*%
%TO.P,R21,1*%
%TO.N,Net-(U1-GPB5)*%
X-252290000Y27250000D03*
%TO.P,R21,2*%
%TO.N,Net-(DS1-LED(-))*%
X-247210000Y27250000D03*
%TD*%
%TO.P,R12,1*%
%TO.N,Net-(D12-A)*%
X-277200000Y-53000000D03*
%TO.P,R12,2*%
%TO.N,Net-(DS1-LED(-))*%
X-272120000Y-53000000D03*
%TD*%
D14*
%TO.P,DS1,*%
%TO.N,*%
X-363955000Y42000000D03*
X-363955000Y10999300D03*
X-288956420Y10999300D03*
X-288955900Y42000000D03*
D15*
%TO.P,DS1,1,VSS*%
%TO.N,Net-(DS1-LED(-))*%
X-358455900Y42000000D03*
D16*
%TO.P,DS1,2,VDD*%
%TO.N,Net-(A1-+5V)*%
X-355915900Y42000000D03*
%TO.P,DS1,3,VO*%
%TO.N,unconnected-(DS1-VO-Pad3)*%
X-353375900Y42000000D03*
%TO.P,DS1,4,RS*%
%TO.N,Net-(DS1-RS)*%
X-350835900Y42000000D03*
%TO.P,DS1,5,R/W*%
%TO.N,Net-(DS1-LED(-))*%
X-348295900Y42000000D03*
%TO.P,DS1,6,E*%
%TO.N,Net-(DS1-E)*%
X-345755900Y42000000D03*
%TO.P,DS1,7,D0*%
%TO.N,unconnected-(DS1-D0-Pad7)*%
X-343215900Y42000000D03*
%TO.P,DS1,8,D1*%
%TO.N,unconnected-(DS1-D1-Pad8)*%
X-340675900Y42000000D03*
%TO.P,DS1,9,D2*%
%TO.N,unconnected-(DS1-D2-Pad9)*%
X-338135900Y42000000D03*
%TO.P,DS1,10,D3*%
%TO.N,unconnected-(DS1-D3-Pad10)*%
X-335595900Y42000000D03*
%TO.P,DS1,11,D4*%
%TO.N,Net-(DS1-D4)*%
X-333055900Y42000000D03*
%TO.P,DS1,12,D5*%
%TO.N,Net-(DS1-D5)*%
X-330515900Y42000000D03*
%TO.P,DS1,13,D6*%
%TO.N,Net-(A1-A6)*%
X-327975900Y42000000D03*
%TO.P,DS1,14,D7*%
%TO.N,Net-(A1-A7)*%
X-325435900Y42000000D03*
%TO.P,DS1,15,LED(+)*%
%TO.N,Net-(DS1-LED(+))*%
X-322895900Y42000000D03*
%TO.P,DS1,16,LED(-)*%
%TO.N,Net-(DS1-LED(-))*%
X-320355900Y42000000D03*
%TD*%
D13*
%TO.P,SW2,1,1*%
%TO.N,Net-(U1-GPB1)*%
X-339240000Y-4500000D03*
%TO.P,SW2,2,2*%
%TO.N,Net-(A1-+5V)*%
X-345590000Y-7040000D03*
%TD*%
D10*
%TO.P,R14,1*%
%TO.N,Net-(U1-GPA2)*%
X-252290000Y11950000D03*
%TO.P,R14,2*%
%TO.N,Net-(DS1-LED(-))*%
X-247210000Y11950000D03*
%TD*%
%TO.P,R22,1*%
%TO.N,Net-(U1-GPB6)*%
X-252290000Y24750000D03*
%TO.P,R22,2*%
%TO.N,Net-(DS1-LED(-))*%
X-247210000Y24750000D03*
%TD*%
D13*
%TO.P,SW4,1,1*%
%TO.N,Net-(U1-GPB3)*%
X-279700000Y-4500000D03*
%TO.P,SW4,2,2*%
%TO.N,Net-(A1-+5V)*%
X-286050000Y-7040000D03*
%TD*%
%TO.P,SW6,1,1*%
%TO.N,Net-(U1-GPB5)*%
X-339240000Y-34270000D03*
%TO.P,SW6,2,2*%
%TO.N,Net-(A1-+5V)*%
X-345590000Y-36810000D03*
%TD*%
D10*
%TO.P,R15,1*%
%TO.N,Net-(U1-GPA1)*%
X-252290000Y37250000D03*
%TO.P,R15,2*%
%TO.N,Net-(DS1-LED(-))*%
X-247210000Y37250000D03*
%TD*%
D13*
%TO.P,SW3,1,1*%
%TO.N,Net-(U1-GPB2)*%
X-309470000Y-4500000D03*
%TO.P,SW3,2,2*%
%TO.N,Net-(A1-+5V)*%
X-315820000Y-7040000D03*
%TD*%
D11*
%TO.P,D12,1,K*%
%TO.N,Net-(A1-D2)*%
X-283492000Y-54235000D03*
D12*
%TO.P,D12,2,A*%
%TO.N,Net-(D12-A)*%
X-280952000Y-54235000D03*
%TD*%
D10*
%TO.P,R16,1*%
%TO.N,Net-(U1-GPA0)*%
X-252290000Y22250000D03*
%TO.P,R16,2*%
%TO.N,Net-(DS1-LED(-))*%
X-247210000Y22250000D03*
%TD*%
D17*
%TO.P,U1,1,GPB0*%
%TO.N,Net-(U1-GPB0)*%
X-253790000Y7270000D03*
D18*
%TO.P,U1,2,GPB1*%
%TO.N,Net-(U1-GPB1)*%
X-253790000Y4730000D03*
%TO.P,U1,3,GPB2*%
%TO.N,Net-(U1-GPB2)*%
X-253790000Y2190000D03*
%TO.P,U1,4,GPB3*%
%TO.N,Net-(U1-GPB3)*%
X-253790000Y-350000D03*
%TO.P,U1,5,GPB4*%
%TO.N,Net-(U1-GPB4)*%
X-253790000Y-2890000D03*
%TO.P,U1,6,GPB5*%
%TO.N,Net-(U1-GPB5)*%
X-253790000Y-5430000D03*
%TO.P,U1,7,GPB6*%
%TO.N,Net-(U1-GPB6)*%
X-253790000Y-7970000D03*
%TO.P,U1,8,GPB7*%
%TO.N,Net-(U1-GPB7)*%
X-253790000Y-10510000D03*
%TO.P,U1,9,VDD*%
%TO.N,Net-(A1-+5V)*%
X-253790000Y-13050000D03*
%TO.P,U1,10,VSS*%
%TO.N,Net-(DS1-LED(-))*%
X-253790000Y-15590000D03*
%TO.P,U1,11,NC*%
%TO.N,unconnected-(U1-NC-Pad11)*%
X-253790000Y-18130000D03*
%TO.P,U1,12,SCK*%
%TO.N,Net-(A1-SCL{slash}A5)*%
X-253790000Y-20670000D03*
%TO.P,U1,13,SDA*%
%TO.N,Net-(A1-SDA{slash}A4)*%
X-253790000Y-23210000D03*
%TO.P,U1,14,NC*%
%TO.N,unconnected-(U1-NC-Pad14)*%
X-253790000Y-25750000D03*
%TO.P,U1,15,A0*%
%TO.N,Net-(DS1-LED(-))*%
X-246170000Y-25750000D03*
%TO.P,U1,16,A1*%
X-246170000Y-23210000D03*
%TO.P,U1,17,A2*%
X-246170000Y-20670000D03*
%TO.P,U1,18,~{RESET}*%
%TO.N,Net-(U1-~{RESET})*%
X-246170000Y-18130000D03*
%TO.P,U1,19,INTB*%
%TO.N,unconnected-(U1-INTB-Pad19)*%
X-246170000Y-15590000D03*
%TO.P,U1,20,INTA*%
%TO.N,unconnected-(U1-INTA-Pad20)*%
X-246170000Y-13050000D03*
%TO.P,U1,21,GPA0*%
%TO.N,Net-(U1-GPA0)*%
X-246170000Y-10510000D03*
%TO.P,U1,22,GPA1*%
%TO.N,Net-(U1-GPA1)*%
X-246170000Y-7970000D03*
%TO.P,U1,23,GPA2*%
%TO.N,Net-(U1-GPA2)*%
X-246170000Y-5430000D03*
%TO.P,U1,24,GPA3*%
%TO.N,Net-(U1-GPA3)*%
X-246170000Y-2890000D03*
%TO.P,U1,25,GPA4*%
%TO.N,Net-(DS1-RS)*%
X-246170000Y-350000D03*
%TO.P,U1,26,GPA5*%
%TO.N,Net-(DS1-E)*%
X-246170000Y2190000D03*
%TO.P,U1,27,GPA6*%
%TO.N,Net-(DS1-D4)*%
X-246170000Y4730000D03*
%TO.P,U1,28,GPA7*%
%TO.N,Net-(DS1-D5)*%
X-246170000Y7270000D03*
%TD*%
D11*
%TO.P,D2,1,K*%
%TO.N,Net-(A1-A1)*%
X-343032000Y5305000D03*
D12*
%TO.P,D2,2,A*%
%TO.N,Net-(D2-A)*%
X-340492000Y5305000D03*
%TD*%
D13*
%TO.P,SW1,1,1*%
%TO.N,Net-(U1-GPB0)*%
X-369010000Y-4500000D03*
%TO.P,SW1,2,2*%
%TO.N,Net-(A1-+5V)*%
X-375360000Y-7040000D03*
%TD*%
D11*
%TO.P,D3,1,K*%
%TO.N,Net-(A1-A0)*%
X-313262000Y5305000D03*
D12*
%TO.P,D3,2,A*%
%TO.N,Net-(D3-A)*%
X-310722000Y5305000D03*
%TD*%
D10*
%TO.P,R17,1*%
%TO.N,Net-(U1-GPB7)*%
X-252290000Y32250000D03*
%TO.P,R17,2*%
%TO.N,Net-(DS1-LED(-))*%
X-247210000Y32250000D03*
%TD*%
D13*
%TO.P,SW8,1,1*%
%TO.N,Net-(U1-GPB7)*%
X-279700000Y-34270000D03*
%TO.P,SW8,2,2*%
%TO.N,Net-(A1-+5V)*%
X-286050000Y-36810000D03*
%TD*%
D10*
%TO.P,R10,1*%
%TO.N,Net-(D10-A)*%
X-334940000Y-54250000D03*
%TO.P,R10,2*%
%TO.N,Net-(DS1-LED(-))*%
X-329860000Y-54250000D03*
%TD*%
%TO.P,R19,1*%
%TO.N,Net-(U1-GPB3)*%
X-252290000Y29750000D03*
%TO.P,R19,2*%
%TO.N,Net-(DS1-LED(-))*%
X-247210000Y29750000D03*
%TD*%
%TO.P,R20,1*%
%TO.N,Net-(U1-GPB4)*%
X-252290000Y17250000D03*
%TO.P,R20,2*%
%TO.N,Net-(DS1-LED(-))*%
X-247210000Y17250000D03*
%TD*%
%TO.P,R2,1*%
%TO.N,Net-(D2-A)*%
X-335610000Y5350000D03*
%TO.P,R2,2*%
%TO.N,Net-(DS1-LED(-))*%
X-330530000Y5350000D03*
%TD*%
D13*
%TO.P,SW5,1,1*%
%TO.N,Net-(U1-GPB4)*%
X-369010000Y-34270000D03*
%TO.P,SW5,2,2*%
%TO.N,Net-(A1-+5V)*%
X-375360000Y-36810000D03*
%TD*%
D11*
%TO.P,D4,1,K*%
%TO.N,Net-(A1-D10)*%
X-283492000Y5305000D03*
D12*
%TO.P,D4,2,A*%
%TO.N,Net-(D4-A)*%
X-280952000Y5305000D03*
%TD*%
D10*
%TO.P,R26,1*%
%TO.N,Net-(A1-+5V)*%
X-240000000Y-32540000D03*
%TO.P,R26,2*%
%TO.N,Net-(U1-~{RESET})*%
X-240000000Y-27460000D03*
%TD*%
%TO.P,R6,1*%
%TO.N,Net-(D6-A)*%
X-335530000Y-24440000D03*
%TO.P,R6,2*%
%TO.N,Net-(DS1-LED(-))*%
X-330450000Y-24440000D03*
%TD*%
D11*
%TO.P,D11,1,K*%
%TO.N,Net-(A1-D3)*%
X-313262000Y-54235000D03*
D12*
%TO.P,D11,2,A*%
%TO.N,Net-(D11-A)*%
X-310722000Y-54235000D03*
%TD*%
D10*
%TO.P,R18,1*%
%TO.N,Net-(U1-GPB1)*%
X-252290000Y19750000D03*
%TO.P,R18,2*%
%TO.N,Net-(DS1-LED(-))*%
X-247210000Y19750000D03*
%TD*%
%TO.P,R9,1*%
%TO.N,Net-(D9-A)*%
X-365230000Y-54260000D03*
%TO.P,R9,2*%
%TO.N,Net-(DS1-LED(-))*%
X-360150000Y-54260000D03*
%TD*%
D11*
%TO.P,D8,1,K*%
%TO.N,Net-(A1-D6)*%
X-283492000Y-24465000D03*
D12*
%TO.P,D8,2,A*%
%TO.N,Net-(D8-A)*%
X-280952000Y-24465000D03*
%TD*%
D10*
%TO.P,R13,1*%
%TO.N,Net-(U1-GPA3)*%
X-252290000Y14650000D03*
%TO.P,R13,2*%
%TO.N,Net-(DS1-LED(-))*%
X-247210000Y14650000D03*
%TD*%
D19*
%TO.P,A1,1,TX1*%
%TO.N,unconnected-(A1-TX1-Pad1)*%
X-260840000Y-40610000D03*
D20*
%TO.P,A1,2,RX1*%
%TO.N,unconnected-(A1-RX1-Pad2)*%
X-260840000Y-43150000D03*
%TO.P,A1,3,~{RESET}*%
%TO.N,unconnected-(A1-~{RESET}-Pad3)*%
X-260840000Y-45690000D03*
%TO.P,A1,4,GND*%
%TO.N,Net-(DS1-LED(-))*%
X-260840000Y-48230000D03*
%TO.P,A1,5,D2*%
%TO.N,Net-(A1-D2)*%
X-260840000Y-50770000D03*
%TO.P,A1,6,D3*%
%TO.N,Net-(A1-D3)*%
X-260840000Y-53310000D03*
%TO.P,A1,7,D4*%
%TO.N,Net-(A1-D4)*%
X-260840000Y-55850000D03*
%TO.P,A1,8,D5*%
%TO.N,Net-(A1-D5)*%
X-260840000Y-58390000D03*
%TO.P,A1,9,D6*%
%TO.N,Net-(A1-D6)*%
X-260840000Y-60930000D03*
%TO.P,A1,10,D7*%
%TO.N,Net-(A1-D7)*%
X-260840000Y-63470000D03*
%TO.P,A1,11,D8*%
%TO.N,Net-(A1-D8)*%
X-260840000Y-66010000D03*
%TO.P,A1,12,D9*%
%TO.N,Net-(A1-D9)*%
X-260840000Y-68550000D03*
%TO.P,A1,13,D10*%
%TO.N,Net-(A1-D10)*%
X-260840000Y-71090000D03*
%TO.P,A1,14,MOSI*%
%TO.N,unconnected-(A1-MOSI-Pad14)*%
X-260840000Y-73630000D03*
%TO.P,A1,15,MISO*%
%TO.N,unconnected-(A1-MISO-Pad15)*%
X-260840000Y-76170000D03*
%TO.P,A1,16,SCK*%
%TO.N,unconnected-(A1-SCK-Pad16)*%
X-245600000Y-76170000D03*
%TO.P,A1,17,3V3*%
%TO.N,unconnected-(A1-3V3-Pad17)*%
X-245600000Y-73630000D03*
%TO.P,A1,18,AREF*%
%TO.N,unconnected-(A1-AREF-Pad18)*%
X-245600000Y-71090000D03*
%TO.P,A1,19,A0*%
%TO.N,Net-(A1-A0)*%
X-245600000Y-68550000D03*
%TO.P,A1,20,A1*%
%TO.N,Net-(A1-A1)*%
X-245600000Y-66010000D03*
%TO.P,A1,21,A2*%
%TO.N,Net-(A1-A2)*%
X-245600000Y-63470000D03*
%TO.P,A1,22,A3*%
%TO.N,unconnected-(A1-A3-Pad22)*%
X-245600000Y-60930000D03*
%TO.P,A1,23,SDA/A4*%
%TO.N,Net-(A1-SDA{slash}A4)*%
X-245600000Y-58390000D03*
%TO.P,A1,24,SCL/A5*%
%TO.N,Net-(A1-SCL{slash}A5)*%
X-245600000Y-55850000D03*
%TO.P,A1,25,A6*%
%TO.N,Net-(A1-A6)*%
X-245600000Y-53310000D03*
%TO.P,A1,26,A7*%
%TO.N,Net-(A1-A7)*%
X-245600000Y-50770000D03*
%TO.P,A1,27,+5V*%
%TO.N,Net-(A1-+5V)*%
X-245600000Y-48230000D03*
%TO.P,A1,28,~{RESET}*%
%TO.N,unconnected-(A1-~{RESET}-Pad28)*%
X-245600000Y-45690000D03*
%TO.P,A1,29,GND*%
%TO.N,Net-(DS1-LED(-))*%
X-245600000Y-43150000D03*
%TO.P,A1,30,VIN*%
%TO.N,unconnected-(A1-VIN-Pad30)*%
X-245600000Y-40610000D03*
%TD*%
D13*
%TO.P,SW7,1,1*%
%TO.N,Net-(U1-GPB6)*%
X-309470000Y-34270000D03*
%TO.P,SW7,2,2*%
%TO.N,Net-(A1-+5V)*%
X-315820000Y-36810000D03*
%TD*%
%TO.P,SW10,1,1*%
%TO.N,Net-(U1-GPA1)*%
X-339240000Y-64040000D03*
%TO.P,SW10,2,2*%
%TO.N,Net-(A1-+5V)*%
X-345590000Y-66580000D03*
%TD*%
D11*
%TO.P,D10,1,K*%
%TO.N,Net-(A1-D4)*%
X-343032000Y-54235000D03*
D12*
%TO.P,D10,2,A*%
%TO.N,Net-(D10-A)*%
X-340492000Y-54235000D03*
%TD*%
D10*
%TO.P,R7,1*%
%TO.N,Net-(D7-A)*%
X-305600000Y-24400000D03*
%TO.P,R7,2*%
%TO.N,Net-(DS1-LED(-))*%
X-300520000Y-24400000D03*
%TD*%
D21*
%TO.N,Net-(A1-D8)*%
X-267000000Y-68000000D03*
X-328500000Y-50500000D03*
X-293500000Y-57500000D03*
X-267000000Y-57500000D03*
%TO.N,Net-(A1-A1)*%
X-264000000Y-30500000D03*
X-271000000Y-30500000D03*
X-329500000Y-18000000D03*
%TO.N,Net-(A1-A6)*%
X-242100000Y-51700000D03*
X-240000000Y-49600000D03*
X-235800000Y-37100000D03*
X-236400000Y-46400000D03*
%TO.N,Net-(A1-D9)*%
X-359500000Y-44000000D03*
%TO.N,Net-(A1-+5V)*%
X-298000000Y-19000000D03*
X-286050000Y-27050000D03*
X-269500000Y-500000D03*
X-237400000Y-35600000D03*
X-244500000Y-8000000D03*
X-240000000Y-42000000D03*
X-315820000Y-58180000D03*
X-240000000Y-43800000D03*
X-246000000Y-32500000D03*
X-237800000Y-37300000D03*
X-242100000Y-45900000D03*
X-315820000Y-54820000D03*
X-242000000Y-44500000D03*
X-345500000Y-28000000D03*
X-315820000Y-25320000D03*
X-367400000Y6800000D03*
X-244500000Y-6000000D03*
%TO.N,Net-(A1-A2)*%
X-267700000Y-31500000D03*
X-357500000Y-18500000D03*
X-271000000Y-31500000D03*
%TO.N,Net-(DS1-RS)*%
X-241400000Y-300000D03*
%TO.N,Net-(DS1-D4)*%
X-241400000Y2100000D03*
%TO.N,Net-(DS1-D5)*%
X-241400000Y3200000D03*
%TO.N,Net-(DS1-E)*%
X-241400000Y800000D03*
%TO.N,Net-(A1-A7)*%
X-242300000Y-50500000D03*
X-236800000Y-36400000D03*
X-237200000Y-37900000D03*
X-240000000Y-48200000D03*
%TO.N,Net-(DS1-LED(-))*%
X-261420000Y580000D03*
X-271000000Y-5000000D03*
X-269600000Y-27800000D03*
X-340400000Y1100000D03*
X-261420000Y-1100000D03*
X-244000000Y-27920000D03*
X-311500000Y1500000D03*
X-265500000Y-32500000D03*
X-261420000Y-9670000D03*
%TO.N,Net-(A1-D10)*%
X-268500000Y-26500000D03*
X-268500000Y-68500000D03*
%TO.N,Net-(A1-D6)*%
X-263000000Y-47500000D03*
%TO.N,Net-(A1-SDA{slash}A4)*%
X-242000000Y-55000000D03*
X-237000000Y-50000000D03*
X-241500000Y-34500000D03*
X-240000000Y-53000000D03*
%TO.N,Net-(A1-A0)*%
X-271500000Y-28500000D03*
X-300500000Y-18500000D03*
%TO.N,Net-(A1-D7)*%
X-298000000Y-50700000D03*
%TO.N,Net-(A1-SCL{slash}A5)*%
X-242000000Y-53000000D03*
X-242000000Y-35500000D03*
X-240000000Y-51000000D03*
X-238000000Y-49000000D03*
%TO.N,Net-(U1-GPA3)*%
X-266500000Y-78500000D03*
%TO.N,Net-(U1-GPA2)*%
X-301000000Y-78000000D03*
X-247000000Y9800000D03*
X-243700000Y-6700000D03*
%TO.N,Net-(U1-GPA1)*%
X-243100000Y-7500000D03*
X-272800000Y34000000D03*
X-256700000Y15900000D03*
X-254200000Y10900000D03*
X-243400000Y7900000D03*
X-264000000Y-34000000D03*
X-264000000Y-36500000D03*
X-277300000Y31400000D03*
X-264500000Y-61000000D03*
%TO.N,Net-(U1-GPA0)*%
X-266000000Y-60500000D03*
X-241600000Y-21000000D03*
X-245900000Y-28100000D03*
X-267500000Y-36000000D03*
X-253600000Y11500000D03*
X-244100000Y10700000D03*
X-243300000Y-23400000D03*
X-266000000Y-31500000D03*
X-255600000Y17000000D03*
%TO.N,Net-(U1-GPB7)*%
X-260600000Y-1300000D03*
X-255600000Y3800000D03*
X-267500000Y-25500000D03*
X-267200000Y3800000D03*
X-283800000Y24100000D03*
X-255600000Y-2000000D03*
%TO.N,Net-(U1-GPB1)*%
X-257750000Y4750000D03*
%TO.N,Net-(U1-GPB3)*%
X-263000000Y750000D03*
%TO.N,Net-(U1-GPB4)*%
X-328500000Y-20000000D03*
X-272000000Y-7500000D03*
X-268750000Y-1250000D03*
X-258750000Y13000000D03*
X-269500000Y750000D03*
X-258500000Y6500000D03*
X-355500000Y-22500000D03*
X-269750000Y6500000D03*
X-335500000Y-21500000D03*
X-269000000Y-3500000D03*
%TO.N,Net-(U1-GPB5)*%
X-258500000Y-2000000D03*
X-267750000Y-4250000D03*
X-267750000Y5750000D03*
X-270500000Y3250000D03*
X-306000000Y-21500000D03*
X-331000000Y-33000000D03*
%TO.N,Net-(U1-GPB6)*%
X-303000000Y-35500000D03*
X-269500000Y-11500000D03*
X-257500000Y-1250000D03*
X-300000000Y-32500000D03*
X-276000000Y-21500000D03*
X-271511000Y-20489000D03*
X-258000000Y250000D03*
%TO.N,Net-(U1-GPB2)*%
X-269000000Y3000000D03*
%TD*%
D22*
%TO.N,Net-(D1-A)*%
X-370262000Y5305000D02*
X-365325000Y5305000D01*
X-365325000Y5305000D02*
X-365270000Y5250000D01*
%TO.N,Net-(A1-D8)*%
X-267000000Y-68500000D02*
X-265500000Y-70000000D01*
X-333000000Y-31500000D02*
X-335997000Y-31500000D01*
X-293500000Y-57500000D02*
X-267000000Y-57500000D01*
X-335997000Y-31500000D02*
X-343032000Y-24465000D01*
X-267000000Y-68000000D02*
X-267000000Y-68500000D01*
X-328500000Y-50500000D02*
X-333000000Y-46000000D01*
X-333000000Y-46000000D02*
X-333000000Y-31500000D01*
X-264830000Y-70000000D02*
X-260840000Y-66010000D01*
X-265500000Y-70000000D02*
X-264830000Y-70000000D01*
%TO.N,Net-(D2-A)*%
X-335655000Y5305000D02*
X-335610000Y5350000D01*
X-340492000Y5305000D02*
X-335655000Y5305000D01*
%TO.N,Net-(A1-A1)*%
X-271000000Y-30500000D02*
X-264000000Y-30500000D01*
X-343032000Y5305000D02*
X-336727000Y-1000000D01*
X-336727000Y-1000000D02*
X-333500000Y-1000000D01*
X-329500000Y-5000000D02*
X-329500000Y-18000000D01*
X-333500000Y-1000000D02*
X-329500000Y-5000000D01*
%TO.N,Net-(D3-A)*%
X-310722000Y5305000D02*
X-305955000Y5305000D01*
X-305955000Y5305000D02*
X-305790000Y5140000D01*
%TO.N,Net-(D4-A)*%
X-280952000Y5305000D02*
X-276085000Y5305000D01*
X-276085000Y5305000D02*
X-276080000Y5300000D01*
%TO.N,Net-(A1-A6)*%
X-235800000Y-37100000D02*
X-235800000Y-34599000D01*
X-241498000Y6830900D02*
X-241498000Y8632200D01*
X-244799000Y14633200D02*
X-244799000Y42533200D01*
X-239600000Y-49600000D02*
X-236400000Y-46400000D01*
X-241497000Y-10266100D02*
X-241097000Y-9866100D01*
X-240265450Y-19800350D02*
X-240265450Y-19233250D01*
X-240595000Y-7330500D02*
X-240595000Y-5503700D01*
X-241498000Y8632200D02*
X-242365450Y9499650D01*
X-240000000Y-49600000D02*
X-239600000Y-49600000D01*
X-243990000Y-51700000D02*
X-242100000Y-51700000D01*
X-242095000Y6233900D02*
X-241498000Y6830900D01*
X-241097000Y-7832500D02*
X-240595000Y-7330500D01*
X-245600000Y-53310000D02*
X-243990000Y-51700000D01*
X-235800000Y-34599000D02*
X-236499000Y-33900000D01*
X-324574900Y45401000D02*
X-327975900Y42000000D01*
X-246767800Y44502000D02*
X-251034900Y44502000D01*
X-236499000Y-23566800D02*
X-240265450Y-19800350D01*
X-242095000Y-4003700D02*
X-242095000Y6233900D01*
X-251034900Y44502000D02*
X-251933900Y45401000D01*
X-236499000Y-33900000D02*
X-236499000Y-23566800D01*
X-240265450Y-19233250D02*
X-241497000Y-18001700D01*
X-240595000Y-5503700D02*
X-242095000Y-4003700D01*
X-242365450Y9499650D02*
X-242365450Y12199650D01*
X-251933900Y45401000D02*
X-324574900Y45401000D01*
X-241497000Y-18001700D02*
X-241497000Y-10266100D01*
X-242365450Y12199650D02*
X-244799000Y14633200D01*
X-241097000Y-9866100D02*
X-241097000Y-7832500D01*
X-244799000Y42533200D02*
X-246767800Y44502000D01*
%TO.N,Net-(D5-A)*%
X-365045000Y-24465000D02*
X-365040000Y-24470000D01*
X-370262000Y-24465000D02*
X-365045000Y-24465000D01*
%TO.N,Net-(D6-A)*%
X-340492000Y-24465000D02*
X-335555000Y-24465000D01*
X-335555000Y-24465000D02*
X-335530000Y-24440000D01*
%TO.N,Net-(A1-D9)*%
X-359500000Y-37767000D02*
X-359500000Y-44000000D01*
X-372802000Y-24465000D02*
X-359500000Y-37767000D01*
%TO.N,Net-(D7-A)*%
X-310722000Y-24465000D02*
X-305665000Y-24465000D01*
X-305665000Y-24465000D02*
X-305600000Y-24400000D01*
%TO.N,Net-(D8-A)*%
X-280952000Y-24465000D02*
X-275755000Y-24465000D01*
X-275755000Y-24465000D02*
X-275690000Y-24530000D01*
%TO.N,Net-(D9-A)*%
X-365255000Y-54235000D02*
X-365230000Y-54260000D01*
X-370262000Y-54235000D02*
X-365255000Y-54235000D01*
%TO.N,Net-(D10-A)*%
X-334955000Y-54235000D02*
X-334940000Y-54250000D01*
X-340492000Y-54235000D02*
X-334955000Y-54235000D01*
%TO.N,Net-(A1-+5V)*%
X-257000000Y-500000D02*
X-256500000Y0D01*
X-244500000Y8500000D02*
X-244500000Y-6000000D01*
X-241100000Y-19532900D02*
X-241100000Y-20100000D01*
X-242000000Y-44630000D02*
X-245600000Y-48230000D01*
X-269500000Y-500000D02*
X-257000000Y-500000D01*
X-239000000Y-31540000D02*
X-240000000Y-32540000D01*
X-286050000Y-36810000D02*
X-286050000Y-27050000D01*
X-241899000Y-9500000D02*
X-242299000Y-9900000D01*
X-242000000Y-44500000D02*
X-242000000Y-44630000D01*
X-241397000Y-6998300D02*
X-241899000Y-7500300D01*
X-239000000Y-26082900D02*
X-239000000Y-31540000D01*
X-245000000Y9000000D02*
X-244500000Y8500000D01*
X-241899000Y-7500300D02*
X-241899000Y-9500000D01*
X-256000000Y9000000D02*
X-245000000Y9000000D01*
X-239400000Y-38900000D02*
X-239400000Y-43200000D01*
X-242299000Y-18333900D02*
X-241100000Y-19532900D01*
X-366700000Y45500000D02*
X-367400000Y44800000D01*
X-355915900Y42000000D02*
X-355915900Y44415900D01*
X-298000000Y-19000000D02*
X-298000000Y-18561530D01*
X-242300000Y8300000D02*
X-242300000Y7200000D01*
X-242299000Y-9900000D02*
X-242299000Y-18333900D01*
X-237400000Y-23800000D02*
X-237400000Y-35600000D01*
X-367400000Y44800000D02*
X-367400000Y6800000D01*
X-375360000Y-36810000D02*
X-375360000Y-66580000D01*
X-315820000Y-66580000D02*
X-286050000Y-66580000D01*
X-247100000Y43700000D02*
X-245600000Y42200000D01*
X-241100000Y-20100000D02*
X-237400000Y-23800000D01*
X-278360000Y43700000D02*
X-247100000Y43700000D01*
X-245600000Y42200000D02*
X-245600000Y14300000D01*
X-345590000Y-36810000D02*
X-345500000Y-36720000D01*
X-298000000Y-18561530D02*
X-286478470Y-7040000D01*
X-357000000Y45500000D02*
X-366700000Y45500000D01*
X-256500000Y0D02*
X-256500000Y8500000D01*
X-355915900Y44415900D02*
X-357000000Y45500000D01*
X-241397000Y-5835900D02*
X-241397000Y-6998300D01*
X-257000000Y-30500000D02*
X-255000000Y-32500000D01*
X-242897000Y-4335900D02*
X-241397000Y-5835900D01*
X-242897000Y6603000D02*
X-242897000Y-4335900D01*
X-245600000Y14300000D02*
X-243200000Y11900000D01*
X-375360000Y-7040000D02*
X-375360000Y-36810000D01*
X-240000000Y-32540000D02*
X-240000000Y-42000000D01*
X-237800000Y-37300000D02*
X-239400000Y-38900000D01*
X-257000000Y-16260000D02*
X-257000000Y-30500000D01*
X-256500000Y8500000D02*
X-256000000Y9000000D01*
X-242100000Y-45900000D02*
X-244430000Y-48230000D01*
X-239400000Y-43200000D02*
X-240000000Y-43800000D01*
X-243200000Y11900000D02*
X-243200000Y9200000D01*
X-244500000Y-8000000D02*
X-244500000Y-20582900D01*
X-345500000Y-36720000D02*
X-345500000Y-28000000D01*
X-315820000Y-54820000D02*
X-315820000Y-58180000D01*
X-253790000Y-13050000D02*
X-257000000Y-16260000D01*
X-244500000Y-20582900D02*
X-239000000Y-26082900D01*
X-243200000Y9200000D02*
X-242300000Y8300000D01*
X-286478470Y-7040000D02*
X-286050000Y-7040000D01*
X-244430000Y-48230000D02*
X-245600000Y-48230000D01*
X-242300000Y7200000D02*
X-242897000Y6603000D01*
X-255000000Y-32500000D02*
X-246000000Y-32500000D01*
X-315820000Y-25320000D02*
X-315820000Y-36810000D01*
X-375360000Y-66580000D02*
X-345590000Y-66580000D01*
%TO.N,Net-(D11-A)*%
X-305615000Y-54235000D02*
X-305570000Y-54280000D01*
X-310722000Y-54235000D02*
X-305615000Y-54235000D01*
%TO.N,Net-(A1-A2)*%
X-365497000Y-2000000D02*
X-362000000Y-2000000D01*
X-362000000Y-2000000D02*
X-362000000Y-14000000D01*
X-372802000Y5305000D02*
X-365497000Y-2000000D01*
X-271000000Y-31500000D02*
X-267700000Y-31500000D01*
X-362000000Y-14000000D02*
X-357500000Y-18500000D01*
%TO.N,Net-(D12-A)*%
X-279717000Y-53000000D02*
X-277200000Y-53000000D01*
X-280952000Y-54235000D02*
X-279717000Y-53000000D01*
%TO.N,Net-(DS1-RS)*%
X-240761450Y10164050D02*
X-239894000Y9296600D01*
X-239894000Y6103000D02*
X-240197000Y5800000D01*
X-239698000Y4232200D02*
X-239698000Y402000D01*
X-246103400Y46106000D02*
X-243195000Y43197600D01*
X-251205000Y47005000D02*
X-250306000Y46106000D01*
X-243195000Y15297600D02*
X-240761450Y12864050D01*
X-240197000Y5800000D02*
X-240197000Y4731200D01*
X-240197000Y4731200D02*
X-239698000Y4232200D01*
X-239894000Y9296600D02*
X-239894000Y6103000D01*
X-243195000Y43197600D02*
X-243195000Y15297600D01*
X-345830900Y47005000D02*
X-251205000Y47005000D01*
X-240400000Y-300000D02*
X-241400000Y-300000D01*
X-240761450Y12864050D02*
X-240761450Y10164050D01*
X-350835900Y42000000D02*
X-345830900Y47005000D01*
X-250306000Y46106000D02*
X-246103400Y46106000D01*
X-239698000Y402000D02*
X-240400000Y-300000D01*
%TO.N,Net-(DS1-D4)*%
X-251535900Y46203000D02*
X-250636900Y45304000D01*
X-246435600Y45304000D02*
X-243997000Y42865400D01*
X-241563450Y12531850D02*
X-241563450Y9831850D01*
X-243997000Y14965400D02*
X-241563450Y12531850D01*
X-240500000Y3900000D02*
X-240500000Y2500000D01*
X-333055900Y42000000D02*
X-328852900Y46203000D01*
X-240500000Y2500000D02*
X-240900000Y2100000D01*
X-240696000Y8964400D02*
X-240696000Y6498700D01*
X-240900000Y2100000D02*
X-241400000Y2100000D01*
X-240999000Y6195700D02*
X-240999000Y4399000D01*
X-243997000Y42865400D02*
X-243997000Y14965400D01*
X-240999000Y4399000D02*
X-240500000Y3900000D01*
X-240696000Y6498700D02*
X-240999000Y6195700D01*
X-328852900Y46203000D02*
X-251535900Y46203000D01*
X-250636900Y45304000D02*
X-246435600Y45304000D01*
X-241563450Y9831850D02*
X-240696000Y8964400D01*
%TO.N,Net-(DS1-D5)*%
X-241964450Y12365750D02*
X-241964450Y9665750D01*
X-326713900Y45802000D02*
X-251702000Y45802000D01*
X-244398000Y14799300D02*
X-241964450Y12365750D01*
X-330515900Y42000000D02*
X-326713900Y45802000D01*
X-241964450Y9665750D02*
X-241097000Y8798300D01*
X-241400000Y6361800D02*
X-241400000Y3200000D01*
X-244398000Y42699300D02*
X-244398000Y14799300D01*
X-250803000Y44903000D02*
X-246601700Y44903000D01*
X-241097000Y6664800D02*
X-241400000Y6361800D01*
X-251702000Y45802000D02*
X-250803000Y44903000D01*
X-241097000Y8798300D02*
X-241097000Y6664800D01*
X-246601700Y44903000D02*
X-244398000Y42699300D01*
%TO.N,Net-(DS1-E)*%
X-251369800Y46604000D02*
X-341151900Y46604000D01*
X-240598000Y6029600D02*
X-240295000Y6332600D01*
X-243596000Y43031500D02*
X-246269500Y45705000D01*
X-246269500Y45705000D02*
X-250470800Y45705000D01*
X-243596000Y15131500D02*
X-243596000Y43031500D01*
X-341151900Y46604000D02*
X-345755900Y42000000D01*
X-240099000Y1301000D02*
X-240099000Y4066100D01*
X-250470800Y45705000D02*
X-251369800Y46604000D01*
X-240295000Y9130500D02*
X-241162450Y9997950D01*
X-241162450Y12697950D02*
X-243596000Y15131500D01*
X-240598000Y4565100D02*
X-240598000Y6029600D01*
X-240295000Y6332600D02*
X-240295000Y9130500D01*
X-241400000Y800000D02*
X-240600000Y800000D01*
X-240099000Y4066100D02*
X-240598000Y4565100D01*
X-241162450Y9997950D02*
X-241162450Y12697950D01*
X-240600000Y800000D02*
X-240099000Y1301000D01*
%TO.N,Net-(A1-D4)*%
X-263790000Y-58800000D02*
X-260840000Y-55850000D01*
X-343032000Y-54235000D02*
X-338467000Y-58800000D01*
X-338467000Y-58800000D02*
X-263790000Y-58800000D01*
%TO.N,Net-(A1-D5)*%
X-367637000Y-59400000D02*
X-263100000Y-59400000D01*
X-263100000Y-59400000D02*
X-262090000Y-58390000D01*
X-262090000Y-58390000D02*
X-260840000Y-58390000D01*
X-372802000Y-54235000D02*
X-367637000Y-59400000D01*
%TO.N,Net-(DS1-LED(+))*%
X-283541000Y43801000D02*
X-283440000Y43700000D01*
X-322895900Y42000000D02*
X-321094900Y43801000D01*
X-321094900Y43801000D02*
X-283541000Y43801000D01*
%TO.N,Net-(A1-A7)*%
X-241498000Y-7666400D02*
X-241498000Y-9700000D01*
X-240666450Y-19399350D02*
X-240666450Y-19966450D01*
X-241899000Y8466100D02*
X-241899000Y6997000D01*
X-236900000Y-34100000D02*
X-236400000Y-34600000D01*
X-240996000Y-7164400D02*
X-241498000Y-7666400D01*
X-241898000Y-10100000D02*
X-241898000Y-18167800D01*
X-242300000Y-50500000D02*
X-242570000Y-50770000D01*
X-245200000Y14467100D02*
X-242766450Y12033550D01*
X-242570000Y-50770000D02*
X-245600000Y-50770000D01*
X-237200000Y-37900000D02*
X-237200000Y-45400000D01*
X-236900000Y-23732900D02*
X-236900000Y-34100000D01*
X-240996000Y-5669800D02*
X-240996000Y-7164400D01*
X-240666450Y-19966450D02*
X-236900000Y-23732900D01*
X-242496000Y-4169800D02*
X-240996000Y-5669800D01*
X-245200000Y42367100D02*
X-245200000Y14467100D01*
X-236400000Y-36100000D02*
X-236700000Y-36400000D01*
X-237200000Y-45400000D02*
X-240000000Y-48200000D01*
X-241898000Y-18167800D02*
X-240666450Y-19399350D01*
X-252100000Y45000000D02*
X-251201000Y44101000D01*
X-236700000Y-36400000D02*
X-236800000Y-36400000D01*
X-251201000Y44101000D02*
X-246933900Y44101000D01*
X-241899000Y6997000D02*
X-242496000Y6400000D01*
X-242496000Y6400000D02*
X-242496000Y-4169800D01*
X-242766450Y9333550D02*
X-241899000Y8466100D01*
X-246933900Y44101000D02*
X-245200000Y42367100D01*
X-241498000Y-9700000D02*
X-241898000Y-10100000D01*
X-322435900Y45000000D02*
X-252100000Y45000000D01*
X-236400000Y-34600000D02*
X-236400000Y-36100000D01*
X-325435900Y42000000D02*
X-322435900Y45000000D01*
X-242766450Y12033550D02*
X-242766450Y9333550D01*
%TO.N,Net-(DS1-LED(-))*%
X-355990000Y-50100000D02*
X-334010000Y-50100000D01*
X-270610000Y-24530000D02*
X-269600000Y-25540000D01*
X-262130000Y-48230000D02*
X-260840000Y-48230000D01*
X-261420000Y-1100000D02*
X-261420000Y-9670000D01*
X-271000000Y5300000D02*
X-271250000Y5050000D01*
X-247210000Y39600000D02*
X-247210000Y11950000D01*
X-334010000Y-50100000D02*
X-329860000Y-54250000D01*
X-300710000Y5140000D02*
X-298350000Y7500000D01*
X-248250000Y9401000D02*
X-256166100Y9401000D01*
X-329860000Y-54250000D02*
X-325810000Y-50200000D01*
X-264950000Y-51050000D02*
X-262130000Y-48230000D01*
X-330530000Y5350000D02*
X-326680000Y1500000D01*
X-271250000Y-4750000D02*
X-271000000Y-5000000D01*
X-300520000Y-24400000D02*
X-296820000Y-20700000D01*
X-300490000Y-54280000D02*
X-298209000Y-51999000D01*
X-258920000Y580000D02*
X-261420000Y580000D01*
X-247210000Y11950000D02*
X-247210000Y10441000D01*
X-334390000Y-20500000D02*
X-330450000Y-24440000D01*
X-298209000Y-51999000D02*
X-273121000Y-51999000D01*
X-244000000Y-28000000D02*
X-244000000Y-27920000D01*
X-330450000Y-24440000D02*
X-326510000Y-20500000D01*
X-270520000Y-54600000D02*
X-268500000Y-54600000D01*
X-247210000Y10441000D02*
X-248250000Y9401000D01*
X-326510000Y-20500000D02*
X-304420000Y-20500000D01*
X-360190000Y5250000D02*
X-356040000Y1100000D01*
X-356040000Y1100000D02*
X-340400000Y1100000D01*
X-304570000Y-50200000D02*
X-300490000Y-54280000D01*
X-273121000Y-51999000D02*
X-272120000Y-53000000D01*
X-325810000Y-50200000D02*
X-304570000Y-50200000D01*
X-296820000Y-20700000D02*
X-274440000Y-20700000D01*
X-268500000Y-54600000D02*
X-264950000Y-51050000D01*
X-298350000Y7500000D02*
X-273200000Y7500000D01*
X-272120000Y-53000000D02*
X-270520000Y-54600000D01*
X-274440000Y-20700000D02*
X-270610000Y-24530000D01*
X-269600000Y-25540000D02*
X-269600000Y-27800000D01*
X-246170000Y-20670000D02*
X-246170000Y-25750000D01*
X-246170000Y-25750000D02*
X-244000000Y-27920000D01*
X-360150000Y-54260000D02*
X-355990000Y-50100000D01*
X-359960000Y-24470000D02*
X-355990000Y-20500000D01*
X-271250000Y5050000D02*
X-271250000Y-4750000D01*
X-265500000Y-32500000D02*
X-265000000Y-33000000D01*
X-265000000Y-51000000D02*
X-264950000Y-51050000D01*
X-257000000Y2500000D02*
X-258920000Y580000D01*
X-257000000Y8567100D02*
X-257000000Y2500000D01*
X-265000000Y-33000000D02*
X-265000000Y-51000000D01*
X-256166100Y9401000D02*
X-257000000Y8567100D01*
X-304420000Y-20500000D02*
X-300520000Y-24400000D01*
X-326680000Y1500000D02*
X-311500000Y1500000D01*
X-355990000Y-20500000D02*
X-334390000Y-20500000D01*
X-273200000Y7500000D02*
X-271000000Y5300000D01*
%TO.N,Net-(A1-D3)*%
X-265630000Y-58100000D02*
X-260840000Y-53310000D01*
X-313262000Y-54235000D02*
X-309397000Y-58100000D01*
X-309397000Y-58100000D02*
X-265630000Y-58100000D01*
%TO.N,Net-(A1-D10)*%
X-268500000Y-9687000D02*
X-268500000Y-26500000D01*
X-268500000Y-68500000D02*
X-265910000Y-71090000D01*
X-268500000Y-9687000D02*
X-283492000Y5305000D01*
X-265910000Y-71090000D02*
X-260840000Y-71090000D01*
%TO.N,Net-(A1-D6)*%
X-278457000Y-29500000D02*
X-263000000Y-29500000D01*
X-283492000Y-24465000D02*
X-278457000Y-29500000D01*
X-263000000Y-29500000D02*
X-263000000Y-47500000D01*
%TO.N,Net-(A1-SDA{slash}A4)*%
X-253790000Y-23210000D02*
X-256000000Y-25420000D01*
X-256000000Y-25420000D02*
X-256000000Y-29500000D01*
X-245500000Y-30500000D02*
X-241500000Y-34500000D01*
X-237000000Y-50000000D02*
X-240000000Y-53000000D01*
X-242210000Y-55000000D02*
X-245600000Y-58390000D01*
X-255000000Y-30500000D02*
X-245500000Y-30500000D01*
X-256000000Y-29500000D02*
X-255000000Y-30500000D01*
X-242000000Y-55000000D02*
X-242210000Y-55000000D01*
%TO.N,Net-(A1-A0)*%
X-263000000Y-28500000D02*
X-261500000Y-30000000D01*
X-241000000Y-63950000D02*
X-245600000Y-68550000D01*
X-261500000Y-33000000D02*
X-259500000Y-35000000D01*
X-261500000Y-30000000D02*
X-261500000Y-33000000D01*
X-241000000Y-39000000D02*
X-241000000Y-63950000D01*
X-271500000Y-28500000D02*
X-263000000Y-28500000D01*
X-313262000Y5305000D02*
X-300500000Y-7457000D01*
X-300500000Y-7457000D02*
X-300500000Y-18500000D01*
X-259500000Y-35000000D02*
X-245000000Y-35000000D01*
X-245000000Y-35000000D02*
X-241000000Y-39000000D01*
%TO.N,Net-(A1-D2)*%
X-263170000Y-50770000D02*
X-260840000Y-50770000D01*
X-281927000Y-55800000D02*
X-268200000Y-55800000D01*
X-283492000Y-54235000D02*
X-281927000Y-55800000D01*
X-268200000Y-55800000D02*
X-263170000Y-50770000D01*
%TO.N,Net-(A1-D7)*%
X-301600000Y-47100000D02*
X-298000000Y-50700000D01*
X-308327000Y-29400000D02*
X-301600000Y-29400000D01*
X-301600000Y-29400000D02*
X-301600000Y-47100000D01*
X-313262000Y-24465000D02*
X-308327000Y-29400000D01*
%TO.N,Net-(A1-SCL{slash}A5)*%
X-255000000Y-31500000D02*
X-246000000Y-31500000D01*
X-256500000Y-30000000D02*
X-255000000Y-31500000D01*
X-256500000Y-23380000D02*
X-256500000Y-30000000D01*
X-246000000Y-31500000D02*
X-242000000Y-35500000D01*
X-242000000Y-53000000D02*
X-242750000Y-53000000D01*
X-242750000Y-53000000D02*
X-245600000Y-55850000D01*
X-253790000Y-20670000D02*
X-256500000Y-23380000D01*
X-238000000Y-49000000D02*
X-240000000Y-51000000D01*
%TO.N,Net-(U1-GPA3)*%
X-271000000Y-78000000D02*
X-270500000Y-78500000D01*
X-270500000Y-78500000D02*
X-266500000Y-78500000D01*
X-273040000Y-64040000D02*
X-273000000Y-64000000D01*
X-279700000Y-64040000D02*
X-273040000Y-64040000D01*
X-271000000Y-66000000D02*
X-271000000Y-78000000D01*
X-273000000Y-64000000D02*
X-271000000Y-66000000D01*
%TO.N,Net-(U1-GPA2)*%
X-244100000Y8700000D02*
X-244800000Y9400000D01*
X-243700000Y-6700000D02*
X-242800000Y-6700000D01*
X-242800000Y-6700000D02*
X-242600000Y-6500000D01*
X-266000000Y-79500000D02*
X-262500000Y-83000000D01*
X-243500000Y-8100000D02*
X-246170000Y-5430000D01*
X-238500000Y-35700000D02*
X-238500000Y-25000000D01*
X-301000000Y-78000000D02*
X-299500000Y-79500000D01*
X-244100000Y-4900000D02*
X-244100000Y8700000D01*
X-262500000Y-83000000D02*
X-244000000Y-83000000D01*
X-244000000Y-83000000D02*
X-235800000Y-74800000D01*
X-244800000Y9400000D02*
X-246700000Y9400000D01*
X-243500000Y-20000000D02*
X-243500000Y-8100000D01*
X-299500000Y-79500000D02*
X-266000000Y-79500000D01*
X-242600000Y-6400000D02*
X-244100000Y-4900000D01*
X-238500000Y-25000000D02*
X-243500000Y-20000000D01*
X-235800000Y-74800000D02*
X-235800000Y-38400000D01*
X-246700000Y9400000D02*
X-247000000Y9700000D01*
X-242600000Y-6500000D02*
X-242600000Y-6400000D01*
X-247000000Y9700000D02*
X-247000000Y9800000D01*
X-235800000Y-38400000D02*
X-238500000Y-35700000D01*
%TO.N,Net-(U1-GPA1)*%
X-338500000Y-60230000D02*
X-267270000Y-60230000D01*
X-339240000Y-60970000D02*
X-338500000Y-60230000D01*
X-243032900Y-7500000D02*
X-242199000Y-6666100D01*
X-242199000Y-6666100D02*
X-242199000Y-6233900D01*
X-277300000Y31400000D02*
X-274700000Y34000000D01*
X-267270000Y-60230000D02*
X-266399000Y-61101000D01*
X-243100000Y-7500000D02*
X-243032900Y-7500000D01*
X-274700000Y34000000D02*
X-272800000Y34000000D01*
X-243699000Y-4733900D02*
X-243699000Y7601000D01*
X-272800000Y34000000D02*
X-272700000Y34000000D01*
X-243699000Y7601000D02*
X-243400000Y7900000D01*
X-254200000Y10900000D02*
X-256700000Y10900000D01*
X-264601000Y-61101000D02*
X-264500000Y-61000000D01*
X-266399000Y-61101000D02*
X-264601000Y-61101000D01*
X-256700000Y10900000D02*
X-257300000Y11500000D01*
X-242199000Y-6233900D02*
X-243699000Y-4733900D01*
X-339240000Y-64040000D02*
X-339240000Y-60970000D01*
X-264000000Y-36500000D02*
X-264000000Y-34000000D01*
X-257300000Y15300000D02*
X-256700000Y15900000D01*
X-257300000Y11500000D02*
X-257300000Y15300000D01*
%TO.N,Net-(U1-GPA0)*%
X-245479000Y-28521000D02*
X-242921000Y-28521000D01*
X-241600000Y-21000000D02*
X-241600000Y-19600000D01*
X-243600000Y-23600000D02*
X-243400000Y-23400000D01*
X-244100000Y9500000D02*
X-244100000Y10700000D01*
X-242600000Y-26800000D02*
X-243600000Y-25800000D01*
X-253600000Y11500000D02*
X-255600000Y13500000D01*
X-242300000Y-9300000D02*
X-242300000Y-7334200D01*
X-242700000Y-18500000D02*
X-242700000Y-9700000D01*
X-267500000Y-36000000D02*
X-267500000Y-33000000D01*
X-242700000Y-9700000D02*
X-242300000Y-9300000D01*
X-266671000Y-59829000D02*
X-266000000Y-60500000D01*
X-242300000Y-7334200D02*
X-241798000Y-6832200D01*
X-243400000Y-23400000D02*
X-243300000Y-23400000D01*
X-245900000Y-28100000D02*
X-245479000Y-28521000D01*
X-242600000Y-28200000D02*
X-242600000Y-26800000D01*
X-255600000Y13500000D02*
X-255600000Y17000000D01*
X-241798000Y-6832200D02*
X-241798000Y-6002000D01*
X-243298000Y7152057D02*
X-242799000Y7651057D01*
X-242921000Y-28521000D02*
X-242600000Y-28200000D01*
X-243600000Y-25800000D02*
X-243600000Y-23600000D01*
X-242799000Y8199000D02*
X-244100000Y9500000D01*
X-369010000Y-64040000D02*
X-364799000Y-59829000D01*
X-241600000Y-19600000D02*
X-242700000Y-18500000D01*
X-241798000Y-6002000D02*
X-243298000Y-4502000D01*
X-267500000Y-33000000D02*
X-266000000Y-31500000D01*
X-243298000Y-4502000D02*
X-243298000Y7152057D01*
X-242799000Y7651057D02*
X-242799000Y8199000D01*
X-364799000Y-59829000D02*
X-266671000Y-59829000D01*
%TO.N,Net-(U1-GPB7)*%
X-264510000Y-10510000D02*
X-253790000Y-10510000D01*
X-268969800Y10104000D02*
X-283904000Y10104000D01*
X-267200000Y3800000D02*
X-267597000Y4197000D01*
X-266500000Y-24500000D02*
X-266500000Y-12500000D01*
X-267597000Y4197000D02*
X-267597000Y4485957D01*
X-253790000Y-10510000D02*
X-260600000Y-3700000D01*
X-266500000Y-12500000D02*
X-264510000Y-10510000D01*
X-255600000Y-2000000D02*
X-255600000Y3800000D01*
X-266700000Y5382957D02*
X-266700000Y7834200D01*
X-260600000Y-3700000D02*
X-260600000Y-1300000D01*
X-267500000Y-25500000D02*
X-266500000Y-24500000D01*
X-266700000Y7834200D02*
X-268969800Y10104000D01*
X-284146000Y23754000D02*
X-283800000Y24100000D01*
X-284146000Y10346000D02*
X-284146000Y23754000D01*
X-283904000Y10104000D02*
X-284146000Y10346000D01*
X-267597000Y4485957D02*
X-266700000Y5382957D01*
%TO.N,Net-(U1-GPB1)*%
X-257750000Y4750000D02*
X-257750000Y15850000D01*
X-253850000Y19750000D02*
X-252290000Y19750000D01*
X-257750000Y15850000D02*
X-253850000Y19750000D01*
%TO.N,Net-(U1-GPB3)*%
X-268399000Y899000D02*
X-268399000Y7716100D01*
X-285349000Y9666100D02*
X-285349000Y29000000D01*
X-263000000Y750000D02*
X-268250000Y750000D01*
X-252790000Y29250000D02*
X-252290000Y29750000D01*
X-269583900Y8901000D02*
X-284583900Y8901000D01*
X-268399000Y7716100D02*
X-269583900Y8901000D01*
X-268250000Y750000D02*
X-268399000Y899000D01*
X-285099000Y29250000D02*
X-252790000Y29250000D01*
X-284583900Y8901000D02*
X-285349000Y9666100D01*
X-285349000Y29000000D02*
X-285099000Y29250000D01*
%TO.N,Net-(U1-GPB4)*%
X-355500000Y-22500000D02*
X-353901000Y-20901000D01*
X-258500000Y12750000D02*
X-258750000Y13000000D01*
X-269000000Y-1500000D02*
X-268750000Y-1250000D01*
X-272500000Y-20000000D02*
X-272000000Y-19500000D01*
X-353901000Y-20901000D02*
X-336099000Y-20901000D01*
X-272000000Y-19500000D02*
X-272000000Y-7500000D01*
X-258500000Y6500000D02*
X-258500000Y12750000D01*
X-269000000Y-3500000D02*
X-269000000Y-1500000D01*
X-269500000Y750000D02*
X-269750000Y1000000D01*
X-269750000Y1000000D02*
X-269750000Y6500000D01*
X-328500000Y-20000000D02*
X-272500000Y-20000000D01*
X-336099000Y-20901000D02*
X-335500000Y-21500000D01*
%TO.N,Net-(U1-GPB5)*%
X-284750000Y28000000D02*
X-253040000Y28000000D01*
X-319500000Y-21500000D02*
X-306000000Y-21500000D01*
X-284948000Y9832200D02*
X-284948000Y27802000D01*
X-255070000Y-5430000D02*
X-253790000Y-5430000D01*
X-284948000Y27802000D02*
X-284750000Y28000000D01*
X-258500000Y-2000000D02*
X-255070000Y-5430000D01*
X-267750000Y5750000D02*
X-267750000Y7750000D01*
X-269302000Y9302000D02*
X-284417800Y9302000D01*
X-270500000Y-2849943D02*
X-270500000Y3250000D01*
X-253040000Y28000000D02*
X-252290000Y27250000D01*
X-331000000Y-33000000D02*
X-319500000Y-21500000D01*
X-269099943Y-4250000D02*
X-270500000Y-2849943D01*
X-284417800Y9302000D02*
X-284948000Y9832200D01*
X-267750000Y-4250000D02*
X-269099943Y-4250000D01*
X-267750000Y7750000D02*
X-269302000Y9302000D01*
%TO.N,Net-(U1-GPB6)*%
X-253790000Y-7970000D02*
X-260000000Y-1760000D01*
X-259750000Y-1250000D02*
X-257500000Y-1250000D01*
X-284547000Y9998300D02*
X-284547000Y24353000D01*
X-269500000Y-20000000D02*
X-269500000Y-11500000D01*
X-294601000Y-21101000D02*
X-276399000Y-21101000D01*
X-284251700Y9703000D02*
X-284547000Y9998300D01*
X-284547000Y24353000D02*
X-284150000Y24750000D01*
X-308240000Y-35500000D02*
X-303000000Y-35500000D01*
X-267149000Y5501057D02*
X-267149000Y7716100D01*
X-296000000Y-28500000D02*
X-296000000Y-22500000D01*
X-261979000Y-21000D02*
X-262399000Y399000D01*
X-262800057Y1400000D02*
X-267700000Y1400000D01*
X-260000000Y-1500000D02*
X-259750000Y-1250000D01*
X-296000000Y-22500000D02*
X-294601000Y-21101000D01*
X-258000000Y250000D02*
X-258271000Y-21000D01*
X-260000000Y-1760000D02*
X-260000000Y-1500000D01*
X-271511000Y-20489000D02*
X-270011000Y-20489000D01*
X-267998000Y1698000D02*
X-267998000Y4652057D01*
X-262399000Y399000D02*
X-262399000Y998943D01*
X-267998000Y4652057D02*
X-267149000Y5501057D01*
X-284150000Y24750000D02*
X-252290000Y24750000D01*
X-267700000Y1400000D02*
X-267998000Y1698000D01*
X-270000000Y-20500000D02*
X-269500000Y-20000000D01*
X-276399000Y-21101000D02*
X-276000000Y-21500000D01*
X-269135900Y9703000D02*
X-284251700Y9703000D01*
X-258271000Y-21000D02*
X-261979000Y-21000D01*
X-300000000Y-32500000D02*
X-296000000Y-28500000D01*
X-309470000Y-34270000D02*
X-308240000Y-35500000D01*
X-267149000Y7716100D02*
X-269135900Y9703000D01*
X-262399000Y998943D02*
X-262800057Y1400000D01*
X-270011000Y-20489000D02*
X-270000000Y-20500000D01*
%TO.N,Net-(U1-GPB2)*%
X-285750000Y34000000D02*
X-285000000Y34750000D01*
X-269000000Y3000000D02*
X-269000000Y7750000D01*
X-269750000Y8500000D02*
X-284750000Y8500000D01*
X-285000000Y34750000D02*
X-252290000Y34750000D01*
X-285750000Y9500000D02*
X-285750000Y34000000D01*
X-269000000Y7750000D02*
X-269750000Y8500000D01*
X-284750000Y8500000D02*
X-285750000Y9500000D01*
%TO.N,Net-(U1-~{RESET})*%
X-246170000Y-19480000D02*
X-246081000Y-19569000D01*
X-240000000Y-25650000D02*
X-240000000Y-27460000D01*
X-246081000Y-19569000D02*
X-245713950Y-19569000D01*
X-246170000Y-18130000D02*
X-246170000Y-19480000D01*
X-245069000Y-20213950D02*
X-245069000Y-20581000D01*
X-245069000Y-20581000D02*
X-240000000Y-25650000D01*
X-245713950Y-19569000D02*
X-245069000Y-20213950D01*
%TD*%
M02*
