%TF.GenerationSoftware,KiCad,Pcbnew,9.0.6*%
%TF.CreationDate,2025-12-26T23:22:09+00:00*%
%TF.ProjectId,DT,44542e6b-6963-4616-945f-706362585858,rev?*%
%TF.SameCoordinates,Original*%
%TF.FileFunction,Legend,Top*%
%TF.FilePolarity,Positive*%
%FSLAX46Y46*%
G04 Gerber Fmt 4.6, Leading zero omitted, Abs format (unit mm)*
G04 Created by KiCad (PCBNEW 9.0.6) date 2025-12-26 23:22:09*
%MOMM*%
%LPD*%
G01*
G04 APERTURE LIST*
%ADD10C,0.150000*%
%ADD11C,0.120000*%
G04 APERTURE END LIST*
D10*
X-362666666Y-23004819D02*
X-362999999Y-22528628D01*
X-363238094Y-23004819D02*
X-363238094Y-22004819D01*
X-363238094Y-22004819D02*
X-362857142Y-22004819D01*
X-362857142Y-22004819D02*
X-362761904Y-22052438D01*
X-362761904Y-22052438D02*
X-362714285Y-22100057D01*
X-362714285Y-22100057D02*
X-362666666Y-22195295D01*
X-362666666Y-22195295D02*
X-362666666Y-22338152D01*
X-362666666Y-22338152D02*
X-362714285Y-22433390D01*
X-362714285Y-22433390D02*
X-362761904Y-22481009D01*
X-362761904Y-22481009D02*
X-362857142Y-22528628D01*
X-362857142Y-22528628D02*
X-363238094Y-22528628D01*
X-361761904Y-22004819D02*
X-362238094Y-22004819D01*
X-362238094Y-22004819D02*
X-362285713Y-22481009D01*
X-362285713Y-22481009D02*
X-362238094Y-22433390D01*
X-362238094Y-22433390D02*
X-362142856Y-22385771D01*
X-362142856Y-22385771D02*
X-361904761Y-22385771D01*
X-361904761Y-22385771D02*
X-361809523Y-22433390D01*
X-361809523Y-22433390D02*
X-361761904Y-22481009D01*
X-361761904Y-22481009D02*
X-361714285Y-22576247D01*
X-361714285Y-22576247D02*
X-361714285Y-22814342D01*
X-361714285Y-22814342D02*
X-361761904Y-22909580D01*
X-361761904Y-22909580D02*
X-361809523Y-22957200D01*
X-361809523Y-22957200D02*
X-361904761Y-23004819D01*
X-361904761Y-23004819D02*
X-362142856Y-23004819D01*
X-362142856Y-23004819D02*
X-362238094Y-22957200D01*
X-362238094Y-22957200D02*
X-362285713Y-22909580D01*
X-342500094Y-21959819D02*
X-342500094Y-20959819D01*
X-342500094Y-20959819D02*
X-342261999Y-20959819D01*
X-342261999Y-20959819D02*
X-342119142Y-21007438D01*
X-342119142Y-21007438D02*
X-342023904Y-21102676D01*
X-342023904Y-21102676D02*
X-341976285Y-21197914D01*
X-341976285Y-21197914D02*
X-341928666Y-21388390D01*
X-341928666Y-21388390D02*
X-341928666Y-21531247D01*
X-341928666Y-21531247D02*
X-341976285Y-21721723D01*
X-341976285Y-21721723D02*
X-342023904Y-21816961D01*
X-342023904Y-21816961D02*
X-342119142Y-21912200D01*
X-342119142Y-21912200D02*
X-342261999Y-21959819D01*
X-342261999Y-21959819D02*
X-342500094Y-21959819D01*
X-341071523Y-20959819D02*
X-341261999Y-20959819D01*
X-341261999Y-20959819D02*
X-341357237Y-21007438D01*
X-341357237Y-21007438D02*
X-341404856Y-21055057D01*
X-341404856Y-21055057D02*
X-341500094Y-21197914D01*
X-341500094Y-21197914D02*
X-341547713Y-21388390D01*
X-341547713Y-21388390D02*
X-341547713Y-21769342D01*
X-341547713Y-21769342D02*
X-341500094Y-21864580D01*
X-341500094Y-21864580D02*
X-341452475Y-21912200D01*
X-341452475Y-21912200D02*
X-341357237Y-21959819D01*
X-341357237Y-21959819D02*
X-341166761Y-21959819D01*
X-341166761Y-21959819D02*
X-341071523Y-21912200D01*
X-341071523Y-21912200D02*
X-341023904Y-21864580D01*
X-341023904Y-21864580D02*
X-340976285Y-21769342D01*
X-340976285Y-21769342D02*
X-340976285Y-21531247D01*
X-340976285Y-21531247D02*
X-341023904Y-21436009D01*
X-341023904Y-21436009D02*
X-341071523Y-21388390D01*
X-341071523Y-21388390D02*
X-341166761Y-21340771D01*
X-341166761Y-21340771D02*
X-341357237Y-21340771D01*
X-341357237Y-21340771D02*
X-341452475Y-21388390D01*
X-341452475Y-21388390D02*
X-341500094Y-21436009D01*
X-341500094Y-21436009D02*
X-341547713Y-21531247D01*
X-317738094Y-24954819D02*
X-317738094Y-23954819D01*
X-317738094Y-23954819D02*
X-317499999Y-23954819D01*
X-317499999Y-23954819D02*
X-317357142Y-24002438D01*
X-317357142Y-24002438D02*
X-317261904Y-24097676D01*
X-317261904Y-24097676D02*
X-317214285Y-24192914D01*
X-317214285Y-24192914D02*
X-317166666Y-24383390D01*
X-317166666Y-24383390D02*
X-317166666Y-24526247D01*
X-317166666Y-24526247D02*
X-317214285Y-24716723D01*
X-317214285Y-24716723D02*
X-317261904Y-24811961D01*
X-317261904Y-24811961D02*
X-317357142Y-24907200D01*
X-317357142Y-24907200D02*
X-317499999Y-24954819D01*
X-317499999Y-24954819D02*
X-317738094Y-24954819D01*
X-316833332Y-23954819D02*
X-316166666Y-23954819D01*
X-316166666Y-23954819D02*
X-316595237Y-24954819D01*
X-274466666Y-23154819D02*
X-274799999Y-22678628D01*
X-275038094Y-23154819D02*
X-275038094Y-22154819D01*
X-275038094Y-22154819D02*
X-274657142Y-22154819D01*
X-274657142Y-22154819D02*
X-274561904Y-22202438D01*
X-274561904Y-22202438D02*
X-274514285Y-22250057D01*
X-274514285Y-22250057D02*
X-274466666Y-22345295D01*
X-274466666Y-22345295D02*
X-274466666Y-22488152D01*
X-274466666Y-22488152D02*
X-274514285Y-22583390D01*
X-274514285Y-22583390D02*
X-274561904Y-22631009D01*
X-274561904Y-22631009D02*
X-274657142Y-22678628D01*
X-274657142Y-22678628D02*
X-275038094Y-22678628D01*
X-273895237Y-22583390D02*
X-273990475Y-22535771D01*
X-273990475Y-22535771D02*
X-274038094Y-22488152D01*
X-274038094Y-22488152D02*
X-274085713Y-22392914D01*
X-274085713Y-22392914D02*
X-274085713Y-22345295D01*
X-274085713Y-22345295D02*
X-274038094Y-22250057D01*
X-274038094Y-22250057D02*
X-273990475Y-22202438D01*
X-273990475Y-22202438D02*
X-273895237Y-22154819D01*
X-273895237Y-22154819D02*
X-273704761Y-22154819D01*
X-273704761Y-22154819D02*
X-273609523Y-22202438D01*
X-273609523Y-22202438D02*
X-273561904Y-22250057D01*
X-273561904Y-22250057D02*
X-273514285Y-22345295D01*
X-273514285Y-22345295D02*
X-273514285Y-22392914D01*
X-273514285Y-22392914D02*
X-273561904Y-22488152D01*
X-273561904Y-22488152D02*
X-273609523Y-22535771D01*
X-273609523Y-22535771D02*
X-273704761Y-22583390D01*
X-273704761Y-22583390D02*
X-273895237Y-22583390D01*
X-273895237Y-22583390D02*
X-273990475Y-22631009D01*
X-273990475Y-22631009D02*
X-274038094Y-22678628D01*
X-274038094Y-22678628D02*
X-274085713Y-22773866D01*
X-274085713Y-22773866D02*
X-274085713Y-22964342D01*
X-274085713Y-22964342D02*
X-274038094Y-23059580D01*
X-274038094Y-23059580D02*
X-273990475Y-23107200D01*
X-273990475Y-23107200D02*
X-273895237Y-23154819D01*
X-273895237Y-23154819D02*
X-273704761Y-23154819D01*
X-273704761Y-23154819D02*
X-273609523Y-23107200D01*
X-273609523Y-23107200D02*
X-273561904Y-23059580D01*
X-273561904Y-23059580D02*
X-273514285Y-22964342D01*
X-273514285Y-22964342D02*
X-273514285Y-22773866D01*
X-273514285Y-22773866D02*
X-273561904Y-22678628D01*
X-273561904Y-22678628D02*
X-273609523Y-22631009D01*
X-273609523Y-22631009D02*
X-273704761Y-22583390D01*
X-313819523Y-61653200D02*
X-313676666Y-61700819D01*
X-313676666Y-61700819D02*
X-313438571Y-61700819D01*
X-313438571Y-61700819D02*
X-313343333Y-61653200D01*
X-313343333Y-61653200D02*
X-313295714Y-61605580D01*
X-313295714Y-61605580D02*
X-313248095Y-61510342D01*
X-313248095Y-61510342D02*
X-313248095Y-61415104D01*
X-313248095Y-61415104D02*
X-313295714Y-61319866D01*
X-313295714Y-61319866D02*
X-313343333Y-61272247D01*
X-313343333Y-61272247D02*
X-313438571Y-61224628D01*
X-313438571Y-61224628D02*
X-313629047Y-61177009D01*
X-313629047Y-61177009D02*
X-313724285Y-61129390D01*
X-313724285Y-61129390D02*
X-313771904Y-61081771D01*
X-313771904Y-61081771D02*
X-313819523Y-60986533D01*
X-313819523Y-60986533D02*
X-313819523Y-60891295D01*
X-313819523Y-60891295D02*
X-313771904Y-60796057D01*
X-313771904Y-60796057D02*
X-313724285Y-60748438D01*
X-313724285Y-60748438D02*
X-313629047Y-60700819D01*
X-313629047Y-60700819D02*
X-313390952Y-60700819D01*
X-313390952Y-60700819D02*
X-313248095Y-60748438D01*
X-312914761Y-60700819D02*
X-312676666Y-61700819D01*
X-312676666Y-61700819D02*
X-312486190Y-60986533D01*
X-312486190Y-60986533D02*
X-312295714Y-61700819D01*
X-312295714Y-61700819D02*
X-312057619Y-60700819D01*
X-311152857Y-61700819D02*
X-311724285Y-61700819D01*
X-311438571Y-61700819D02*
X-311438571Y-60700819D01*
X-311438571Y-60700819D02*
X-311533809Y-60843676D01*
X-311533809Y-60843676D02*
X-311629047Y-60938914D01*
X-311629047Y-60938914D02*
X-311724285Y-60986533D01*
X-310200476Y-61700819D02*
X-310771904Y-61700819D01*
X-310486190Y-61700819D02*
X-310486190Y-60700819D01*
X-310486190Y-60700819D02*
X-310581428Y-60843676D01*
X-310581428Y-60843676D02*
X-310676666Y-60938914D01*
X-310676666Y-60938914D02*
X-310771904Y-60986533D01*
X-372270094Y-21959819D02*
X-372270094Y-20959819D01*
X-372270094Y-20959819D02*
X-372031999Y-20959819D01*
X-372031999Y-20959819D02*
X-371889142Y-21007438D01*
X-371889142Y-21007438D02*
X-371793904Y-21102676D01*
X-371793904Y-21102676D02*
X-371746285Y-21197914D01*
X-371746285Y-21197914D02*
X-371698666Y-21388390D01*
X-371698666Y-21388390D02*
X-371698666Y-21531247D01*
X-371698666Y-21531247D02*
X-371746285Y-21721723D01*
X-371746285Y-21721723D02*
X-371793904Y-21816961D01*
X-371793904Y-21816961D02*
X-371889142Y-21912200D01*
X-371889142Y-21912200D02*
X-372031999Y-21959819D01*
X-372031999Y-21959819D02*
X-372270094Y-21959819D01*
X-370793904Y-20959819D02*
X-371270094Y-20959819D01*
X-371270094Y-20959819D02*
X-371317713Y-21436009D01*
X-371317713Y-21436009D02*
X-371270094Y-21388390D01*
X-371270094Y-21388390D02*
X-371174856Y-21340771D01*
X-371174856Y-21340771D02*
X-370936761Y-21340771D01*
X-370936761Y-21340771D02*
X-370841523Y-21388390D01*
X-370841523Y-21388390D02*
X-370793904Y-21436009D01*
X-370793904Y-21436009D02*
X-370746285Y-21531247D01*
X-370746285Y-21531247D02*
X-370746285Y-21769342D01*
X-370746285Y-21769342D02*
X-370793904Y-21864580D01*
X-370793904Y-21864580D02*
X-370841523Y-21912200D01*
X-370841523Y-21912200D02*
X-370936761Y-21959819D01*
X-370936761Y-21959819D02*
X-371174856Y-21959819D01*
X-371174856Y-21959819D02*
X-371270094Y-21912200D01*
X-371270094Y-21912200D02*
X-371317713Y-21864580D01*
X-372883332Y-61653200D02*
X-372740475Y-61700819D01*
X-372740475Y-61700819D02*
X-372502380Y-61700819D01*
X-372502380Y-61700819D02*
X-372407142Y-61653200D01*
X-372407142Y-61653200D02*
X-372359523Y-61605580D01*
X-372359523Y-61605580D02*
X-372311904Y-61510342D01*
X-372311904Y-61510342D02*
X-372311904Y-61415104D01*
X-372311904Y-61415104D02*
X-372359523Y-61319866D01*
X-372359523Y-61319866D02*
X-372407142Y-61272247D01*
X-372407142Y-61272247D02*
X-372502380Y-61224628D01*
X-372502380Y-61224628D02*
X-372692856Y-61177009D01*
X-372692856Y-61177009D02*
X-372788094Y-61129390D01*
X-372788094Y-61129390D02*
X-372835713Y-61081771D01*
X-372835713Y-61081771D02*
X-372883332Y-60986533D01*
X-372883332Y-60986533D02*
X-372883332Y-60891295D01*
X-372883332Y-60891295D02*
X-372835713Y-60796057D01*
X-372835713Y-60796057D02*
X-372788094Y-60748438D01*
X-372788094Y-60748438D02*
X-372692856Y-60700819D01*
X-372692856Y-60700819D02*
X-372454761Y-60700819D01*
X-372454761Y-60700819D02*
X-372311904Y-60748438D01*
X-371978570Y-60700819D02*
X-371740475Y-61700819D01*
X-371740475Y-61700819D02*
X-371549999Y-60986533D01*
X-371549999Y-60986533D02*
X-371359523Y-61700819D01*
X-371359523Y-61700819D02*
X-371121428Y-60700819D01*
X-370692856Y-61700819D02*
X-370502380Y-61700819D01*
X-370502380Y-61700819D02*
X-370407142Y-61653200D01*
X-370407142Y-61653200D02*
X-370359523Y-61605580D01*
X-370359523Y-61605580D02*
X-370264285Y-61462723D01*
X-370264285Y-61462723D02*
X-370216666Y-61272247D01*
X-370216666Y-61272247D02*
X-370216666Y-60891295D01*
X-370216666Y-60891295D02*
X-370264285Y-60796057D01*
X-370264285Y-60796057D02*
X-370311904Y-60748438D01*
X-370311904Y-60748438D02*
X-370407142Y-60700819D01*
X-370407142Y-60700819D02*
X-370597618Y-60700819D01*
X-370597618Y-60700819D02*
X-370692856Y-60748438D01*
X-370692856Y-60748438D02*
X-370740475Y-60796057D01*
X-370740475Y-60796057D02*
X-370788094Y-60891295D01*
X-370788094Y-60891295D02*
X-370788094Y-61129390D01*
X-370788094Y-61129390D02*
X-370740475Y-61224628D01*
X-370740475Y-61224628D02*
X-370692856Y-61272247D01*
X-370692856Y-61272247D02*
X-370597618Y-61319866D01*
X-370597618Y-61319866D02*
X-370407142Y-61319866D01*
X-370407142Y-61319866D02*
X-370311904Y-61272247D01*
X-370311904Y-61272247D02*
X-370264285Y-61224628D01*
X-370264285Y-61224628D02*
X-370216666Y-61129390D01*
X-278166666Y6045180D02*
X-278499999Y6521371D01*
X-278738094Y6045180D02*
X-278738094Y7045180D01*
X-278738094Y7045180D02*
X-278357142Y7045180D01*
X-278357142Y7045180D02*
X-278261904Y6997561D01*
X-278261904Y6997561D02*
X-278214285Y6949942D01*
X-278214285Y6949942D02*
X-278166666Y6854704D01*
X-278166666Y6854704D02*
X-278166666Y6711847D01*
X-278166666Y6711847D02*
X-278214285Y6616609D01*
X-278214285Y6616609D02*
X-278261904Y6568990D01*
X-278261904Y6568990D02*
X-278357142Y6521371D01*
X-278357142Y6521371D02*
X-278738094Y6521371D01*
X-277309523Y6711847D02*
X-277309523Y6045180D01*
X-277547618Y7092800D02*
X-277785713Y6378514D01*
X-277785713Y6378514D02*
X-277166666Y6378514D01*
X-372270094Y-51729819D02*
X-372270094Y-50729819D01*
X-372270094Y-50729819D02*
X-372031999Y-50729819D01*
X-372031999Y-50729819D02*
X-371889142Y-50777438D01*
X-371889142Y-50777438D02*
X-371793904Y-50872676D01*
X-371793904Y-50872676D02*
X-371746285Y-50967914D01*
X-371746285Y-50967914D02*
X-371698666Y-51158390D01*
X-371698666Y-51158390D02*
X-371698666Y-51301247D01*
X-371698666Y-51301247D02*
X-371746285Y-51491723D01*
X-371746285Y-51491723D02*
X-371793904Y-51586961D01*
X-371793904Y-51586961D02*
X-371889142Y-51682200D01*
X-371889142Y-51682200D02*
X-372031999Y-51729819D01*
X-372031999Y-51729819D02*
X-372270094Y-51729819D01*
X-371222475Y-51729819D02*
X-371031999Y-51729819D01*
X-371031999Y-51729819D02*
X-370936761Y-51682200D01*
X-370936761Y-51682200D02*
X-370889142Y-51634580D01*
X-370889142Y-51634580D02*
X-370793904Y-51491723D01*
X-370793904Y-51491723D02*
X-370746285Y-51301247D01*
X-370746285Y-51301247D02*
X-370746285Y-50920295D01*
X-370746285Y-50920295D02*
X-370793904Y-50825057D01*
X-370793904Y-50825057D02*
X-370841523Y-50777438D01*
X-370841523Y-50777438D02*
X-370936761Y-50729819D01*
X-370936761Y-50729819D02*
X-371127237Y-50729819D01*
X-371127237Y-50729819D02*
X-371222475Y-50777438D01*
X-371222475Y-50777438D02*
X-371270094Y-50825057D01*
X-371270094Y-50825057D02*
X-371317713Y-50920295D01*
X-371317713Y-50920295D02*
X-371317713Y-51158390D01*
X-371317713Y-51158390D02*
X-371270094Y-51253628D01*
X-371270094Y-51253628D02*
X-371222475Y-51301247D01*
X-371222475Y-51301247D02*
X-371127237Y-51348866D01*
X-371127237Y-51348866D02*
X-370936761Y-51348866D01*
X-370936761Y-51348866D02*
X-370841523Y-51301247D01*
X-370841523Y-51301247D02*
X-370793904Y-51253628D01*
X-370793904Y-51253628D02*
X-370746285Y-51158390D01*
X-363266666Y6545180D02*
X-363599999Y7021371D01*
X-363838094Y6545180D02*
X-363838094Y7545180D01*
X-363838094Y7545180D02*
X-363457142Y7545180D01*
X-363457142Y7545180D02*
X-363361904Y7497561D01*
X-363361904Y7497561D02*
X-363314285Y7449942D01*
X-363314285Y7449942D02*
X-363266666Y7354704D01*
X-363266666Y7354704D02*
X-363266666Y7211847D01*
X-363266666Y7211847D02*
X-363314285Y7116609D01*
X-363314285Y7116609D02*
X-363361904Y7068990D01*
X-363361904Y7068990D02*
X-363457142Y7021371D01*
X-363457142Y7021371D02*
X-363838094Y7021371D01*
X-362314285Y6545180D02*
X-362885713Y6545180D01*
X-362599999Y6545180D02*
X-362599999Y7545180D01*
X-362599999Y7545180D02*
X-362695237Y7402323D01*
X-362695237Y7402323D02*
X-362790475Y7307085D01*
X-362790475Y7307085D02*
X-362885713Y7259466D01*
X-372270094Y7810180D02*
X-372270094Y8810180D01*
X-372270094Y8810180D02*
X-372031999Y8810180D01*
X-372031999Y8810180D02*
X-371889142Y8762561D01*
X-371889142Y8762561D02*
X-371793904Y8667323D01*
X-371793904Y8667323D02*
X-371746285Y8572085D01*
X-371746285Y8572085D02*
X-371698666Y8381609D01*
X-371698666Y8381609D02*
X-371698666Y8238752D01*
X-371698666Y8238752D02*
X-371746285Y8048276D01*
X-371746285Y8048276D02*
X-371793904Y7953038D01*
X-371793904Y7953038D02*
X-371889142Y7857800D01*
X-371889142Y7857800D02*
X-372031999Y7810180D01*
X-372031999Y7810180D02*
X-372270094Y7810180D01*
X-370746285Y7810180D02*
X-371317713Y7810180D01*
X-371031999Y7810180D02*
X-371031999Y8810180D01*
X-371031999Y8810180D02*
X-371127237Y8667323D01*
X-371127237Y8667323D02*
X-371222475Y8572085D01*
X-371222475Y8572085D02*
X-371317713Y8524466D01*
X-305342857Y-52854819D02*
X-305676190Y-52378628D01*
X-305914285Y-52854819D02*
X-305914285Y-51854819D01*
X-305914285Y-51854819D02*
X-305533333Y-51854819D01*
X-305533333Y-51854819D02*
X-305438095Y-51902438D01*
X-305438095Y-51902438D02*
X-305390476Y-51950057D01*
X-305390476Y-51950057D02*
X-305342857Y-52045295D01*
X-305342857Y-52045295D02*
X-305342857Y-52188152D01*
X-305342857Y-52188152D02*
X-305390476Y-52283390D01*
X-305390476Y-52283390D02*
X-305438095Y-52331009D01*
X-305438095Y-52331009D02*
X-305533333Y-52378628D01*
X-305533333Y-52378628D02*
X-305914285Y-52378628D01*
X-304390476Y-52854819D02*
X-304961904Y-52854819D01*
X-304676190Y-52854819D02*
X-304676190Y-51854819D01*
X-304676190Y-51854819D02*
X-304771428Y-51997676D01*
X-304771428Y-51997676D02*
X-304866666Y-52092914D01*
X-304866666Y-52092914D02*
X-304961904Y-52140533D01*
X-303438095Y-52854819D02*
X-304009523Y-52854819D01*
X-303723809Y-52854819D02*
X-303723809Y-51854819D01*
X-303723809Y-51854819D02*
X-303819047Y-51997676D01*
X-303819047Y-51997676D02*
X-303914285Y-52092914D01*
X-303914285Y-52092914D02*
X-304009523Y-52140533D01*
X-298666666Y4545180D02*
X-298999999Y5021371D01*
X-299238094Y4545180D02*
X-299238094Y5545180D01*
X-299238094Y5545180D02*
X-298857142Y5545180D01*
X-298857142Y5545180D02*
X-298761904Y5497561D01*
X-298761904Y5497561D02*
X-298714285Y5449942D01*
X-298714285Y5449942D02*
X-298666666Y5354704D01*
X-298666666Y5354704D02*
X-298666666Y5211847D01*
X-298666666Y5211847D02*
X-298714285Y5116609D01*
X-298714285Y5116609D02*
X-298761904Y5068990D01*
X-298761904Y5068990D02*
X-298857142Y5021371D01*
X-298857142Y5021371D02*
X-299238094Y5021371D01*
X-298333332Y5545180D02*
X-297714285Y5545180D01*
X-297714285Y5545180D02*
X-298047618Y5164228D01*
X-298047618Y5164228D02*
X-297904761Y5164228D01*
X-297904761Y5164228D02*
X-297809523Y5116609D01*
X-297809523Y5116609D02*
X-297761904Y5068990D01*
X-297761904Y5068990D02*
X-297714285Y4973752D01*
X-297714285Y4973752D02*
X-297714285Y4735657D01*
X-297714285Y4735657D02*
X-297761904Y4640419D01*
X-297761904Y4640419D02*
X-297809523Y4592800D01*
X-297809523Y4592800D02*
X-297904761Y4545180D01*
X-297904761Y4545180D02*
X-298190475Y4545180D01*
X-298190475Y4545180D02*
X-298285713Y4592800D01*
X-298285713Y4592800D02*
X-298333332Y4640419D01*
X-278642857Y41245180D02*
X-278976190Y41721371D01*
X-279214285Y41245180D02*
X-279214285Y42245180D01*
X-279214285Y42245180D02*
X-278833333Y42245180D01*
X-278833333Y42245180D02*
X-278738095Y42197561D01*
X-278738095Y42197561D02*
X-278690476Y42149942D01*
X-278690476Y42149942D02*
X-278642857Y42054704D01*
X-278642857Y42054704D02*
X-278642857Y41911847D01*
X-278642857Y41911847D02*
X-278690476Y41816609D01*
X-278690476Y41816609D02*
X-278738095Y41768990D01*
X-278738095Y41768990D02*
X-278833333Y41721371D01*
X-278833333Y41721371D02*
X-279214285Y41721371D01*
X-278261904Y42149942D02*
X-278214285Y42197561D01*
X-278214285Y42197561D02*
X-278119047Y42245180D01*
X-278119047Y42245180D02*
X-277880952Y42245180D01*
X-277880952Y42245180D02*
X-277785714Y42197561D01*
X-277785714Y42197561D02*
X-277738095Y42149942D01*
X-277738095Y42149942D02*
X-277690476Y42054704D01*
X-277690476Y42054704D02*
X-277690476Y41959466D01*
X-277690476Y41959466D02*
X-277738095Y41816609D01*
X-277738095Y41816609D02*
X-278309523Y41245180D01*
X-278309523Y41245180D02*
X-277690476Y41245180D01*
X-276785714Y42245180D02*
X-277261904Y42245180D01*
X-277261904Y42245180D02*
X-277309523Y41768990D01*
X-277309523Y41768990D02*
X-277261904Y41816609D01*
X-277261904Y41816609D02*
X-277166666Y41864228D01*
X-277166666Y41864228D02*
X-276928571Y41864228D01*
X-276928571Y41864228D02*
X-276833333Y41816609D01*
X-276833333Y41816609D02*
X-276785714Y41768990D01*
X-276785714Y41768990D02*
X-276738095Y41673752D01*
X-276738095Y41673752D02*
X-276738095Y41435657D01*
X-276738095Y41435657D02*
X-276785714Y41340419D01*
X-276785714Y41340419D02*
X-276833333Y41292800D01*
X-276833333Y41292800D02*
X-276928571Y41245180D01*
X-276928571Y41245180D02*
X-277166666Y41245180D01*
X-277166666Y41245180D02*
X-277261904Y41292800D01*
X-277261904Y41292800D02*
X-277309523Y41340419D01*
X-284049523Y-61653200D02*
X-283906666Y-61700819D01*
X-283906666Y-61700819D02*
X-283668571Y-61700819D01*
X-283668571Y-61700819D02*
X-283573333Y-61653200D01*
X-283573333Y-61653200D02*
X-283525714Y-61605580D01*
X-283525714Y-61605580D02*
X-283478095Y-61510342D01*
X-283478095Y-61510342D02*
X-283478095Y-61415104D01*
X-283478095Y-61415104D02*
X-283525714Y-61319866D01*
X-283525714Y-61319866D02*
X-283573333Y-61272247D01*
X-283573333Y-61272247D02*
X-283668571Y-61224628D01*
X-283668571Y-61224628D02*
X-283859047Y-61177009D01*
X-283859047Y-61177009D02*
X-283954285Y-61129390D01*
X-283954285Y-61129390D02*
X-284001904Y-61081771D01*
X-284001904Y-61081771D02*
X-284049523Y-60986533D01*
X-284049523Y-60986533D02*
X-284049523Y-60891295D01*
X-284049523Y-60891295D02*
X-284001904Y-60796057D01*
X-284001904Y-60796057D02*
X-283954285Y-60748438D01*
X-283954285Y-60748438D02*
X-283859047Y-60700819D01*
X-283859047Y-60700819D02*
X-283620952Y-60700819D01*
X-283620952Y-60700819D02*
X-283478095Y-60748438D01*
X-283144761Y-60700819D02*
X-282906666Y-61700819D01*
X-282906666Y-61700819D02*
X-282716190Y-60986533D01*
X-282716190Y-60986533D02*
X-282525714Y-61700819D01*
X-282525714Y-61700819D02*
X-282287619Y-60700819D01*
X-281382857Y-61700819D02*
X-281954285Y-61700819D01*
X-281668571Y-61700819D02*
X-281668571Y-60700819D01*
X-281668571Y-60700819D02*
X-281763809Y-60843676D01*
X-281763809Y-60843676D02*
X-281859047Y-60938914D01*
X-281859047Y-60938914D02*
X-281954285Y-60986533D01*
X-281001904Y-60796057D02*
X-280954285Y-60748438D01*
X-280954285Y-60748438D02*
X-280859047Y-60700819D01*
X-280859047Y-60700819D02*
X-280620952Y-60700819D01*
X-280620952Y-60700819D02*
X-280525714Y-60748438D01*
X-280525714Y-60748438D02*
X-280478095Y-60796057D01*
X-280478095Y-60796057D02*
X-280430476Y-60891295D01*
X-280430476Y-60891295D02*
X-280430476Y-60986533D01*
X-280430476Y-60986533D02*
X-280478095Y-61129390D01*
X-280478095Y-61129390D02*
X-281049523Y-61700819D01*
X-281049523Y-61700819D02*
X-280430476Y-61700819D01*
X-275302857Y-51534819D02*
X-275636190Y-51058628D01*
X-275874285Y-51534819D02*
X-275874285Y-50534819D01*
X-275874285Y-50534819D02*
X-275493333Y-50534819D01*
X-275493333Y-50534819D02*
X-275398095Y-50582438D01*
X-275398095Y-50582438D02*
X-275350476Y-50630057D01*
X-275350476Y-50630057D02*
X-275302857Y-50725295D01*
X-275302857Y-50725295D02*
X-275302857Y-50868152D01*
X-275302857Y-50868152D02*
X-275350476Y-50963390D01*
X-275350476Y-50963390D02*
X-275398095Y-51011009D01*
X-275398095Y-51011009D02*
X-275493333Y-51058628D01*
X-275493333Y-51058628D02*
X-275874285Y-51058628D01*
X-274350476Y-51534819D02*
X-274921904Y-51534819D01*
X-274636190Y-51534819D02*
X-274636190Y-50534819D01*
X-274636190Y-50534819D02*
X-274731428Y-50677676D01*
X-274731428Y-50677676D02*
X-274826666Y-50772914D01*
X-274826666Y-50772914D02*
X-274921904Y-50820533D01*
X-273969523Y-50630057D02*
X-273921904Y-50582438D01*
X-273921904Y-50582438D02*
X-273826666Y-50534819D01*
X-273826666Y-50534819D02*
X-273588571Y-50534819D01*
X-273588571Y-50534819D02*
X-273493333Y-50582438D01*
X-273493333Y-50582438D02*
X-273445714Y-50630057D01*
X-273445714Y-50630057D02*
X-273398095Y-50725295D01*
X-273398095Y-50725295D02*
X-273398095Y-50820533D01*
X-273398095Y-50820533D02*
X-273445714Y-50963390D01*
X-273445714Y-50963390D02*
X-274017142Y-51534819D01*
X-274017142Y-51534819D02*
X-273398095Y-51534819D01*
X-365214285Y46145180D02*
X-365214285Y47145180D01*
X-365214285Y47145180D02*
X-364976190Y47145180D01*
X-364976190Y47145180D02*
X-364833333Y47097561D01*
X-364833333Y47097561D02*
X-364738095Y47002323D01*
X-364738095Y47002323D02*
X-364690476Y46907085D01*
X-364690476Y46907085D02*
X-364642857Y46716609D01*
X-364642857Y46716609D02*
X-364642857Y46573752D01*
X-364642857Y46573752D02*
X-364690476Y46383276D01*
X-364690476Y46383276D02*
X-364738095Y46288038D01*
X-364738095Y46288038D02*
X-364833333Y46192800D01*
X-364833333Y46192800D02*
X-364976190Y46145180D01*
X-364976190Y46145180D02*
X-365214285Y46145180D01*
X-364261904Y46192800D02*
X-364119047Y46145180D01*
X-364119047Y46145180D02*
X-363880952Y46145180D01*
X-363880952Y46145180D02*
X-363785714Y46192800D01*
X-363785714Y46192800D02*
X-363738095Y46240419D01*
X-363738095Y46240419D02*
X-363690476Y46335657D01*
X-363690476Y46335657D02*
X-363690476Y46430895D01*
X-363690476Y46430895D02*
X-363738095Y46526133D01*
X-363738095Y46526133D02*
X-363785714Y46573752D01*
X-363785714Y46573752D02*
X-363880952Y46621371D01*
X-363880952Y46621371D02*
X-364071428Y46668990D01*
X-364071428Y46668990D02*
X-364166666Y46716609D01*
X-364166666Y46716609D02*
X-364214285Y46764228D01*
X-364214285Y46764228D02*
X-364261904Y46859466D01*
X-364261904Y46859466D02*
X-364261904Y46954704D01*
X-364261904Y46954704D02*
X-364214285Y47049942D01*
X-364214285Y47049942D02*
X-364166666Y47097561D01*
X-364166666Y47097561D02*
X-364071428Y47145180D01*
X-364071428Y47145180D02*
X-363833333Y47145180D01*
X-363833333Y47145180D02*
X-363690476Y47097561D01*
X-362738095Y46145180D02*
X-363309523Y46145180D01*
X-363023809Y46145180D02*
X-363023809Y47145180D01*
X-363023809Y47145180D02*
X-363119047Y47002323D01*
X-363119047Y47002323D02*
X-363214285Y46907085D01*
X-363214285Y46907085D02*
X-363309523Y46859466D01*
X-343113332Y-2113200D02*
X-342970475Y-2160819D01*
X-342970475Y-2160819D02*
X-342732380Y-2160819D01*
X-342732380Y-2160819D02*
X-342637142Y-2113200D01*
X-342637142Y-2113200D02*
X-342589523Y-2065580D01*
X-342589523Y-2065580D02*
X-342541904Y-1970342D01*
X-342541904Y-1970342D02*
X-342541904Y-1875104D01*
X-342541904Y-1875104D02*
X-342589523Y-1779866D01*
X-342589523Y-1779866D02*
X-342637142Y-1732247D01*
X-342637142Y-1732247D02*
X-342732380Y-1684628D01*
X-342732380Y-1684628D02*
X-342922856Y-1637009D01*
X-342922856Y-1637009D02*
X-343018094Y-1589390D01*
X-343018094Y-1589390D02*
X-343065713Y-1541771D01*
X-343065713Y-1541771D02*
X-343113332Y-1446533D01*
X-343113332Y-1446533D02*
X-343113332Y-1351295D01*
X-343113332Y-1351295D02*
X-343065713Y-1256057D01*
X-343065713Y-1256057D02*
X-343018094Y-1208438D01*
X-343018094Y-1208438D02*
X-342922856Y-1160819D01*
X-342922856Y-1160819D02*
X-342684761Y-1160819D01*
X-342684761Y-1160819D02*
X-342541904Y-1208438D01*
X-342208570Y-1160819D02*
X-341970475Y-2160819D01*
X-341970475Y-2160819D02*
X-341779999Y-1446533D01*
X-341779999Y-1446533D02*
X-341589523Y-2160819D01*
X-341589523Y-2160819D02*
X-341351428Y-1160819D01*
X-341018094Y-1256057D02*
X-340970475Y-1208438D01*
X-340970475Y-1208438D02*
X-340875237Y-1160819D01*
X-340875237Y-1160819D02*
X-340637142Y-1160819D01*
X-340637142Y-1160819D02*
X-340541904Y-1208438D01*
X-340541904Y-1208438D02*
X-340494285Y-1256057D01*
X-340494285Y-1256057D02*
X-340446666Y-1351295D01*
X-340446666Y-1351295D02*
X-340446666Y-1446533D01*
X-340446666Y-1446533D02*
X-340494285Y-1589390D01*
X-340494285Y-1589390D02*
X-341065713Y-2160819D01*
X-341065713Y-2160819D02*
X-340446666Y-2160819D01*
X-283573332Y-2113200D02*
X-283430475Y-2160819D01*
X-283430475Y-2160819D02*
X-283192380Y-2160819D01*
X-283192380Y-2160819D02*
X-283097142Y-2113200D01*
X-283097142Y-2113200D02*
X-283049523Y-2065580D01*
X-283049523Y-2065580D02*
X-283001904Y-1970342D01*
X-283001904Y-1970342D02*
X-283001904Y-1875104D01*
X-283001904Y-1875104D02*
X-283049523Y-1779866D01*
X-283049523Y-1779866D02*
X-283097142Y-1732247D01*
X-283097142Y-1732247D02*
X-283192380Y-1684628D01*
X-283192380Y-1684628D02*
X-283382856Y-1637009D01*
X-283382856Y-1637009D02*
X-283478094Y-1589390D01*
X-283478094Y-1589390D02*
X-283525713Y-1541771D01*
X-283525713Y-1541771D02*
X-283573332Y-1446533D01*
X-283573332Y-1446533D02*
X-283573332Y-1351295D01*
X-283573332Y-1351295D02*
X-283525713Y-1256057D01*
X-283525713Y-1256057D02*
X-283478094Y-1208438D01*
X-283478094Y-1208438D02*
X-283382856Y-1160819D01*
X-283382856Y-1160819D02*
X-283144761Y-1160819D01*
X-283144761Y-1160819D02*
X-283001904Y-1208438D01*
X-282668570Y-1160819D02*
X-282430475Y-2160819D01*
X-282430475Y-2160819D02*
X-282239999Y-1446533D01*
X-282239999Y-1446533D02*
X-282049523Y-2160819D01*
X-282049523Y-2160819D02*
X-281811428Y-1160819D01*
X-281001904Y-1494152D02*
X-281001904Y-2160819D01*
X-281239999Y-1113200D02*
X-281478094Y-1827485D01*
X-281478094Y-1827485D02*
X-280859047Y-1827485D01*
X-343113332Y-31883200D02*
X-342970475Y-31930819D01*
X-342970475Y-31930819D02*
X-342732380Y-31930819D01*
X-342732380Y-31930819D02*
X-342637142Y-31883200D01*
X-342637142Y-31883200D02*
X-342589523Y-31835580D01*
X-342589523Y-31835580D02*
X-342541904Y-31740342D01*
X-342541904Y-31740342D02*
X-342541904Y-31645104D01*
X-342541904Y-31645104D02*
X-342589523Y-31549866D01*
X-342589523Y-31549866D02*
X-342637142Y-31502247D01*
X-342637142Y-31502247D02*
X-342732380Y-31454628D01*
X-342732380Y-31454628D02*
X-342922856Y-31407009D01*
X-342922856Y-31407009D02*
X-343018094Y-31359390D01*
X-343018094Y-31359390D02*
X-343065713Y-31311771D01*
X-343065713Y-31311771D02*
X-343113332Y-31216533D01*
X-343113332Y-31216533D02*
X-343113332Y-31121295D01*
X-343113332Y-31121295D02*
X-343065713Y-31026057D01*
X-343065713Y-31026057D02*
X-343018094Y-30978438D01*
X-343018094Y-30978438D02*
X-342922856Y-30930819D01*
X-342922856Y-30930819D02*
X-342684761Y-30930819D01*
X-342684761Y-30930819D02*
X-342541904Y-30978438D01*
X-342208570Y-30930819D02*
X-341970475Y-31930819D01*
X-341970475Y-31930819D02*
X-341779999Y-31216533D01*
X-341779999Y-31216533D02*
X-341589523Y-31930819D01*
X-341589523Y-31930819D02*
X-341351428Y-30930819D01*
X-340541904Y-30930819D02*
X-340732380Y-30930819D01*
X-340732380Y-30930819D02*
X-340827618Y-30978438D01*
X-340827618Y-30978438D02*
X-340875237Y-31026057D01*
X-340875237Y-31026057D02*
X-340970475Y-31168914D01*
X-340970475Y-31168914D02*
X-341018094Y-31359390D01*
X-341018094Y-31359390D02*
X-341018094Y-31740342D01*
X-341018094Y-31740342D02*
X-340970475Y-31835580D01*
X-340970475Y-31835580D02*
X-340922856Y-31883200D01*
X-340922856Y-31883200D02*
X-340827618Y-31930819D01*
X-340827618Y-31930819D02*
X-340637142Y-31930819D01*
X-340637142Y-31930819D02*
X-340541904Y-31883200D01*
X-340541904Y-31883200D02*
X-340494285Y-31835580D01*
X-340494285Y-31835580D02*
X-340446666Y-31740342D01*
X-340446666Y-31740342D02*
X-340446666Y-31502247D01*
X-340446666Y-31502247D02*
X-340494285Y-31407009D01*
X-340494285Y-31407009D02*
X-340541904Y-31359390D01*
X-340541904Y-31359390D02*
X-340637142Y-31311771D01*
X-340637142Y-31311771D02*
X-340827618Y-31311771D01*
X-340827618Y-31311771D02*
X-340922856Y-31359390D01*
X-340922856Y-31359390D02*
X-340970475Y-31407009D01*
X-340970475Y-31407009D02*
X-341018094Y-31502247D01*
X-313343332Y-2113200D02*
X-313200475Y-2160819D01*
X-313200475Y-2160819D02*
X-312962380Y-2160819D01*
X-312962380Y-2160819D02*
X-312867142Y-2113200D01*
X-312867142Y-2113200D02*
X-312819523Y-2065580D01*
X-312819523Y-2065580D02*
X-312771904Y-1970342D01*
X-312771904Y-1970342D02*
X-312771904Y-1875104D01*
X-312771904Y-1875104D02*
X-312819523Y-1779866D01*
X-312819523Y-1779866D02*
X-312867142Y-1732247D01*
X-312867142Y-1732247D02*
X-312962380Y-1684628D01*
X-312962380Y-1684628D02*
X-313152856Y-1637009D01*
X-313152856Y-1637009D02*
X-313248094Y-1589390D01*
X-313248094Y-1589390D02*
X-313295713Y-1541771D01*
X-313295713Y-1541771D02*
X-313343332Y-1446533D01*
X-313343332Y-1446533D02*
X-313343332Y-1351295D01*
X-313343332Y-1351295D02*
X-313295713Y-1256057D01*
X-313295713Y-1256057D02*
X-313248094Y-1208438D01*
X-313248094Y-1208438D02*
X-313152856Y-1160819D01*
X-313152856Y-1160819D02*
X-312914761Y-1160819D01*
X-312914761Y-1160819D02*
X-312771904Y-1208438D01*
X-312438570Y-1160819D02*
X-312200475Y-2160819D01*
X-312200475Y-2160819D02*
X-312009999Y-1446533D01*
X-312009999Y-1446533D02*
X-311819523Y-2160819D01*
X-311819523Y-2160819D02*
X-311581428Y-1160819D01*
X-311295713Y-1160819D02*
X-310676666Y-1160819D01*
X-310676666Y-1160819D02*
X-311009999Y-1541771D01*
X-311009999Y-1541771D02*
X-310867142Y-1541771D01*
X-310867142Y-1541771D02*
X-310771904Y-1589390D01*
X-310771904Y-1589390D02*
X-310724285Y-1637009D01*
X-310724285Y-1637009D02*
X-310676666Y-1732247D01*
X-310676666Y-1732247D02*
X-310676666Y-1970342D01*
X-310676666Y-1970342D02*
X-310724285Y-2065580D01*
X-310724285Y-2065580D02*
X-310771904Y-2113200D01*
X-310771904Y-2113200D02*
X-310867142Y-2160819D01*
X-310867142Y-2160819D02*
X-311152856Y-2160819D01*
X-311152856Y-2160819D02*
X-311248094Y-2113200D01*
X-311248094Y-2113200D02*
X-311295713Y-2065580D01*
X-283436285Y-51729819D02*
X-283436285Y-50729819D01*
X-283436285Y-50729819D02*
X-283198190Y-50729819D01*
X-283198190Y-50729819D02*
X-283055333Y-50777438D01*
X-283055333Y-50777438D02*
X-282960095Y-50872676D01*
X-282960095Y-50872676D02*
X-282912476Y-50967914D01*
X-282912476Y-50967914D02*
X-282864857Y-51158390D01*
X-282864857Y-51158390D02*
X-282864857Y-51301247D01*
X-282864857Y-51301247D02*
X-282912476Y-51491723D01*
X-282912476Y-51491723D02*
X-282960095Y-51586961D01*
X-282960095Y-51586961D02*
X-283055333Y-51682200D01*
X-283055333Y-51682200D02*
X-283198190Y-51729819D01*
X-283198190Y-51729819D02*
X-283436285Y-51729819D01*
X-281912476Y-51729819D02*
X-282483904Y-51729819D01*
X-282198190Y-51729819D02*
X-282198190Y-50729819D01*
X-282198190Y-50729819D02*
X-282293428Y-50872676D01*
X-282293428Y-50872676D02*
X-282388666Y-50967914D01*
X-282388666Y-50967914D02*
X-282483904Y-51015533D01*
X-281531523Y-50825057D02*
X-281483904Y-50777438D01*
X-281483904Y-50777438D02*
X-281388666Y-50729819D01*
X-281388666Y-50729819D02*
X-281150571Y-50729819D01*
X-281150571Y-50729819D02*
X-281055333Y-50777438D01*
X-281055333Y-50777438D02*
X-281007714Y-50825057D01*
X-281007714Y-50825057D02*
X-280960095Y-50920295D01*
X-280960095Y-50920295D02*
X-280960095Y-51015533D01*
X-280960095Y-51015533D02*
X-281007714Y-51158390D01*
X-281007714Y-51158390D02*
X-281579142Y-51729819D01*
X-281579142Y-51729819D02*
X-280960095Y-51729819D01*
X-245761904Y12345180D02*
X-245761904Y11535657D01*
X-245761904Y11535657D02*
X-245714285Y11440419D01*
X-245714285Y11440419D02*
X-245666666Y11392800D01*
X-245666666Y11392800D02*
X-245571428Y11345180D01*
X-245571428Y11345180D02*
X-245380952Y11345180D01*
X-245380952Y11345180D02*
X-245285714Y11392800D01*
X-245285714Y11392800D02*
X-245238095Y11440419D01*
X-245238095Y11440419D02*
X-245190476Y11535657D01*
X-245190476Y11535657D02*
X-245190476Y12345180D01*
X-244190476Y11345180D02*
X-244761904Y11345180D01*
X-244476190Y11345180D02*
X-244476190Y12345180D01*
X-244476190Y12345180D02*
X-244571428Y12202323D01*
X-244571428Y12202323D02*
X-244666666Y12107085D01*
X-244666666Y12107085D02*
X-244761904Y12059466D01*
X-346238094Y5545180D02*
X-346238094Y6545180D01*
X-346238094Y6545180D02*
X-345999999Y6545180D01*
X-345999999Y6545180D02*
X-345857142Y6497561D01*
X-345857142Y6497561D02*
X-345761904Y6402323D01*
X-345761904Y6402323D02*
X-345714285Y6307085D01*
X-345714285Y6307085D02*
X-345666666Y6116609D01*
X-345666666Y6116609D02*
X-345666666Y5973752D01*
X-345666666Y5973752D02*
X-345714285Y5783276D01*
X-345714285Y5783276D02*
X-345761904Y5688038D01*
X-345761904Y5688038D02*
X-345857142Y5592800D01*
X-345857142Y5592800D02*
X-345999999Y5545180D01*
X-345999999Y5545180D02*
X-346238094Y5545180D01*
X-345285713Y6449942D02*
X-345238094Y6497561D01*
X-345238094Y6497561D02*
X-345142856Y6545180D01*
X-345142856Y6545180D02*
X-344904761Y6545180D01*
X-344904761Y6545180D02*
X-344809523Y6497561D01*
X-344809523Y6497561D02*
X-344761904Y6449942D01*
X-344761904Y6449942D02*
X-344714285Y6354704D01*
X-344714285Y6354704D02*
X-344714285Y6259466D01*
X-344714285Y6259466D02*
X-344761904Y6116609D01*
X-344761904Y6116609D02*
X-345333332Y5545180D01*
X-345333332Y5545180D02*
X-344714285Y5545180D01*
X-372883332Y-2113200D02*
X-372740475Y-2160819D01*
X-372740475Y-2160819D02*
X-372502380Y-2160819D01*
X-372502380Y-2160819D02*
X-372407142Y-2113200D01*
X-372407142Y-2113200D02*
X-372359523Y-2065580D01*
X-372359523Y-2065580D02*
X-372311904Y-1970342D01*
X-372311904Y-1970342D02*
X-372311904Y-1875104D01*
X-372311904Y-1875104D02*
X-372359523Y-1779866D01*
X-372359523Y-1779866D02*
X-372407142Y-1732247D01*
X-372407142Y-1732247D02*
X-372502380Y-1684628D01*
X-372502380Y-1684628D02*
X-372692856Y-1637009D01*
X-372692856Y-1637009D02*
X-372788094Y-1589390D01*
X-372788094Y-1589390D02*
X-372835713Y-1541771D01*
X-372835713Y-1541771D02*
X-372883332Y-1446533D01*
X-372883332Y-1446533D02*
X-372883332Y-1351295D01*
X-372883332Y-1351295D02*
X-372835713Y-1256057D01*
X-372835713Y-1256057D02*
X-372788094Y-1208438D01*
X-372788094Y-1208438D02*
X-372692856Y-1160819D01*
X-372692856Y-1160819D02*
X-372454761Y-1160819D01*
X-372454761Y-1160819D02*
X-372311904Y-1208438D01*
X-371978570Y-1160819D02*
X-371740475Y-2160819D01*
X-371740475Y-2160819D02*
X-371549999Y-1446533D01*
X-371549999Y-1446533D02*
X-371359523Y-2160819D01*
X-371359523Y-2160819D02*
X-371121428Y-1160819D01*
X-370216666Y-2160819D02*
X-370788094Y-2160819D01*
X-370502380Y-2160819D02*
X-370502380Y-1160819D01*
X-370502380Y-1160819D02*
X-370597618Y-1303676D01*
X-370597618Y-1303676D02*
X-370692856Y-1398914D01*
X-370692856Y-1398914D02*
X-370788094Y-1446533D01*
X-317238094Y5545180D02*
X-317238094Y6545180D01*
X-317238094Y6545180D02*
X-316999999Y6545180D01*
X-316999999Y6545180D02*
X-316857142Y6497561D01*
X-316857142Y6497561D02*
X-316761904Y6402323D01*
X-316761904Y6402323D02*
X-316714285Y6307085D01*
X-316714285Y6307085D02*
X-316666666Y6116609D01*
X-316666666Y6116609D02*
X-316666666Y5973752D01*
X-316666666Y5973752D02*
X-316714285Y5783276D01*
X-316714285Y5783276D02*
X-316761904Y5688038D01*
X-316761904Y5688038D02*
X-316857142Y5592800D01*
X-316857142Y5592800D02*
X-316999999Y5545180D01*
X-316999999Y5545180D02*
X-317238094Y5545180D01*
X-316333332Y6545180D02*
X-315714285Y6545180D01*
X-315714285Y6545180D02*
X-316047618Y6164228D01*
X-316047618Y6164228D02*
X-315904761Y6164228D01*
X-315904761Y6164228D02*
X-315809523Y6116609D01*
X-315809523Y6116609D02*
X-315761904Y6068990D01*
X-315761904Y6068990D02*
X-315714285Y5973752D01*
X-315714285Y5973752D02*
X-315714285Y5735657D01*
X-315714285Y5735657D02*
X-315761904Y5640419D01*
X-315761904Y5640419D02*
X-315809523Y5592800D01*
X-315809523Y5592800D02*
X-315904761Y5545180D01*
X-315904761Y5545180D02*
X-316190475Y5545180D01*
X-316190475Y5545180D02*
X-316285713Y5592800D01*
X-316285713Y5592800D02*
X-316333332Y5640419D01*
X-283573332Y-31883200D02*
X-283430475Y-31930819D01*
X-283430475Y-31930819D02*
X-283192380Y-31930819D01*
X-283192380Y-31930819D02*
X-283097142Y-31883200D01*
X-283097142Y-31883200D02*
X-283049523Y-31835580D01*
X-283049523Y-31835580D02*
X-283001904Y-31740342D01*
X-283001904Y-31740342D02*
X-283001904Y-31645104D01*
X-283001904Y-31645104D02*
X-283049523Y-31549866D01*
X-283049523Y-31549866D02*
X-283097142Y-31502247D01*
X-283097142Y-31502247D02*
X-283192380Y-31454628D01*
X-283192380Y-31454628D02*
X-283382856Y-31407009D01*
X-283382856Y-31407009D02*
X-283478094Y-31359390D01*
X-283478094Y-31359390D02*
X-283525713Y-31311771D01*
X-283525713Y-31311771D02*
X-283573332Y-31216533D01*
X-283573332Y-31216533D02*
X-283573332Y-31121295D01*
X-283573332Y-31121295D02*
X-283525713Y-31026057D01*
X-283525713Y-31026057D02*
X-283478094Y-30978438D01*
X-283478094Y-30978438D02*
X-283382856Y-30930819D01*
X-283382856Y-30930819D02*
X-283144761Y-30930819D01*
X-283144761Y-30930819D02*
X-283001904Y-30978438D01*
X-282668570Y-30930819D02*
X-282430475Y-31930819D01*
X-282430475Y-31930819D02*
X-282239999Y-31216533D01*
X-282239999Y-31216533D02*
X-282049523Y-31930819D01*
X-282049523Y-31930819D02*
X-281811428Y-30930819D01*
X-281287618Y-31359390D02*
X-281382856Y-31311771D01*
X-281382856Y-31311771D02*
X-281430475Y-31264152D01*
X-281430475Y-31264152D02*
X-281478094Y-31168914D01*
X-281478094Y-31168914D02*
X-281478094Y-31121295D01*
X-281478094Y-31121295D02*
X-281430475Y-31026057D01*
X-281430475Y-31026057D02*
X-281382856Y-30978438D01*
X-281382856Y-30978438D02*
X-281287618Y-30930819D01*
X-281287618Y-30930819D02*
X-281097142Y-30930819D01*
X-281097142Y-30930819D02*
X-281001904Y-30978438D01*
X-281001904Y-30978438D02*
X-280954285Y-31026057D01*
X-280954285Y-31026057D02*
X-280906666Y-31121295D01*
X-280906666Y-31121295D02*
X-280906666Y-31168914D01*
X-280906666Y-31168914D02*
X-280954285Y-31264152D01*
X-280954285Y-31264152D02*
X-281001904Y-31311771D01*
X-281001904Y-31311771D02*
X-281097142Y-31359390D01*
X-281097142Y-31359390D02*
X-281287618Y-31359390D01*
X-281287618Y-31359390D02*
X-281382856Y-31407009D01*
X-281382856Y-31407009D02*
X-281430475Y-31454628D01*
X-281430475Y-31454628D02*
X-281478094Y-31549866D01*
X-281478094Y-31549866D02*
X-281478094Y-31740342D01*
X-281478094Y-31740342D02*
X-281430475Y-31835580D01*
X-281430475Y-31835580D02*
X-281382856Y-31883200D01*
X-281382856Y-31883200D02*
X-281287618Y-31930819D01*
X-281287618Y-31930819D02*
X-281097142Y-31930819D01*
X-281097142Y-31930819D02*
X-281001904Y-31883200D01*
X-281001904Y-31883200D02*
X-280954285Y-31835580D01*
X-280954285Y-31835580D02*
X-280906666Y-31740342D01*
X-280906666Y-31740342D02*
X-280906666Y-31549866D01*
X-280906666Y-31549866D02*
X-280954285Y-31454628D01*
X-280954285Y-31454628D02*
X-281001904Y-31407009D01*
X-281001904Y-31407009D02*
X-281097142Y-31359390D01*
X-334542857Y-52754819D02*
X-334876190Y-52278628D01*
X-335114285Y-52754819D02*
X-335114285Y-51754819D01*
X-335114285Y-51754819D02*
X-334733333Y-51754819D01*
X-334733333Y-51754819D02*
X-334638095Y-51802438D01*
X-334638095Y-51802438D02*
X-334590476Y-51850057D01*
X-334590476Y-51850057D02*
X-334542857Y-51945295D01*
X-334542857Y-51945295D02*
X-334542857Y-52088152D01*
X-334542857Y-52088152D02*
X-334590476Y-52183390D01*
X-334590476Y-52183390D02*
X-334638095Y-52231009D01*
X-334638095Y-52231009D02*
X-334733333Y-52278628D01*
X-334733333Y-52278628D02*
X-335114285Y-52278628D01*
X-333590476Y-52754819D02*
X-334161904Y-52754819D01*
X-333876190Y-52754819D02*
X-333876190Y-51754819D01*
X-333876190Y-51754819D02*
X-333971428Y-51897676D01*
X-333971428Y-51897676D02*
X-334066666Y-51992914D01*
X-334066666Y-51992914D02*
X-334161904Y-52040533D01*
X-332971428Y-51754819D02*
X-332876190Y-51754819D01*
X-332876190Y-51754819D02*
X-332780952Y-51802438D01*
X-332780952Y-51802438D02*
X-332733333Y-51850057D01*
X-332733333Y-51850057D02*
X-332685714Y-51945295D01*
X-332685714Y-51945295D02*
X-332638095Y-52135771D01*
X-332638095Y-52135771D02*
X-332638095Y-52373866D01*
X-332638095Y-52373866D02*
X-332685714Y-52564342D01*
X-332685714Y-52564342D02*
X-332733333Y-52659580D01*
X-332733333Y-52659580D02*
X-332780952Y-52707200D01*
X-332780952Y-52707200D02*
X-332876190Y-52754819D01*
X-332876190Y-52754819D02*
X-332971428Y-52754819D01*
X-332971428Y-52754819D02*
X-333066666Y-52707200D01*
X-333066666Y-52707200D02*
X-333114285Y-52659580D01*
X-333114285Y-52659580D02*
X-333161904Y-52564342D01*
X-333161904Y-52564342D02*
X-333209523Y-52373866D01*
X-333209523Y-52373866D02*
X-333209523Y-52135771D01*
X-333209523Y-52135771D02*
X-333161904Y-51945295D01*
X-333161904Y-51945295D02*
X-333114285Y-51850057D01*
X-333114285Y-51850057D02*
X-333066666Y-51802438D01*
X-333066666Y-51802438D02*
X-332971428Y-51754819D01*
X-333236666Y6815180D02*
X-333569999Y7291371D01*
X-333808094Y6815180D02*
X-333808094Y7815180D01*
X-333808094Y7815180D02*
X-333427142Y7815180D01*
X-333427142Y7815180D02*
X-333331904Y7767561D01*
X-333331904Y7767561D02*
X-333284285Y7719942D01*
X-333284285Y7719942D02*
X-333236666Y7624704D01*
X-333236666Y7624704D02*
X-333236666Y7481847D01*
X-333236666Y7481847D02*
X-333284285Y7386609D01*
X-333284285Y7386609D02*
X-333331904Y7338990D01*
X-333331904Y7338990D02*
X-333427142Y7291371D01*
X-333427142Y7291371D02*
X-333808094Y7291371D01*
X-332855713Y7719942D02*
X-332808094Y7767561D01*
X-332808094Y7767561D02*
X-332712856Y7815180D01*
X-332712856Y7815180D02*
X-332474761Y7815180D01*
X-332474761Y7815180D02*
X-332379523Y7767561D01*
X-332379523Y7767561D02*
X-332331904Y7719942D01*
X-332331904Y7719942D02*
X-332284285Y7624704D01*
X-332284285Y7624704D02*
X-332284285Y7529466D01*
X-332284285Y7529466D02*
X-332331904Y7386609D01*
X-332331904Y7386609D02*
X-332903332Y6815180D01*
X-332903332Y6815180D02*
X-332284285Y6815180D01*
X-372883332Y-31883200D02*
X-372740475Y-31930819D01*
X-372740475Y-31930819D02*
X-372502380Y-31930819D01*
X-372502380Y-31930819D02*
X-372407142Y-31883200D01*
X-372407142Y-31883200D02*
X-372359523Y-31835580D01*
X-372359523Y-31835580D02*
X-372311904Y-31740342D01*
X-372311904Y-31740342D02*
X-372311904Y-31645104D01*
X-372311904Y-31645104D02*
X-372359523Y-31549866D01*
X-372359523Y-31549866D02*
X-372407142Y-31502247D01*
X-372407142Y-31502247D02*
X-372502380Y-31454628D01*
X-372502380Y-31454628D02*
X-372692856Y-31407009D01*
X-372692856Y-31407009D02*
X-372788094Y-31359390D01*
X-372788094Y-31359390D02*
X-372835713Y-31311771D01*
X-372835713Y-31311771D02*
X-372883332Y-31216533D01*
X-372883332Y-31216533D02*
X-372883332Y-31121295D01*
X-372883332Y-31121295D02*
X-372835713Y-31026057D01*
X-372835713Y-31026057D02*
X-372788094Y-30978438D01*
X-372788094Y-30978438D02*
X-372692856Y-30930819D01*
X-372692856Y-30930819D02*
X-372454761Y-30930819D01*
X-372454761Y-30930819D02*
X-372311904Y-30978438D01*
X-371978570Y-30930819D02*
X-371740475Y-31930819D01*
X-371740475Y-31930819D02*
X-371549999Y-31216533D01*
X-371549999Y-31216533D02*
X-371359523Y-31930819D01*
X-371359523Y-31930819D02*
X-371121428Y-30930819D01*
X-370264285Y-30930819D02*
X-370740475Y-30930819D01*
X-370740475Y-30930819D02*
X-370788094Y-31407009D01*
X-370788094Y-31407009D02*
X-370740475Y-31359390D01*
X-370740475Y-31359390D02*
X-370645237Y-31311771D01*
X-370645237Y-31311771D02*
X-370407142Y-31311771D01*
X-370407142Y-31311771D02*
X-370311904Y-31359390D01*
X-370311904Y-31359390D02*
X-370264285Y-31407009D01*
X-370264285Y-31407009D02*
X-370216666Y-31502247D01*
X-370216666Y-31502247D02*
X-370216666Y-31740342D01*
X-370216666Y-31740342D02*
X-370264285Y-31835580D01*
X-370264285Y-31835580D02*
X-370311904Y-31883200D01*
X-370311904Y-31883200D02*
X-370407142Y-31930819D01*
X-370407142Y-31930819D02*
X-370645237Y-31930819D01*
X-370645237Y-31930819D02*
X-370740475Y-31883200D01*
X-370740475Y-31883200D02*
X-370788094Y-31835580D01*
X-286738094Y4545180D02*
X-286738094Y5545180D01*
X-286738094Y5545180D02*
X-286499999Y5545180D01*
X-286499999Y5545180D02*
X-286357142Y5497561D01*
X-286357142Y5497561D02*
X-286261904Y5402323D01*
X-286261904Y5402323D02*
X-286214285Y5307085D01*
X-286214285Y5307085D02*
X-286166666Y5116609D01*
X-286166666Y5116609D02*
X-286166666Y4973752D01*
X-286166666Y4973752D02*
X-286214285Y4783276D01*
X-286214285Y4783276D02*
X-286261904Y4688038D01*
X-286261904Y4688038D02*
X-286357142Y4592800D01*
X-286357142Y4592800D02*
X-286499999Y4545180D01*
X-286499999Y4545180D02*
X-286738094Y4545180D01*
X-285309523Y5211847D02*
X-285309523Y4545180D01*
X-285547618Y5592800D02*
X-285785713Y4878514D01*
X-285785713Y4878514D02*
X-285166666Y4878514D01*
X-334166666Y-22974819D02*
X-334499999Y-22498628D01*
X-334738094Y-22974819D02*
X-334738094Y-21974819D01*
X-334738094Y-21974819D02*
X-334357142Y-21974819D01*
X-334357142Y-21974819D02*
X-334261904Y-22022438D01*
X-334261904Y-22022438D02*
X-334214285Y-22070057D01*
X-334214285Y-22070057D02*
X-334166666Y-22165295D01*
X-334166666Y-22165295D02*
X-334166666Y-22308152D01*
X-334166666Y-22308152D02*
X-334214285Y-22403390D01*
X-334214285Y-22403390D02*
X-334261904Y-22451009D01*
X-334261904Y-22451009D02*
X-334357142Y-22498628D01*
X-334357142Y-22498628D02*
X-334738094Y-22498628D01*
X-333309523Y-21974819D02*
X-333499999Y-21974819D01*
X-333499999Y-21974819D02*
X-333595237Y-22022438D01*
X-333595237Y-22022438D02*
X-333642856Y-22070057D01*
X-333642856Y-22070057D02*
X-333738094Y-22212914D01*
X-333738094Y-22212914D02*
X-333785713Y-22403390D01*
X-333785713Y-22403390D02*
X-333785713Y-22784342D01*
X-333785713Y-22784342D02*
X-333738094Y-22879580D01*
X-333738094Y-22879580D02*
X-333690475Y-22927200D01*
X-333690475Y-22927200D02*
X-333595237Y-22974819D01*
X-333595237Y-22974819D02*
X-333404761Y-22974819D01*
X-333404761Y-22974819D02*
X-333309523Y-22927200D01*
X-333309523Y-22927200D02*
X-333261904Y-22879580D01*
X-333261904Y-22879580D02*
X-333214285Y-22784342D01*
X-333214285Y-22784342D02*
X-333214285Y-22546247D01*
X-333214285Y-22546247D02*
X-333261904Y-22451009D01*
X-333261904Y-22451009D02*
X-333309523Y-22403390D01*
X-333309523Y-22403390D02*
X-333404761Y-22355771D01*
X-333404761Y-22355771D02*
X-333595237Y-22355771D01*
X-333595237Y-22355771D02*
X-333690475Y-22403390D01*
X-333690475Y-22403390D02*
X-333738094Y-22451009D01*
X-333738094Y-22451009D02*
X-333785713Y-22546247D01*
X-313206285Y-51729819D02*
X-313206285Y-50729819D01*
X-313206285Y-50729819D02*
X-312968190Y-50729819D01*
X-312968190Y-50729819D02*
X-312825333Y-50777438D01*
X-312825333Y-50777438D02*
X-312730095Y-50872676D01*
X-312730095Y-50872676D02*
X-312682476Y-50967914D01*
X-312682476Y-50967914D02*
X-312634857Y-51158390D01*
X-312634857Y-51158390D02*
X-312634857Y-51301247D01*
X-312634857Y-51301247D02*
X-312682476Y-51491723D01*
X-312682476Y-51491723D02*
X-312730095Y-51586961D01*
X-312730095Y-51586961D02*
X-312825333Y-51682200D01*
X-312825333Y-51682200D02*
X-312968190Y-51729819D01*
X-312968190Y-51729819D02*
X-313206285Y-51729819D01*
X-311682476Y-51729819D02*
X-312253904Y-51729819D01*
X-311968190Y-51729819D02*
X-311968190Y-50729819D01*
X-311968190Y-50729819D02*
X-312063428Y-50872676D01*
X-312063428Y-50872676D02*
X-312158666Y-50967914D01*
X-312158666Y-50967914D02*
X-312253904Y-51015533D01*
X-310730095Y-51729819D02*
X-311301523Y-51729819D01*
X-311015809Y-51729819D02*
X-311015809Y-50729819D01*
X-311015809Y-50729819D02*
X-311111047Y-50872676D01*
X-311111047Y-50872676D02*
X-311206285Y-50967914D01*
X-311206285Y-50967914D02*
X-311301523Y-51015533D01*
X-362856666Y-52794819D02*
X-363189999Y-52318628D01*
X-363428094Y-52794819D02*
X-363428094Y-51794819D01*
X-363428094Y-51794819D02*
X-363047142Y-51794819D01*
X-363047142Y-51794819D02*
X-362951904Y-51842438D01*
X-362951904Y-51842438D02*
X-362904285Y-51890057D01*
X-362904285Y-51890057D02*
X-362856666Y-51985295D01*
X-362856666Y-51985295D02*
X-362856666Y-52128152D01*
X-362856666Y-52128152D02*
X-362904285Y-52223390D01*
X-362904285Y-52223390D02*
X-362951904Y-52271009D01*
X-362951904Y-52271009D02*
X-363047142Y-52318628D01*
X-363047142Y-52318628D02*
X-363428094Y-52318628D01*
X-362380475Y-52794819D02*
X-362189999Y-52794819D01*
X-362189999Y-52794819D02*
X-362094761Y-52747200D01*
X-362094761Y-52747200D02*
X-362047142Y-52699580D01*
X-362047142Y-52699580D02*
X-361951904Y-52556723D01*
X-361951904Y-52556723D02*
X-361904285Y-52366247D01*
X-361904285Y-52366247D02*
X-361904285Y-51985295D01*
X-361904285Y-51985295D02*
X-361951904Y-51890057D01*
X-361951904Y-51890057D02*
X-361999523Y-51842438D01*
X-361999523Y-51842438D02*
X-362094761Y-51794819D01*
X-362094761Y-51794819D02*
X-362285237Y-51794819D01*
X-362285237Y-51794819D02*
X-362380475Y-51842438D01*
X-362380475Y-51842438D02*
X-362428094Y-51890057D01*
X-362428094Y-51890057D02*
X-362475713Y-51985295D01*
X-362475713Y-51985295D02*
X-362475713Y-52223390D01*
X-362475713Y-52223390D02*
X-362428094Y-52318628D01*
X-362428094Y-52318628D02*
X-362380475Y-52366247D01*
X-362380475Y-52366247D02*
X-362285237Y-52413866D01*
X-362285237Y-52413866D02*
X-362094761Y-52413866D01*
X-362094761Y-52413866D02*
X-361999523Y-52366247D01*
X-361999523Y-52366247D02*
X-361951904Y-52318628D01*
X-361951904Y-52318628D02*
X-361904285Y-52223390D01*
X-279238094Y-23954819D02*
X-279238094Y-22954819D01*
X-279238094Y-22954819D02*
X-278999999Y-22954819D01*
X-278999999Y-22954819D02*
X-278857142Y-23002438D01*
X-278857142Y-23002438D02*
X-278761904Y-23097676D01*
X-278761904Y-23097676D02*
X-278714285Y-23192914D01*
X-278714285Y-23192914D02*
X-278666666Y-23383390D01*
X-278666666Y-23383390D02*
X-278666666Y-23526247D01*
X-278666666Y-23526247D02*
X-278714285Y-23716723D01*
X-278714285Y-23716723D02*
X-278761904Y-23811961D01*
X-278761904Y-23811961D02*
X-278857142Y-23907200D01*
X-278857142Y-23907200D02*
X-278999999Y-23954819D01*
X-278999999Y-23954819D02*
X-279238094Y-23954819D01*
X-278095237Y-23383390D02*
X-278190475Y-23335771D01*
X-278190475Y-23335771D02*
X-278238094Y-23288152D01*
X-278238094Y-23288152D02*
X-278285713Y-23192914D01*
X-278285713Y-23192914D02*
X-278285713Y-23145295D01*
X-278285713Y-23145295D02*
X-278238094Y-23050057D01*
X-278238094Y-23050057D02*
X-278190475Y-23002438D01*
X-278190475Y-23002438D02*
X-278095237Y-22954819D01*
X-278095237Y-22954819D02*
X-277904761Y-22954819D01*
X-277904761Y-22954819D02*
X-277809523Y-23002438D01*
X-277809523Y-23002438D02*
X-277761904Y-23050057D01*
X-277761904Y-23050057D02*
X-277714285Y-23145295D01*
X-277714285Y-23145295D02*
X-277714285Y-23192914D01*
X-277714285Y-23192914D02*
X-277761904Y-23288152D01*
X-277761904Y-23288152D02*
X-277809523Y-23335771D01*
X-277809523Y-23335771D02*
X-277904761Y-23383390D01*
X-277904761Y-23383390D02*
X-278095237Y-23383390D01*
X-278095237Y-23383390D02*
X-278190475Y-23431009D01*
X-278190475Y-23431009D02*
X-278238094Y-23478628D01*
X-278238094Y-23478628D02*
X-278285713Y-23573866D01*
X-278285713Y-23573866D02*
X-278285713Y-23764342D01*
X-278285713Y-23764342D02*
X-278238094Y-23859580D01*
X-278238094Y-23859580D02*
X-278190475Y-23907200D01*
X-278190475Y-23907200D02*
X-278095237Y-23954819D01*
X-278095237Y-23954819D02*
X-277904761Y-23954819D01*
X-277904761Y-23954819D02*
X-277809523Y-23907200D01*
X-277809523Y-23907200D02*
X-277761904Y-23859580D01*
X-277761904Y-23859580D02*
X-277714285Y-23764342D01*
X-277714285Y-23764342D02*
X-277714285Y-23573866D01*
X-277714285Y-23573866D02*
X-277761904Y-23478628D01*
X-277761904Y-23478628D02*
X-277809523Y-23431009D01*
X-277809523Y-23431009D02*
X-277904761Y-23383390D01*
X-253934285Y-35699104D02*
X-253458095Y-35699104D01*
X-254029523Y-35984819D02*
X-253696190Y-34984819D01*
X-253696190Y-34984819D02*
X-253362857Y-35984819D01*
X-252505714Y-35984819D02*
X-253077142Y-35984819D01*
X-252791428Y-35984819D02*
X-252791428Y-34984819D01*
X-252791428Y-34984819D02*
X-252886666Y-35127676D01*
X-252886666Y-35127676D02*
X-252981904Y-35222914D01*
X-252981904Y-35222914D02*
X-253077142Y-35270533D01*
X-254481904Y-75624819D02*
X-254481904Y-76434342D01*
X-254481904Y-76434342D02*
X-254434285Y-76529580D01*
X-254434285Y-76529580D02*
X-254386666Y-76577200D01*
X-254386666Y-76577200D02*
X-254291428Y-76624819D01*
X-254291428Y-76624819D02*
X-254100952Y-76624819D01*
X-254100952Y-76624819D02*
X-254005714Y-76577200D01*
X-254005714Y-76577200D02*
X-253958095Y-76529580D01*
X-253958095Y-76529580D02*
X-253910476Y-76434342D01*
X-253910476Y-76434342D02*
X-253910476Y-75624819D01*
X-253481904Y-76577200D02*
X-253339047Y-76624819D01*
X-253339047Y-76624819D02*
X-253100952Y-76624819D01*
X-253100952Y-76624819D02*
X-253005714Y-76577200D01*
X-253005714Y-76577200D02*
X-252958095Y-76529580D01*
X-252958095Y-76529580D02*
X-252910476Y-76434342D01*
X-252910476Y-76434342D02*
X-252910476Y-76339104D01*
X-252910476Y-76339104D02*
X-252958095Y-76243866D01*
X-252958095Y-76243866D02*
X-253005714Y-76196247D01*
X-253005714Y-76196247D02*
X-253100952Y-76148628D01*
X-253100952Y-76148628D02*
X-253291428Y-76101009D01*
X-253291428Y-76101009D02*
X-253386666Y-76053390D01*
X-253386666Y-76053390D02*
X-253434285Y-76005771D01*
X-253434285Y-76005771D02*
X-253481904Y-75910533D01*
X-253481904Y-75910533D02*
X-253481904Y-75815295D01*
X-253481904Y-75815295D02*
X-253434285Y-75720057D01*
X-253434285Y-75720057D02*
X-253386666Y-75672438D01*
X-253386666Y-75672438D02*
X-253291428Y-75624819D01*
X-253291428Y-75624819D02*
X-253053333Y-75624819D01*
X-253053333Y-75624819D02*
X-252910476Y-75672438D01*
X-252148571Y-76101009D02*
X-252005714Y-76148628D01*
X-252005714Y-76148628D02*
X-251958095Y-76196247D01*
X-251958095Y-76196247D02*
X-251910476Y-76291485D01*
X-251910476Y-76291485D02*
X-251910476Y-76434342D01*
X-251910476Y-76434342D02*
X-251958095Y-76529580D01*
X-251958095Y-76529580D02*
X-252005714Y-76577200D01*
X-252005714Y-76577200D02*
X-252100952Y-76624819D01*
X-252100952Y-76624819D02*
X-252481904Y-76624819D01*
X-252481904Y-76624819D02*
X-252481904Y-75624819D01*
X-252481904Y-75624819D02*
X-252148571Y-75624819D01*
X-252148571Y-75624819D02*
X-252053333Y-75672438D01*
X-252053333Y-75672438D02*
X-252005714Y-75720057D01*
X-252005714Y-75720057D02*
X-251958095Y-75815295D01*
X-251958095Y-75815295D02*
X-251958095Y-75910533D01*
X-251958095Y-75910533D02*
X-252005714Y-76005771D01*
X-252005714Y-76005771D02*
X-252053333Y-76053390D01*
X-252053333Y-76053390D02*
X-252148571Y-76101009D01*
X-252148571Y-76101009D02*
X-252481904Y-76101009D01*
X-313343332Y-31883200D02*
X-313200475Y-31930819D01*
X-313200475Y-31930819D02*
X-312962380Y-31930819D01*
X-312962380Y-31930819D02*
X-312867142Y-31883200D01*
X-312867142Y-31883200D02*
X-312819523Y-31835580D01*
X-312819523Y-31835580D02*
X-312771904Y-31740342D01*
X-312771904Y-31740342D02*
X-312771904Y-31645104D01*
X-312771904Y-31645104D02*
X-312819523Y-31549866D01*
X-312819523Y-31549866D02*
X-312867142Y-31502247D01*
X-312867142Y-31502247D02*
X-312962380Y-31454628D01*
X-312962380Y-31454628D02*
X-313152856Y-31407009D01*
X-313152856Y-31407009D02*
X-313248094Y-31359390D01*
X-313248094Y-31359390D02*
X-313295713Y-31311771D01*
X-313295713Y-31311771D02*
X-313343332Y-31216533D01*
X-313343332Y-31216533D02*
X-313343332Y-31121295D01*
X-313343332Y-31121295D02*
X-313295713Y-31026057D01*
X-313295713Y-31026057D02*
X-313248094Y-30978438D01*
X-313248094Y-30978438D02*
X-313152856Y-30930819D01*
X-313152856Y-30930819D02*
X-312914761Y-30930819D01*
X-312914761Y-30930819D02*
X-312771904Y-30978438D01*
X-312438570Y-30930819D02*
X-312200475Y-31930819D01*
X-312200475Y-31930819D02*
X-312009999Y-31216533D01*
X-312009999Y-31216533D02*
X-311819523Y-31930819D01*
X-311819523Y-31930819D02*
X-311581428Y-30930819D01*
X-311295713Y-30930819D02*
X-310629047Y-30930819D01*
X-310629047Y-30930819D02*
X-311057618Y-31930819D01*
X-343589523Y-61653200D02*
X-343446666Y-61700819D01*
X-343446666Y-61700819D02*
X-343208571Y-61700819D01*
X-343208571Y-61700819D02*
X-343113333Y-61653200D01*
X-343113333Y-61653200D02*
X-343065714Y-61605580D01*
X-343065714Y-61605580D02*
X-343018095Y-61510342D01*
X-343018095Y-61510342D02*
X-343018095Y-61415104D01*
X-343018095Y-61415104D02*
X-343065714Y-61319866D01*
X-343065714Y-61319866D02*
X-343113333Y-61272247D01*
X-343113333Y-61272247D02*
X-343208571Y-61224628D01*
X-343208571Y-61224628D02*
X-343399047Y-61177009D01*
X-343399047Y-61177009D02*
X-343494285Y-61129390D01*
X-343494285Y-61129390D02*
X-343541904Y-61081771D01*
X-343541904Y-61081771D02*
X-343589523Y-60986533D01*
X-343589523Y-60986533D02*
X-343589523Y-60891295D01*
X-343589523Y-60891295D02*
X-343541904Y-60796057D01*
X-343541904Y-60796057D02*
X-343494285Y-60748438D01*
X-343494285Y-60748438D02*
X-343399047Y-60700819D01*
X-343399047Y-60700819D02*
X-343160952Y-60700819D01*
X-343160952Y-60700819D02*
X-343018095Y-60748438D01*
X-342684761Y-60700819D02*
X-342446666Y-61700819D01*
X-342446666Y-61700819D02*
X-342256190Y-60986533D01*
X-342256190Y-60986533D02*
X-342065714Y-61700819D01*
X-342065714Y-61700819D02*
X-341827619Y-60700819D01*
X-340922857Y-61700819D02*
X-341494285Y-61700819D01*
X-341208571Y-61700819D02*
X-341208571Y-60700819D01*
X-341208571Y-60700819D02*
X-341303809Y-60843676D01*
X-341303809Y-60843676D02*
X-341399047Y-60938914D01*
X-341399047Y-60938914D02*
X-341494285Y-60986533D01*
X-340303809Y-60700819D02*
X-340208571Y-60700819D01*
X-340208571Y-60700819D02*
X-340113333Y-60748438D01*
X-340113333Y-60748438D02*
X-340065714Y-60796057D01*
X-340065714Y-60796057D02*
X-340018095Y-60891295D01*
X-340018095Y-60891295D02*
X-339970476Y-61081771D01*
X-339970476Y-61081771D02*
X-339970476Y-61319866D01*
X-339970476Y-61319866D02*
X-340018095Y-61510342D01*
X-340018095Y-61510342D02*
X-340065714Y-61605580D01*
X-340065714Y-61605580D02*
X-340113333Y-61653200D01*
X-340113333Y-61653200D02*
X-340208571Y-61700819D01*
X-340208571Y-61700819D02*
X-340303809Y-61700819D01*
X-340303809Y-61700819D02*
X-340399047Y-61653200D01*
X-340399047Y-61653200D02*
X-340446666Y-61605580D01*
X-340446666Y-61605580D02*
X-340494285Y-61510342D01*
X-340494285Y-61510342D02*
X-340541904Y-61319866D01*
X-340541904Y-61319866D02*
X-340541904Y-61081771D01*
X-340541904Y-61081771D02*
X-340494285Y-60891295D01*
X-340494285Y-60891295D02*
X-340446666Y-60796057D01*
X-340446666Y-60796057D02*
X-340399047Y-60748438D01*
X-340399047Y-60748438D02*
X-340303809Y-60700819D01*
X-342976285Y-51729819D02*
X-342976285Y-50729819D01*
X-342976285Y-50729819D02*
X-342738190Y-50729819D01*
X-342738190Y-50729819D02*
X-342595333Y-50777438D01*
X-342595333Y-50777438D02*
X-342500095Y-50872676D01*
X-342500095Y-50872676D02*
X-342452476Y-50967914D01*
X-342452476Y-50967914D02*
X-342404857Y-51158390D01*
X-342404857Y-51158390D02*
X-342404857Y-51301247D01*
X-342404857Y-51301247D02*
X-342452476Y-51491723D01*
X-342452476Y-51491723D02*
X-342500095Y-51586961D01*
X-342500095Y-51586961D02*
X-342595333Y-51682200D01*
X-342595333Y-51682200D02*
X-342738190Y-51729819D01*
X-342738190Y-51729819D02*
X-342976285Y-51729819D01*
X-341452476Y-51729819D02*
X-342023904Y-51729819D01*
X-341738190Y-51729819D02*
X-341738190Y-50729819D01*
X-341738190Y-50729819D02*
X-341833428Y-50872676D01*
X-341833428Y-50872676D02*
X-341928666Y-50967914D01*
X-341928666Y-50967914D02*
X-342023904Y-51015533D01*
X-340833428Y-50729819D02*
X-340738190Y-50729819D01*
X-340738190Y-50729819D02*
X-340642952Y-50777438D01*
X-340642952Y-50777438D02*
X-340595333Y-50825057D01*
X-340595333Y-50825057D02*
X-340547714Y-50920295D01*
X-340547714Y-50920295D02*
X-340500095Y-51110771D01*
X-340500095Y-51110771D02*
X-340500095Y-51348866D01*
X-340500095Y-51348866D02*
X-340547714Y-51539342D01*
X-340547714Y-51539342D02*
X-340595333Y-51634580D01*
X-340595333Y-51634580D02*
X-340642952Y-51682200D01*
X-340642952Y-51682200D02*
X-340738190Y-51729819D01*
X-340738190Y-51729819D02*
X-340833428Y-51729819D01*
X-340833428Y-51729819D02*
X-340928666Y-51682200D01*
X-340928666Y-51682200D02*
X-340976285Y-51634580D01*
X-340976285Y-51634580D02*
X-341023904Y-51539342D01*
X-341023904Y-51539342D02*
X-341071523Y-51348866D01*
X-341071523Y-51348866D02*
X-341071523Y-51110771D01*
X-341071523Y-51110771D02*
X-341023904Y-50920295D01*
X-341023904Y-50920295D02*
X-340976285Y-50825057D01*
X-340976285Y-50825057D02*
X-340928666Y-50777438D01*
X-340928666Y-50777438D02*
X-340833428Y-50729819D01*
X-306666666Y-26954819D02*
X-306999999Y-26478628D01*
X-307238094Y-26954819D02*
X-307238094Y-25954819D01*
X-307238094Y-25954819D02*
X-306857142Y-25954819D01*
X-306857142Y-25954819D02*
X-306761904Y-26002438D01*
X-306761904Y-26002438D02*
X-306714285Y-26050057D01*
X-306714285Y-26050057D02*
X-306666666Y-26145295D01*
X-306666666Y-26145295D02*
X-306666666Y-26288152D01*
X-306666666Y-26288152D02*
X-306714285Y-26383390D01*
X-306714285Y-26383390D02*
X-306761904Y-26431009D01*
X-306761904Y-26431009D02*
X-306857142Y-26478628D01*
X-306857142Y-26478628D02*
X-307238094Y-26478628D01*
X-306333332Y-25954819D02*
X-305666666Y-25954819D01*
X-305666666Y-25954819D02*
X-306095237Y-26954819D01*
D11*
%TO.C,R5*%
X-364420000Y-23550000D02*
X-360580000Y-23550000D01*
X-364420000Y-25390000D02*
X-360580000Y-25390000D01*
%TO.C,D6*%
X-343322000Y-23229000D02*
X-343322000Y-23385000D01*
X-343322000Y-25545000D02*
X-343322000Y-25701000D01*
X-343322000Y-23229484D02*
G75*
G02*
X-340090563Y-23385000I1560000J-1235516D01*
G01*
X-342802961Y-23385000D02*
G75*
G02*
X-340721039Y-23385000I1040961J-1080000D01*
G01*
X-340721039Y-25545000D02*
G75*
G02*
X-342802961Y-25545000I-1040961J1080000D01*
G01*
X-340090563Y-25545000D02*
G75*
G02*
X-343322000Y-25700516I-1671437J1080000D01*
G01*
%TO.C,D7*%
X-313552000Y-23229000D02*
X-313552000Y-23385000D01*
X-313552000Y-25545000D02*
X-313552000Y-25701000D01*
X-313552000Y-23229484D02*
G75*
G02*
X-310320563Y-23385000I1560000J-1235516D01*
G01*
X-313032961Y-23385000D02*
G75*
G02*
X-310951039Y-23385000I1040961J-1080000D01*
G01*
X-310951039Y-25545000D02*
G75*
G02*
X-313032961Y-25545000I-1040961J1080000D01*
G01*
X-310320563Y-25545000D02*
G75*
G02*
X-313552000Y-25700516I-1671437J1080000D01*
G01*
%TO.C,R8*%
X-275070000Y-23610000D02*
X-271230000Y-23610000D01*
X-275070000Y-25450000D02*
X-271230000Y-25450000D01*
%TO.C,SW11*%
X-318995000Y-62135000D02*
X-305025000Y-62135000D01*
X-318995000Y-76105000D02*
X-318995000Y-62135000D01*
X-305025000Y-62135000D02*
X-305025000Y-76105000D01*
X-305025000Y-76105000D02*
X-318995000Y-76105000D01*
%TO.C,R24*%
X-251670000Y35670000D02*
X-247830000Y35670000D01*
X-251670000Y33830000D02*
X-247830000Y33830000D01*
%TO.C,D5*%
X-373092000Y-23229000D02*
X-373092000Y-23385000D01*
X-373092000Y-25545000D02*
X-373092000Y-25701000D01*
X-373092000Y-23229484D02*
G75*
G02*
X-369860563Y-23385000I1560000J-1235516D01*
G01*
X-372572961Y-23385000D02*
G75*
G02*
X-370491039Y-23385000I1040961J-1080000D01*
G01*
X-370491039Y-25545000D02*
G75*
G02*
X-372572961Y-25545000I-1040961J1080000D01*
G01*
X-369860563Y-25545000D02*
G75*
G02*
X-373092000Y-25700516I-1671437J1080000D01*
G01*
%TO.C,SW9*%
X-378535000Y-62135000D02*
X-364565000Y-62135000D01*
X-378535000Y-76105000D02*
X-378535000Y-62135000D01*
X-364565000Y-62135000D02*
X-364565000Y-76105000D01*
X-364565000Y-76105000D02*
X-378535000Y-76105000D01*
%TO.C,R4*%
X-275460000Y6220000D02*
X-271620000Y6220000D01*
X-275460000Y4380000D02*
X-271620000Y4380000D01*
%TO.C,D9*%
X-373092000Y-52999000D02*
X-373092000Y-53155000D01*
X-373092000Y-55315000D02*
X-373092000Y-55471000D01*
X-373092000Y-52999484D02*
G75*
G02*
X-369860563Y-53155000I1560000J-1235516D01*
G01*
X-372572961Y-53155000D02*
G75*
G02*
X-370491039Y-53155000I1040961J-1080000D01*
G01*
X-370491039Y-55315000D02*
G75*
G02*
X-372572961Y-55315000I-1040961J1080000D01*
G01*
X-369860563Y-55315000D02*
G75*
G02*
X-373092000Y-55470516I-1671437J1080000D01*
G01*
%TO.C,R1*%
X-364650000Y6170000D02*
X-360810000Y6170000D01*
X-364650000Y4330000D02*
X-360810000Y4330000D01*
%TO.C,D1*%
X-373092000Y6541000D02*
X-373092000Y6385000D01*
X-373092000Y4225000D02*
X-373092000Y4069000D01*
X-373092000Y6540516D02*
G75*
G02*
X-369860563Y6385000I1560000J-1235516D01*
G01*
X-372572961Y6385000D02*
G75*
G02*
X-370491039Y6385000I1040961J-1080000D01*
G01*
X-370491039Y4225000D02*
G75*
G02*
X-372572961Y4225000I-1040961J1080000D01*
G01*
X-369860563Y4225000D02*
G75*
G02*
X-373092000Y4069484I-1671437J1080000D01*
G01*
%TO.C,R11*%
X-304950000Y-53360000D02*
X-301110000Y-53360000D01*
X-304950000Y-55200000D02*
X-301110000Y-55200000D01*
%TO.C,R3*%
X-305170000Y6060000D02*
X-301330000Y6060000D01*
X-305170000Y4220000D02*
X-301330000Y4220000D01*
%TO.C,R25*%
X-282820000Y44620000D02*
X-278980000Y44620000D01*
X-282820000Y42780000D02*
X-278980000Y42780000D01*
%TO.C,SW12*%
X-289225000Y-62135000D02*
X-275255000Y-62135000D01*
X-289225000Y-76105000D02*
X-289225000Y-62135000D01*
X-275255000Y-62135000D02*
X-275255000Y-76105000D01*
X-275255000Y-76105000D02*
X-289225000Y-76105000D01*
%TO.C,R23*%
X-251670000Y40520000D02*
X-247830000Y40520000D01*
X-251670000Y38680000D02*
X-247830000Y38680000D01*
%TO.C,R21*%
X-251670000Y28170000D02*
X-247830000Y28170000D01*
X-251670000Y26330000D02*
X-247830000Y26330000D01*
%TO.C,R12*%
X-276580000Y-52080000D02*
X-272740000Y-52080000D01*
X-276580000Y-53920000D02*
X-272740000Y-53920000D01*
%TO.C,DS1*%
X-366595900Y44640000D02*
X-366595900Y8360000D01*
X-366595900Y8360000D02*
X-286315900Y8360000D01*
X-366585900Y44640000D02*
X-365795900Y44640000D01*
X-363455900Y39000000D02*
X-290455900Y39000000D01*
X-363455900Y14000000D02*
X-363455900Y39000000D01*
X-359955900Y45000000D02*
X-356955900Y45000000D01*
X-358755620Y19500680D02*
X-358755620Y33500000D01*
X-358255900Y34000000D02*
X-294755900Y34000000D01*
X-294755240Y19000000D02*
X-358255900Y19000000D01*
X-294255900Y33500000D02*
X-294255900Y19500000D01*
X-290455900Y39000000D02*
X-290455900Y14000000D01*
X-290455900Y14000000D02*
X-363455900Y14000000D01*
X-286315900Y44640000D02*
X-365795900Y44640000D01*
X-286315900Y8360000D02*
X-286315900Y44640000D01*
X-358755620Y33501160D02*
G75*
G02*
X-358255240Y34001540I500380J0D01*
G01*
X-358255240Y19000300D02*
G75*
G02*
X-358755620Y19500680I0J500380D01*
G01*
X-294755900Y34000000D02*
G75*
G02*
X-294255900Y33500000I0J-500000D01*
G01*
X-294254860Y19500680D02*
G75*
G02*
X-294755240Y19000360I-500340J20D01*
G01*
%TO.C,SW2*%
X-348765000Y-2595000D02*
X-334795000Y-2595000D01*
X-348765000Y-16565000D02*
X-348765000Y-2595000D01*
X-334795000Y-2595000D02*
X-334795000Y-16565000D01*
X-334795000Y-16565000D02*
X-348765000Y-16565000D01*
%TO.C,R14*%
X-251670000Y12870000D02*
X-247830000Y12870000D01*
X-251670000Y11030000D02*
X-247830000Y11030000D01*
%TO.C,R22*%
X-251670000Y25670000D02*
X-247830000Y25670000D01*
X-251670000Y23830000D02*
X-247830000Y23830000D01*
%TO.C,SW4*%
X-289225000Y-2595000D02*
X-275255000Y-2595000D01*
X-289225000Y-16565000D02*
X-289225000Y-2595000D01*
X-275255000Y-2595000D02*
X-275255000Y-16565000D01*
X-275255000Y-16565000D02*
X-289225000Y-16565000D01*
%TO.C,SW6*%
X-348765000Y-32365000D02*
X-334795000Y-32365000D01*
X-348765000Y-46335000D02*
X-348765000Y-32365000D01*
X-334795000Y-32365000D02*
X-334795000Y-46335000D01*
X-334795000Y-46335000D02*
X-348765000Y-46335000D01*
%TO.C,R15*%
X-251670000Y38170000D02*
X-247830000Y38170000D01*
X-251670000Y36330000D02*
X-247830000Y36330000D01*
%TO.C,SW3*%
X-318995000Y-2595000D02*
X-305025000Y-2595000D01*
X-318995000Y-16565000D02*
X-318995000Y-2595000D01*
X-305025000Y-2595000D02*
X-305025000Y-16565000D01*
X-305025000Y-16565000D02*
X-318995000Y-16565000D01*
%TO.C,D12*%
X-283782000Y-52999000D02*
X-283782000Y-53155000D01*
X-283782000Y-55315000D02*
X-283782000Y-55471000D01*
X-283782000Y-52999484D02*
G75*
G02*
X-280550563Y-53155000I1560000J-1235516D01*
G01*
X-283262961Y-53155000D02*
G75*
G02*
X-281181039Y-53155000I1040961J-1080000D01*
G01*
X-281181039Y-55315000D02*
G75*
G02*
X-283262961Y-55315000I-1040961J1080000D01*
G01*
X-280550563Y-55315000D02*
G75*
G02*
X-283782000Y-55470516I-1671437J1080000D01*
G01*
%TO.C,R16*%
X-251670000Y23170000D02*
X-247830000Y23170000D01*
X-251670000Y21330000D02*
X-247830000Y21330000D01*
%TO.C,U1*%
X-252630000Y8600000D02*
X-252630000Y-27080000D01*
X-252630000Y-27080000D02*
X-247330000Y-27080000D01*
X-250980000Y8600000D02*
X-252630000Y8600000D01*
X-247330000Y8600000D02*
X-248980000Y8600000D01*
X-247330000Y-27080000D02*
X-247330000Y8600000D01*
X-248980000Y8600000D02*
G75*
G02*
X-250980000Y8600000I-1000000J0D01*
G01*
%TO.C,D2*%
X-343322000Y6541000D02*
X-343322000Y6385000D01*
X-343322000Y4225000D02*
X-343322000Y4069000D01*
X-343322000Y6540516D02*
G75*
G02*
X-340090563Y6385000I1560000J-1235516D01*
G01*
X-342802961Y6385000D02*
G75*
G02*
X-340721039Y6385000I1040961J-1080000D01*
G01*
X-340721039Y4225000D02*
G75*
G02*
X-342802961Y4225000I-1040961J1080000D01*
G01*
X-340090563Y4225000D02*
G75*
G02*
X-343322000Y4069484I-1671437J1080000D01*
G01*
%TO.C,SW1*%
X-378535000Y-2595000D02*
X-364565000Y-2595000D01*
X-378535000Y-16565000D02*
X-378535000Y-2595000D01*
X-364565000Y-2595000D02*
X-364565000Y-16565000D01*
X-364565000Y-16565000D02*
X-378535000Y-16565000D01*
%TO.C,D3*%
X-313552000Y6541000D02*
X-313552000Y6385000D01*
X-313552000Y4225000D02*
X-313552000Y4069000D01*
X-313552000Y6540516D02*
G75*
G02*
X-310320563Y6385000I1560000J-1235516D01*
G01*
X-313032961Y6385000D02*
G75*
G02*
X-310951039Y6385000I1040961J-1080000D01*
G01*
X-310951039Y4225000D02*
G75*
G02*
X-313032961Y4225000I-1040961J1080000D01*
G01*
X-310320563Y4225000D02*
G75*
G02*
X-313552000Y4069484I-1671437J1080000D01*
G01*
%TO.C,R17*%
X-251670000Y33170000D02*
X-247830000Y33170000D01*
X-251670000Y31330000D02*
X-247830000Y31330000D01*
%TO.C,SW8*%
X-289225000Y-32365000D02*
X-275255000Y-32365000D01*
X-289225000Y-46335000D02*
X-289225000Y-32365000D01*
X-275255000Y-32365000D02*
X-275255000Y-46335000D01*
X-275255000Y-46335000D02*
X-289225000Y-46335000D01*
%TO.C,R10*%
X-334320000Y-53330000D02*
X-330480000Y-53330000D01*
X-334320000Y-55170000D02*
X-330480000Y-55170000D01*
%TO.C,R19*%
X-251670000Y30670000D02*
X-247830000Y30670000D01*
X-251670000Y28830000D02*
X-247830000Y28830000D01*
%TO.C,R20*%
X-251670000Y18170000D02*
X-247830000Y18170000D01*
X-251670000Y16330000D02*
X-247830000Y16330000D01*
%TO.C,R2*%
X-334990000Y6270000D02*
X-331150000Y6270000D01*
X-334990000Y4430000D02*
X-331150000Y4430000D01*
%TO.C,SW5*%
X-378535000Y-32365000D02*
X-364565000Y-32365000D01*
X-378535000Y-46335000D02*
X-378535000Y-32365000D01*
X-364565000Y-32365000D02*
X-364565000Y-46335000D01*
X-364565000Y-46335000D02*
X-378535000Y-46335000D01*
%TO.C,D4*%
X-283782000Y6541000D02*
X-283782000Y6385000D01*
X-283782000Y4225000D02*
X-283782000Y4069000D01*
X-283782000Y6540516D02*
G75*
G02*
X-280550563Y6385000I1560000J-1235516D01*
G01*
X-283262961Y6385000D02*
G75*
G02*
X-281181039Y6385000I1040961J-1080000D01*
G01*
X-281181039Y4225000D02*
G75*
G02*
X-283262961Y4225000I-1040961J1080000D01*
G01*
X-280550563Y4225000D02*
G75*
G02*
X-283782000Y4069484I-1671437J1080000D01*
G01*
%TO.C,R26*%
X-240920000Y-31920000D02*
X-240920000Y-28080000D01*
X-239080000Y-31920000D02*
X-239080000Y-28080000D01*
%TO.C,R6*%
X-334910000Y-23520000D02*
X-331070000Y-23520000D01*
X-334910000Y-25360000D02*
X-331070000Y-25360000D01*
%TO.C,D11*%
X-313552000Y-52999000D02*
X-313552000Y-53155000D01*
X-313552000Y-55315000D02*
X-313552000Y-55471000D01*
X-313552000Y-52999484D02*
G75*
G02*
X-310320563Y-53155000I1560000J-1235516D01*
G01*
X-313032961Y-53155000D02*
G75*
G02*
X-310951039Y-53155000I1040961J-1080000D01*
G01*
X-310951039Y-55315000D02*
G75*
G02*
X-313032961Y-55315000I-1040961J1080000D01*
G01*
X-310320563Y-55315000D02*
G75*
G02*
X-313552000Y-55470516I-1671437J1080000D01*
G01*
%TO.C,R18*%
X-251670000Y20670000D02*
X-247830000Y20670000D01*
X-251670000Y18830000D02*
X-247830000Y18830000D01*
%TO.C,R9*%
X-364610000Y-53340000D02*
X-360770000Y-53340000D01*
X-364610000Y-55180000D02*
X-360770000Y-55180000D01*
%TO.C,D8*%
X-283782000Y-23229000D02*
X-283782000Y-23385000D01*
X-283782000Y-25545000D02*
X-283782000Y-25701000D01*
X-283782000Y-23229484D02*
G75*
G02*
X-280550563Y-23385000I1560000J-1235516D01*
G01*
X-283262961Y-23385000D02*
G75*
G02*
X-281181039Y-23385000I1040961J-1080000D01*
G01*
X-281181039Y-25545000D02*
G75*
G02*
X-283262961Y-25545000I-1040961J1080000D01*
G01*
X-280550563Y-25545000D02*
G75*
G02*
X-283782000Y-25700516I-1671437J1080000D01*
G01*
%TO.C,R13*%
X-251670000Y15570000D02*
X-247830000Y15570000D01*
X-251670000Y13730000D02*
X-247830000Y13730000D01*
%TO.C,A1*%
X-262240000Y-36670000D02*
X-262240000Y-39340000D01*
X-262240000Y-41880000D02*
X-262240000Y-80110000D01*
X-262240000Y-80110000D02*
X-257160000Y-80110000D01*
X-259570000Y-39340000D02*
X-262240000Y-39340000D01*
X-259570000Y-41880000D02*
X-262240000Y-41880000D01*
X-259570000Y-41880000D02*
X-259570000Y-39340000D01*
X-259570000Y-41880000D02*
X-259570000Y-77440000D01*
X-259570000Y-77440000D02*
X-262240000Y-77440000D01*
X-257160000Y-72230000D02*
X-249280000Y-72230000D01*
X-257160000Y-82650000D02*
X-257160000Y-72230000D01*
X-249280000Y-72230000D02*
X-249280000Y-82650000D01*
X-249280000Y-82650000D02*
X-257160000Y-82650000D01*
X-246870000Y-39340000D02*
X-246870000Y-77440000D01*
X-246870000Y-39340000D02*
X-244200000Y-39340000D01*
X-246870000Y-77440000D02*
X-244200000Y-77440000D01*
X-244200000Y-36670000D02*
X-262240000Y-36670000D01*
X-244200000Y-80110000D02*
X-249280000Y-80110000D01*
X-244200000Y-80110000D02*
X-244200000Y-36670000D01*
%TO.C,SW7*%
X-318995000Y-32365000D02*
X-305025000Y-32365000D01*
X-318995000Y-46335000D02*
X-318995000Y-32365000D01*
X-305025000Y-32365000D02*
X-305025000Y-46335000D01*
X-305025000Y-46335000D02*
X-318995000Y-46335000D01*
%TO.C,SW10*%
X-348765000Y-62135000D02*
X-334795000Y-62135000D01*
X-348765000Y-76105000D02*
X-348765000Y-62135000D01*
X-334795000Y-62135000D02*
X-334795000Y-76105000D01*
X-334795000Y-76105000D02*
X-348765000Y-76105000D01*
%TO.C,D10*%
X-343322000Y-52999000D02*
X-343322000Y-53155000D01*
X-343322000Y-55315000D02*
X-343322000Y-55471000D01*
X-343322000Y-52999484D02*
G75*
G02*
X-340090563Y-53155000I1560000J-1235516D01*
G01*
X-342802961Y-53155000D02*
G75*
G02*
X-340721039Y-53155000I1040961J-1080000D01*
G01*
X-340721039Y-55315000D02*
G75*
G02*
X-342802961Y-55315000I-1040961J1080000D01*
G01*
X-340090563Y-55315000D02*
G75*
G02*
X-343322000Y-55470516I-1671437J1080000D01*
G01*
%TO.C,R7*%
X-304980000Y-23480000D02*
X-301140000Y-23480000D01*
X-304980000Y-25320000D02*
X-301140000Y-25320000D01*
%TD*%
M02*
